<svg xmlns="http://www.w3.org/2000/svg" xmlns:xlink="http://www.w3.org/1999/xlink" viewBox="0 0 430 350" width="430" height="350" preserveAspectRatio="xMidYMid meet" style="width: 100%; height: 100%; transform: translate3d(0px, 0px, 0px); content-visibility: visible;"><defs><clipPath id="__lottie_element_2"><rect width="430" height="350" x="0" y="0"></rect></clipPath></defs><g clip-path="url(#__lottie_element_2)"><g transform="matrix(1,0,0,1,215,163)" opacity="1" style="display: block;"><g opacity="1" transform="matrix(1,0,0,1,0,0)"><path stroke-linecap="butt" stroke-linejoin="miter" fill-opacity="0" stroke-miterlimit="4" stroke="rgb(17,17,17)" stroke-opacity="1" stroke-width="45" d=" M-170,-111 C-170,-111 188,-111 188,-111"></path></g></g><g transform="matrix(1,0,0,1,215,283)" opacity="1" style="display: block;"><g opacity="1" transform="matrix(1,0,0,1,0,0)"><path stroke-linecap="butt" stroke-linejoin="miter" fill-opacity="0" stroke-miterlimit="4" stroke="rgb(17,17,17)" stroke-opacity="1" stroke-width="45" d=" M-170,-111 C-170,-111 188,-111 188,-111"></path></g></g><g transform="matrix(1,0,0,1,215,403)" opacity="1" style="display: block;"><g opacity="1" transform="matrix(1,0,0,1,0,0)"><path stroke-linecap="butt" stroke-linejoin="miter" fill-opacity="0" stroke-miterlimit="4" stroke="rgb(17,17,17)" stroke-opacity="1" stroke-width="45" d=" M-170,-111 C-170,-111 188,-111 188,-111"></path></g></g></g></svg>