<svg width="44" height="43" viewBox="0 0 44 43" fill="none" xmlns="http://www.w3.org/2000/svg">
<path d="M22 43C33.6343 43 43.3722 33.2038 43.3722 21.5C43.3722 18.5869 42.8084 15.545 41.1683 12.0647L43.5003 10.8789C44.2178 10.518 44.1666 9.43525 43.3209 9.22902L38.9389 8.17206C38.1957 7.21823 37.3757 6.31595 36.4787 5.49101L35.7868 1.03118C35.6587 0.283573 34.6593 0.0257794 34.2493 0.696043L32.7117 3.09353C29.4572 1.03118 25.8695 0 22 0C18.1305 0 14.5172 1.03118 11.2883 3.09353L9.75072 0.696043C9.31508 0.0257794 8.31566 0.283573 8.18753 1.03118L7.49562 5.51679C6.62434 6.34173 5.8043 7.21823 5.06114 8.17206L0.67908 9.22902C-0.166582 9.43525 -0.217834 10.518 0.499697 10.8789L2.83167 12.0647C1.1916 15.545 0.627828 18.6127 0.627828 21.5C0.627828 33.2038 10.3401 43 22 43ZM8.0594 18.2776C7.90564 18.4323 7.75189 18.3549 7.75189 18.1487L7.93127 14.4622C7.98252 13.4053 7.47 12.5288 6.52183 12.039L3.49795 10.4922C3.3442 10.4149 3.36982 10.2602 3.52358 10.2344L7.00873 9.46103C8.08502 9.20324 8.67443 8.50719 8.87943 7.42446L9.49446 3.76379C9.52009 3.58333 9.69947 3.506 9.80197 3.68645L11.7239 6.80576C12.2877 7.73381 13.2615 8.09472 14.2609 7.91427L17.6948 7.26978C17.8742 7.24401 18.0023 7.34712 17.8486 7.52758L15.7216 10.1055C15.1066 10.8531 14.9784 11.9101 15.3885 12.8124L16.9773 16.1379C17.0542 16.2926 16.9773 16.4472 16.7723 16.3699L13.4665 14.9778C12.3133 14.5138 11.442 14.72 10.622 15.5965L8.0594 18.2776ZM35.9406 18.2776L33.378 15.5965C32.5067 14.72 31.661 14.5396 30.5335 14.9778L27.2277 16.3699C26.9971 16.4472 26.9458 16.2926 27.0227 16.1379L28.6115 12.8124C29.0728 11.8585 28.8678 10.8273 28.2528 10.1055L26.1258 7.52758C25.972 7.34712 26.1258 7.24401 26.3052 7.26978L29.7135 7.91427C30.7898 8.09472 31.7379 7.68225 32.2761 6.77998L34.1724 3.68645C34.2749 3.506 34.4799 3.58333 34.5055 3.76379L35.1206 7.39868C35.2999 8.55875 35.8894 9.17746 37.0169 9.43525L40.4764 10.2344C40.6046 10.2602 40.6302 10.4149 40.4764 10.4922L37.4782 12.039C36.4787 12.5288 35.9919 13.4311 36.0431 14.4622L36.2481 18.1487C36.2481 18.3549 36.0944 18.4323 35.9406 18.2776ZM8.67443 21.6031C9.00756 21.6031 9.26383 21.5258 9.52009 21.2422L12.3133 18.1487C12.5696 17.8651 12.7234 17.8909 12.9796 17.994L16.6185 19.5665C17.2848 19.8501 17.7973 19.7728 18.1561 19.5923C18.643 19.3603 19.053 19.0252 19.258 18.8447C19.7193 18.4838 19.7449 17.994 19.4886 17.4526L16.926 12.0905C16.7466 11.7296 16.8492 11.446 17.0029 11.1367L20.7187 6.57374C20.8725 6.39329 20.9237 6.16127 20.9237 6.00659C20.9237 5.49101 20.5649 4.97542 19.9243 5.10432L15.4141 5.95504C17.4642 5.0012 19.668 4.53717 22 4.53717C24.3063 4.53717 26.5358 5.0012 28.5603 5.95504L24.0757 5.10432C23.4351 4.97542 23.0763 5.49101 23.0763 6.00659C23.0763 6.16127 23.1019 6.39329 23.2813 6.57374L26.9971 11.1367C27.1765 11.446 27.2021 11.7554 27.0483 12.0905L24.4857 17.4526C24.2295 17.994 24.2551 18.458 24.742 18.8447C24.947 19.051 25.3314 19.3345 25.8439 19.5923C26.2027 19.7728 26.7152 19.8501 27.3815 19.5665L31.0204 17.994C31.3535 17.8651 31.4817 17.9424 31.6867 18.1745L34.4543 21.2422C34.7362 21.5516 34.9924 21.6031 35.3256 21.6031C35.9919 21.6031 36.1969 21.6031 37.145 21.5C37.7601 21.4484 38.0932 21.1391 38.0419 20.3399L37.8369 15.7512C38.5801 18.0198 38.8107 19.7212 38.8107 21.5C38.8107 30.9095 31.3792 38.437 22 38.437C12.6208 38.437 5.16365 30.9353 5.16365 21.5C5.16365 19.7212 5.41991 18.0456 6.16307 15.777L5.93243 20.3399C5.90681 21.1133 6.16307 21.4484 6.82935 21.5C7.80314 21.6031 7.98252 21.6031 8.67443 21.6031ZM22 35.3693C29.0728 35.3693 34.608 30.265 35.3512 24.5162C35.5562 23.0725 34.608 22.4281 33.3524 22.789C29.3803 23.9233 25.8952 24.5935 22 24.5935C18.1048 24.5935 14.5941 23.9233 10.622 22.789C9.39196 22.4281 8.41816 23.0468 8.62317 24.542C9.39196 30.265 15.0041 35.3693 22 35.3693ZM22 29.3885C18.9761 29.3885 15.5935 28.976 13.159 28.4347C12.749 28.3315 12.544 28.1769 12.3646 27.8933C12.0571 27.3777 11.6983 26.7074 11.442 25.8309C11.4164 25.702 11.4933 25.6247 11.6214 25.6505C14.8247 26.5012 18.3098 27.1199 22 27.1199C25.7158 27.1199 29.3291 26.4754 32.3273 25.6763C32.5067 25.6247 32.5836 25.7278 32.5323 25.8567C32.2761 26.759 31.8917 27.4035 31.6098 27.8933C31.4304 28.1769 31.251 28.3315 30.841 28.4347C28.509 28.9502 25.152 29.3885 22 29.3885Z" fill="#85EA00"/>
</svg>
