<svg width="32" height="32" viewBox="0 0 32 32" fill="none" xmlns="http://www.w3.org/2000/svg">
<rect width="32" height="32" rx="4" fill="white"/>
<path d="M10.0152 23.3103C9.85011 23.3103 9.70756 23.2503 9.58752 23.1303C9.46748 23.0102 9.40746 22.8677 9.40746 22.7026V8.16272C9.40746 7.99766 9.46748 7.85511 9.58752 7.73507C9.70756 7.61503 9.85011 7.55501 10.0152 7.55501H13.5714C13.8715 7.55501 14.089 7.62253 14.2241 7.75758C14.3591 7.89263 14.4492 7.99766 14.4942 8.07269L18.298 14.3073V8.16272C18.298 7.99766 18.358 7.85511 18.478 7.73507C18.5981 7.61503 18.7406 7.55501 18.9057 7.55501H22.9796C23.1446 7.55501 23.2872 7.61503 23.4072 7.73507C23.5272 7.85511 23.5873 7.99766 23.5873 8.16272V22.7026C23.5873 22.8677 23.5272 23.0102 23.4072 23.1303C23.2872 23.2503 23.1446 23.3103 22.9796 23.3103H19.4234C19.1233 23.3103 18.9057 23.2428 18.7706 23.1078C18.6356 22.9577 18.5456 22.8527 18.5005 22.7927L14.6968 17.0532V22.7026C14.6968 22.8677 14.6367 23.0102 14.5167 23.1303C14.3967 23.2503 14.2541 23.3103 14.089 23.3103H10.0152ZM14.1566 8.81544L14.0665 8.63538L13.909 8.72541L13.7964 8.97299L14.089 9.04052L14.1566 8.81544ZM11.9058 8.74792C11.8158 8.71791 11.7483 8.72541 11.7032 8.77042C11.6582 8.80043 11.6057 8.86045 11.5457 8.95048C11.4407 9.07052 11.4256 9.19056 11.5007 9.31061C11.5907 9.43065 11.7107 9.46816 11.8608 9.42314C11.9508 9.40814 12.0183 9.38563 12.0634 9.35562C12.1084 9.31061 12.1309 9.24308 12.1309 9.15305C12.1309 9.03301 12.1159 8.95048 12.0859 8.90547C12.0709 8.84545 12.0108 8.79293 11.9058 8.74792ZM20.8638 8.77042L20.6613 8.86045L20.6838 9.10804L20.9089 9.04052L21.0214 8.90547L20.8638 8.77042ZM20.0986 9.26559C20.0686 9.16056 20.0311 9.08553 19.986 9.04052C19.956 8.9955 19.8885 8.97299 19.7835 8.97299C19.6634 8.97299 19.5734 8.9955 19.5134 9.04052C19.4534 9.07052 19.4083 9.13805 19.3783 9.24308C19.3333 9.36312 19.3258 9.45315 19.3558 9.51317C19.3858 9.57319 19.4534 9.64072 19.5584 9.71574C19.6484 9.77576 19.7235 9.79827 19.7835 9.78327C19.8435 9.76826 19.9185 9.73075 20.0086 9.67073C20.1286 9.56569 20.1586 9.43065 20.0986 9.26559ZM13.999 10.436C13.7289 10.391 13.4963 10.3385 13.3013 10.2784C13.1062 10.2184 12.9337 10.2109 12.7836 10.2559C12.6336 10.3009 12.4985 10.4435 12.3785 10.6836C12.2584 10.9237 12.2209 11.1187 12.2659 11.2688C12.326 11.4038 12.4385 11.5314 12.6035 11.6514C12.7686 11.7714 12.9487 11.929 13.1437 12.1241C13.3838 12.3641 13.5789 12.5442 13.7289 12.6642C13.894 12.7843 14.1341 12.7693 14.4492 12.6192C14.8093 12.4242 15.0419 12.2441 15.1469 12.079C15.2669 11.899 15.297 11.6064 15.2369 11.2012C15.1769 10.8411 15.0419 10.6386 14.8318 10.5935C14.6367 10.5335 14.3591 10.481 13.999 10.436ZM11.0505 10.571C11.0205 10.451 10.9755 10.376 10.9155 10.346C10.8555 10.3009 10.7654 10.2709 10.6454 10.2559C10.5253 10.2409 10.4428 10.2634 10.3978 10.3234C10.3678 10.3685 10.3303 10.4435 10.2853 10.5485C10.2252 10.7136 10.2553 10.8486 10.3753 10.9537C10.4653 11.0437 10.5403 11.1112 10.6004 11.1562C10.6604 11.2012 10.7504 11.1937 10.8705 11.1337C10.9905 11.0587 11.058 10.9837 11.073 10.9086C11.103 10.8336 11.0955 10.7211 11.0505 10.571ZM20.8188 10.2559H20.5487L20.4362 10.4135L20.5712 10.5935L20.7738 10.5035L20.8188 10.2559ZM21.224 10.7961L20.9539 10.8411L20.8863 11.1112L21.1564 11.2463L21.2465 11.0212L21.224 10.7961ZM19.9185 10.8861C19.8285 10.8411 19.761 10.8411 19.716 10.8861C19.6859 10.9312 19.6409 10.9837 19.5809 11.0437C19.5059 11.1337 19.4384 11.2012 19.3783 11.2463C19.3333 11.2763 19.3333 11.3363 19.3783 11.4263C19.4534 11.5464 19.5134 11.6289 19.5584 11.6739C19.6184 11.7039 19.716 11.7114 19.851 11.6964C19.986 11.6664 20.0761 11.6214 20.1211 11.5614C20.1661 11.5013 20.1961 11.4038 20.2111 11.2688C20.2261 11.1487 20.2111 11.0662 20.1661 11.0212C20.1211 10.9762 20.0386 10.9312 19.9185 10.8861ZM23.0246 11.9665C22.9946 11.8165 22.942 11.7264 22.867 11.6964C22.792 11.6514 22.6795 11.6214 22.5294 11.6064C22.3794 11.5914 22.2743 11.6139 22.2143 11.6739C22.1693 11.7189 22.1168 11.809 22.0567 11.944C22.0117 12.049 22.0042 12.1316 22.0342 12.1916C22.0793 12.2516 22.1468 12.3191 22.2368 12.3941C22.3418 12.4842 22.4244 12.5517 22.4844 12.5967C22.5594 12.6267 22.6494 12.6117 22.7545 12.5517C22.8895 12.4617 22.9796 12.3791 23.0246 12.3041C23.0696 12.2291 23.0696 12.1166 23.0246 11.9665ZM20.5037 12.9343C20.3687 12.8293 20.2336 12.8218 20.0986 12.9118C19.9485 13.0169 19.896 13.1519 19.941 13.317C19.956 13.407 19.9935 13.4595 20.0536 13.4745C20.1136 13.4745 20.1961 13.4745 20.3012 13.4745C20.4212 13.4745 20.5037 13.4145 20.5487 13.2945C20.5787 13.2044 20.5938 13.1369 20.5938 13.0919C20.6088 13.0469 20.5787 12.9944 20.5037 12.9343ZM12.4685 13.7671C12.3935 13.7071 12.3335 13.6621 12.2884 13.6321C12.2434 13.6021 12.1759 13.6171 12.0859 13.6771C11.9958 13.7221 11.9508 13.7746 11.9508 13.8346C11.9508 13.8947 11.9583 13.9697 11.9733 14.0597C12.0033 14.1647 12.0334 14.2398 12.0634 14.2848C12.0934 14.3148 12.1609 14.3373 12.2659 14.3523C12.356 14.3523 12.416 14.3373 12.446 14.3073C12.491 14.2623 12.5285 14.1948 12.5585 14.1047C12.6186 13.9697 12.5885 13.8571 12.4685 13.7671ZM15.507 14.0597C15.402 13.9097 15.3045 13.8271 15.2144 13.8121C15.1244 13.7971 14.9894 13.8121 14.8093 13.8571C14.6292 13.9022 14.5017 13.9622 14.4267 14.0372C14.3666 14.0972 14.3366 14.2173 14.3366 14.3973C14.3366 14.5624 14.3666 14.6749 14.4267 14.7349C14.5017 14.795 14.6217 14.855 14.7868 14.915C14.9218 14.96 15.0194 14.9675 15.0794 14.9375C15.1544 14.8925 15.2369 14.81 15.327 14.6899C15.432 14.5699 15.507 14.4724 15.552 14.3973C15.6121 14.3073 15.5971 14.1948 15.507 14.0597ZM16.5874 14.1047C16.4373 14.1047 16.3398 14.1347 16.2948 14.1948C16.2498 14.2548 16.1973 14.3523 16.1372 14.4874C16.0772 14.6524 16.0322 14.7875 16.0022 14.8925C15.9722 14.9825 16.0247 15.0801 16.1597 15.1851C16.2798 15.2751 16.3698 15.2826 16.4298 15.2076C16.5049 15.1176 16.6099 15.02 16.7449 14.915C16.88 14.84 17 14.7875 17.1051 14.7574C17.2101 14.7124 17.2401 14.6149 17.1951 14.4649C17.1501 14.2998 17.0826 14.2023 16.9925 14.1723C16.9025 14.1272 16.7675 14.1047 16.5874 14.1047ZM11.2306 14.6674C11.2006 14.5174 11.1781 14.3973 11.1631 14.3073C11.1481 14.2173 11.058 14.1647 10.893 14.1497C10.7429 14.1347 10.6379 14.1647 10.5779 14.2398C10.5178 14.3148 10.4578 14.4273 10.3978 14.5774C10.3528 14.6974 10.3528 14.7875 10.3978 14.8475C10.4578 14.8925 10.5403 14.9525 10.6454 15.0275C10.7354 15.1026 10.8104 15.1551 10.8705 15.1851C10.9305 15.2151 11.013 15.2001 11.118 15.1401C11.2231 15.0651 11.2756 14.9975 11.2756 14.9375C11.2906 14.8775 11.2756 14.7875 11.2306 14.6674ZM21.1114 15.3201C20.6613 15.1251 20.2786 15.0125 19.9635 14.9825C19.6634 14.9525 19.3783 15.02 19.1082 15.1851C18.8532 15.3351 18.5606 15.5977 18.2305 15.9729C17.9604 16.273 17.8553 16.5356 17.9153 16.7606C17.9754 16.9857 18.1104 17.2183 18.3205 17.4584C18.5456 17.6834 18.7631 17.9685 18.9732 18.3137C19.1983 18.6888 19.4008 18.9439 19.5809 19.0789C19.776 19.214 20.0836 19.229 20.5037 19.1239C21.0139 19.0039 21.3965 18.8838 21.6516 18.7638C21.9217 18.6438 22.0793 18.3212 22.1243 17.796C22.1543 17.3458 22.1693 16.9707 22.1693 16.6706C22.1693 16.3705 22.0943 16.1154 21.9442 15.9053C21.8092 15.6803 21.5316 15.4852 21.1114 15.3201ZM13.8415 15.4552C13.7214 15.3351 13.6239 15.2526 13.5489 15.2076C13.4738 15.1476 13.3613 15.1476 13.2113 15.2076C13.0162 15.2826 12.8811 15.3577 12.8061 15.4327C12.7461 15.5077 12.7236 15.6427 12.7386 15.8378C12.7536 16.0179 12.8061 16.1304 12.8961 16.1754C13.0012 16.2054 13.1362 16.243 13.3013 16.288C13.4813 16.333 13.6164 16.363 13.7064 16.378C13.8115 16.378 13.909 16.303 13.999 16.1529C14.1041 16.0029 14.1266 15.8828 14.0665 15.7928C14.0215 15.7028 13.9465 15.5902 13.8415 15.4552ZM10.7804 16.0629C10.7804 15.9729 10.7129 15.9053 10.5779 15.8603C10.4578 15.8303 10.3753 15.8528 10.3303 15.9278C10.2703 16.0029 10.2252 16.0629 10.1952 16.1079C10.1802 16.1529 10.1952 16.2129 10.2402 16.288C10.3453 16.408 10.4803 16.438 10.6454 16.378C10.7354 16.348 10.7804 16.3105 10.7804 16.2655C10.7804 16.2054 10.7804 16.1379 10.7804 16.0629ZM13.1887 17.0307C13.1137 16.9257 13.0387 16.8957 12.9637 16.9407C12.9036 16.9707 12.8136 17.0082 12.6936 17.0532C12.6035 17.0832 12.536 17.1132 12.491 17.1433C12.446 17.1733 12.4235 17.2333 12.4235 17.3233C12.4235 17.4133 12.446 17.4734 12.491 17.5034C12.536 17.5334 12.6035 17.5634 12.6936 17.5934C12.7986 17.6384 12.8736 17.6684 12.9187 17.6834C12.9787 17.6834 13.0462 17.6459 13.1212 17.5709C13.1962 17.4509 13.2413 17.3608 13.2563 17.3008C13.2863 17.2258 13.2638 17.1358 13.1887 17.0307ZM11.118 17.2333C10.968 17.1883 10.8555 17.1583 10.7804 17.1433C10.7054 17.1132 10.6229 17.1583 10.5328 17.2783C10.4578 17.3983 10.4428 17.4959 10.4878 17.5709C10.5328 17.6309 10.6004 17.721 10.6904 17.841C10.7654 17.946 10.8329 18.0286 10.893 18.0886C10.953 18.1336 11.0505 18.1336 11.1856 18.0886C11.3206 18.0286 11.4031 17.9685 11.4331 17.9085C11.4782 17.8335 11.5007 17.721 11.5007 17.5709C11.5007 17.4509 11.4632 17.3758 11.3881 17.3458C11.3281 17.3008 11.2381 17.2633 11.118 17.2333ZM12.1309 18.8989C12.1009 18.8088 12.0559 18.7638 11.9958 18.7638C11.9358 18.7488 11.8533 18.7413 11.7483 18.7413C11.6432 18.7413 11.5532 18.7413 11.4782 18.7413C11.4181 18.7413 11.3731 18.7938 11.3431 18.8989C11.3131 19.0039 11.3281 19.0714 11.3881 19.1014C11.4482 19.1314 11.5232 19.1764 11.6132 19.2365C11.6732 19.2815 11.7257 19.319 11.7708 19.349C11.8158 19.364 11.8683 19.3415 11.9283 19.2815C12.0183 19.2215 12.0784 19.1689 12.1084 19.1239C12.1534 19.0789 12.1609 19.0039 12.1309 18.8989ZM10.9155 19.4165C10.9005 19.2965 10.863 19.229 10.8029 19.214C10.7429 19.1839 10.6529 19.1539 10.5328 19.1239C10.4278 19.1089 10.3378 19.1014 10.2628 19.1014C10.2027 19.1014 10.1502 19.1464 10.1052 19.2365C10.0002 19.4165 10.0152 19.5891 10.1502 19.7541C10.2402 19.8442 10.3153 19.9042 10.3753 19.9342C10.4353 19.9492 10.5253 19.9267 10.6454 19.8667C10.8404 19.7766 10.9305 19.6266 10.9155 19.4165ZM13.3238 19.6416C13.1587 19.6116 13.0387 19.6566 12.9637 19.7766C12.9036 19.8817 12.8661 19.9642 12.8511 20.0242C12.8361 20.0843 12.8661 20.1593 12.9412 20.2493C13.0162 20.3243 13.0837 20.3618 13.1437 20.3618C13.2037 20.3468 13.2863 20.3168 13.3913 20.2718C13.4963 20.2268 13.5639 20.1818 13.5939 20.1368C13.6389 20.0918 13.6539 20.0167 13.6389 19.9117C13.6239 19.8067 13.5939 19.7466 13.5489 19.7316C13.5038 19.7016 13.4288 19.6716 13.3238 19.6416ZM18.5456 20.0918L18.298 20.2268L18.3205 20.4744L18.5681 20.5419L18.7031 20.3168L18.5456 20.0918ZM10.6454 20.812L10.4428 20.6995L10.3078 20.8795L10.3978 21.0146H10.5779L10.6454 20.812ZM11.2981 21.2171C11.2231 21.1421 11.1405 21.1271 11.0505 21.1721C10.9755 21.2171 10.9155 21.2546 10.8705 21.2847C10.8404 21.2997 10.8329 21.3522 10.848 21.4422C10.863 21.5172 10.893 21.5548 10.938 21.5548C10.998 21.5548 11.0655 21.5623 11.1405 21.5773C11.2156 21.5923 11.2756 21.5998 11.3206 21.5998C11.3656 21.5998 11.4031 21.5623 11.4331 21.4872C11.4632 21.4272 11.4632 21.3822 11.4331 21.3522C11.4031 21.3222 11.3581 21.2772 11.2981 21.2171ZM13.2338 21.3972C13.1287 21.2471 13.0237 21.1721 12.9187 21.1721C12.8286 21.1571 12.6936 21.1796 12.5135 21.2396C12.3485 21.2997 12.2359 21.3672 12.1759 21.4422C12.1309 21.5172 12.1084 21.6373 12.1084 21.8023C12.1084 21.9824 12.1309 22.1174 12.1759 22.2075C12.2209 22.2825 12.326 22.35 12.491 22.41C12.7011 22.4701 12.8661 22.5151 12.9862 22.5451C13.1062 22.5601 13.2338 22.4776 13.3688 22.2975C13.5038 22.1174 13.5489 21.9674 13.5039 21.8473C13.4588 21.7273 13.3688 21.5773 13.2338 21.3972ZM19.5134 21.5322L19.2883 21.4647L19.1082 21.6223L19.2658 21.8248L19.4684 21.7573L19.5134 21.5322ZM22.0567 22.2075L21.8992 22.0499L21.7191 22.185L21.7641 22.3875L21.9667 22.41L22.0567 22.2075Z" fill="#151515"/>
</svg>
