<svg width="20" height="20" viewBox="0 0 20 20" fill="none" xmlns="http://www.w3.org/2000/svg">
<path d="M11.6883 6.69613L4.68828 13.5711C4.57138 13.6861 4.41398 13.7506 4.25 13.7506C4.08603 13.7506 3.92862 13.6861 3.81172 13.5711L0.811721 10.625C0.75319 10.5675 0.706569 10.499 0.67452 10.4234C0.64247 10.3478 0.62562 10.2667 0.62493 10.1846C0.624241 10.1025 0.639727 10.0211 0.670503 9.94498C0.701279 9.86888 0.746743 9.79958 0.804299 9.74105C0.861855 9.68252 0.930375 9.6359 1.00595 9.60385C1.08152 9.5718 1.16267 9.55495 1.24475 9.55426C1.32684 9.55357 1.40826 9.56906 1.48436 9.59984C1.56046 9.63061 1.62975 9.67608 1.68828 9.73363L4.25 12.2493L10.8125 5.80394C10.9308 5.6877 11.0905 5.62323 11.2563 5.62469C11.3384 5.62542 11.4196 5.64231 11.4952 5.67441C11.5708 5.7065 11.6393 5.75317 11.6969 5.81176C11.7544 5.87034 11.7999 5.93968 11.8306 6.01583C11.8614 6.09198 11.8769 6.17344 11.8761 6.25556C11.8754 6.33768 11.8585 6.41886 11.8264 6.49445C11.7943 6.57004 11.7476 6.63858 11.6891 6.69613H11.6883ZM19.1961 5.81176C19.1386 5.75313 19.07 5.70642 18.9944 5.6743C18.9188 5.64217 18.8377 5.62526 18.7555 5.62454C18.6734 5.62381 18.5919 5.63928 18.5158 5.67007C18.4396 5.70085 18.3703 5.74634 18.3117 5.80394L11.7492 12.2493L10.2781 10.8039C10.1598 10.6878 10.0002 10.6234 9.83444 10.625C9.66866 10.6265 9.51028 10.6938 9.39414 10.8121C9.27801 10.9305 9.21363 11.0901 9.21517 11.2558C9.2167 11.4216 9.28403 11.58 9.40235 11.6961L11.3109 13.5711C11.4278 13.6861 11.5852 13.7506 11.7492 13.7506C11.9132 13.7506 12.0706 13.6861 12.1875 13.5711L19.1875 6.69613C19.2462 6.63865 19.293 6.57017 19.3251 6.4946C19.3573 6.41903 19.3743 6.33786 19.3751 6.25573C19.3759 6.17359 19.3605 6.0921 19.3298 6.01592C19.2991 5.93974 19.2536 5.87037 19.1961 5.81176Z" fill="white"/>
</svg>
