<svg width="120" height="120" viewBox="0 0 120 120" fill="none" xmlns="http://www.w3.org/2000/svg">
<path fill-rule="evenodd" clip-rule="evenodd" d="M59.0303 21.0928C42.1926 21.0928 28.6865 33.4981 28.6865 48.6386C28.6865 51.3074 26.3476 53.4708 23.4624 53.4708C20.5772 53.4708 18.2383 51.3074 18.2383 48.6386C18.2383 28.0153 36.5806 11.4282 59.0303 11.4282C81.48 11.4282 99.8223 28.0153 99.8223 48.6386C99.8223 51.3074 97.4834 53.4708 94.5982 53.4708C91.7129 53.4708 89.3741 51.3074 89.3741 48.6386C89.3741 33.4981 75.8677 21.0928 59.0303 21.0928Z" fill="white"/>
<path d="M101.625 74.3389L103.317 62.0143C103.99 57.1123 104.327 54.6612 102.819 53.0781C101.31 51.4946 98.6396 51.4946 93.2975 51.4946H24.7651C19.423 51.4946 16.752 51.4946 15.244 53.0781C13.736 54.6612 14.0726 57.1123 14.7457 62.0143L16.438 74.3389C18.5738 89.8929 19.6417 97.67 25.366 102.335C31.0903 107 39.5653 107 56.5157 107H61.5468C78.4972 107 86.9723 107 92.6964 102.335C98.4209 97.67 99.4887 89.8929 101.625 74.3389Z" fill="#151515"/>
<path fill-rule="evenodd" clip-rule="evenodd" d="M24.5231 47.992C24.6043 47.992 24.6857 47.992 24.7674 47.992H93.5441C96.0047 47.9917 98.2348 47.9914 100.025 48.2237C101.98 48.4777 104.06 49.0802 105.663 50.7625C107.265 52.4448 107.649 54.4297 107.675 56.2562C107.699 57.9277 107.417 59.9742 107.107 62.2322L105.351 75.0231C104.311 82.5948 103.485 88.61 102.175 93.2977C100.825 98.1311 98.8504 101.991 95.2025 104.964C91.5546 107.937 87.1657 109.263 81.8119 109.893C76.6196 110.504 70.0643 110.504 61.8132 110.504H56.2539C48.0028 110.504 41.4474 110.504 36.2552 109.893C30.9013 109.263 26.5125 107.937 22.8645 104.964C19.2166 101.991 17.2422 98.1311 15.8916 93.2977C14.5818 88.61 13.7559 82.5948 12.7163 75.0231L10.9906 62.4562C10.9804 62.3814 10.9701 62.3065 10.9598 62.2322C10.6495 59.9742 10.3683 57.9277 10.392 56.2562C10.418 54.4297 10.802 52.4448 12.4044 50.7625C14.0067 49.0802 16.0868 48.4777 18.0425 48.2237C19.8323 47.9914 22.0625 47.9917 24.5231 47.992ZM18.0891 55.3954C18.0989 55.39 18.1173 55.3808 18.1468 55.3688C18.2678 55.3197 18.5416 55.2345 19.0956 55.1625C20.2947 55.0068 21.9825 54.9985 24.7674 54.9985H93.2998C96.0847 54.9985 97.7724 55.0068 98.9715 55.1625C99.5256 55.2345 99.7993 55.3197 99.9203 55.3688C99.9497 55.3808 99.9682 55.39 99.9781 55.3954C99.9824 55.4051 99.9898 55.4228 99.9991 55.4517C100.037 55.5688 100.093 55.8308 100.101 56.3482C100.117 57.4682 99.9129 59.018 99.562 61.5734L97.8697 73.898C97.8595 73.9714 97.8493 74.0448 97.8394 74.118C96.7747 81.8705 96.0059 87.3777 94.8414 91.5442C93.6933 95.654 92.2715 98.0148 90.1952 99.7068C88.1186 101.399 85.4079 102.406 80.8556 102.942C76.1968 103.491 70.1239 103.497 61.5491 103.497H56.518C47.9432 103.497 41.8703 103.491 37.2115 102.942C32.6593 102.406 29.9484 101.399 27.872 99.7068C25.7957 98.0148 24.3739 95.654 23.2256 91.5442C22.0503 87.3382 21.278 81.7665 20.1976 73.898L18.5052 61.5734C18.1543 59.018 17.9504 57.4682 17.9663 56.3482C17.9737 55.8308 18.0304 55.5688 18.068 55.4517C18.0773 55.4228 18.0847 55.4051 18.0891 55.3954Z" fill="#151515"/>
<path fill-rule="evenodd" clip-rule="evenodd" d="M2.85547 49.8849C2.85547 47.2163 5.19438 45.0526 8.07956 45.0526H109.702C112.587 45.0526 114.926 47.2163 114.926 49.8849C114.926 52.5538 112.587 54.7172 109.702 54.7172H8.07956C5.19438 54.7172 2.85547 52.5538 2.85547 49.8849Z" fill="#151515"/>
</svg>
