<svg width="256" height="256" viewBox="0 0 256 256" fill="none" xmlns="http://www.w3.org/2000/svg">
<rect width="256" height="256" fill="white"/>
<path d="M68.381 142.349C68.0995 142.349 67.8563 142.246 67.6515 142.042C67.4467 141.837 67.3443 141.594 67.3443 141.312V116.509C67.3443 116.227 67.4467 115.984 67.6515 115.779C67.8563 115.574 68.0995 115.472 68.381 115.472H74.4475C74.9594 115.472 75.3306 115.587 75.561 115.818C75.7913 116.048 75.9449 116.227 76.0217 116.355L82.5105 126.991V116.509C82.5105 116.227 82.6129 115.984 82.8177 115.779C83.0225 115.574 83.2656 115.472 83.5472 115.472H90.4967C90.7783 115.472 91.0215 115.574 91.2263 115.779C91.431 115.984 91.5334 116.227 91.5334 116.509V141.312C91.5334 141.594 91.431 141.837 91.2263 142.042C91.0215 142.246 90.7783 142.349 90.4967 142.349H84.4303C83.9183 142.349 83.5472 142.234 83.3168 142.003C83.0864 141.747 82.9329 141.568 82.8561 141.466L76.3673 131.675V141.312C76.3673 141.594 76.2649 141.837 76.0601 142.042C75.8553 142.246 75.6121 142.349 75.3306 142.349H68.381ZM75.4458 117.622L75.2922 117.315L75.0234 117.469L74.8314 117.891L75.3306 118.006L75.4458 117.622ZM71.6062 117.507C71.4527 117.456 71.3375 117.469 71.2607 117.545C71.1839 117.597 71.0943 117.699 70.9919 117.853C70.8127 118.057 70.7871 118.262 70.9151 118.467C71.0687 118.672 71.2735 118.736 71.5294 118.659C71.683 118.633 71.7982 118.595 71.875 118.544C71.9518 118.467 71.9902 118.352 71.9902 118.198C71.9902 117.993 71.9646 117.853 71.9134 117.776C71.8878 117.673 71.7854 117.584 71.6062 117.507ZM86.8876 117.545L86.542 117.699L86.5804 118.121L86.9644 118.006L87.1563 117.776L86.8876 117.545ZM85.5821 118.39C85.5309 118.211 85.467 118.083 85.3902 118.006C85.339 117.929 85.2238 117.891 85.0446 117.891C84.8398 117.891 84.6862 117.929 84.5839 118.006C84.4815 118.057 84.4047 118.173 84.3535 118.352C84.2767 118.557 84.2639 118.71 84.3151 118.812C84.3663 118.915 84.4815 119.03 84.6607 119.158C84.8142 119.26 84.9422 119.299 85.0446 119.273C85.147 119.248 85.275 119.184 85.4286 119.081C85.6333 118.902 85.6845 118.672 85.5821 118.39ZM75.177 120.387C74.7163 120.31 74.3195 120.22 73.9867 120.118C73.654 120.016 73.3596 120.003 73.1037 120.08C72.8477 120.156 72.6173 120.4 72.4125 120.809C72.2078 121.219 72.1438 121.551 72.2206 121.807C72.3229 122.038 72.5149 122.255 72.7965 122.46C73.0781 122.665 73.3852 122.934 73.718 123.266C74.1275 123.676 74.4603 123.983 74.7163 124.188C74.9978 124.393 75.4074 124.367 75.9449 124.111C76.5592 123.778 76.956 123.471 77.1352 123.19C77.3399 122.882 77.3911 122.383 77.2887 121.692C77.1864 121.078 76.956 120.732 76.5976 120.655C76.2649 120.553 75.7913 120.463 75.177 120.387ZM70.1472 120.617C70.096 120.412 70.0192 120.284 69.9168 120.233C69.8145 120.156 69.6609 120.105 69.4561 120.08C69.2513 120.054 69.1105 120.092 69.0337 120.195C68.9826 120.272 68.9186 120.4 68.8418 120.579C68.7394 120.86 68.7906 121.091 68.9953 121.27C69.1489 121.423 69.2769 121.539 69.3793 121.615C69.4817 121.692 69.6353 121.679 69.84 121.577C70.0448 121.449 70.16 121.321 70.1856 121.193C70.2368 121.065 70.224 120.873 70.1472 120.617ZM86.8108 120.08H86.35L86.1581 120.348L86.3884 120.655L86.734 120.502L86.8108 120.08ZM87.5019 121.001L87.0412 121.078L86.926 121.539L87.3867 121.769L87.5403 121.385L87.5019 121.001ZM85.275 121.155C85.1214 121.078 85.0062 121.078 84.9294 121.155C84.8782 121.231 84.8014 121.321 84.699 121.423C84.5711 121.577 84.4559 121.692 84.3535 121.769C84.2767 121.82 84.2767 121.923 84.3535 122.076C84.4815 122.281 84.5839 122.422 84.6607 122.498C84.763 122.55 84.9294 122.562 85.1598 122.537C85.3902 122.486 85.5437 122.409 85.6205 122.306C85.6973 122.204 85.7485 122.038 85.7741 121.807C85.7997 121.603 85.7741 121.462 85.6973 121.385C85.6205 121.308 85.4798 121.231 85.275 121.155ZM90.5735 122.998C90.5223 122.742 90.4328 122.588 90.3048 122.537C90.1768 122.46 89.9848 122.409 89.7288 122.383C89.4729 122.358 89.2937 122.396 89.1913 122.498C89.1145 122.575 89.0249 122.729 88.9225 122.959C88.8457 123.138 88.8329 123.279 88.8841 123.382C88.9609 123.484 89.0761 123.599 89.2297 123.727C89.4089 123.881 89.5497 123.996 89.652 124.073C89.78 124.124 89.9336 124.098 90.1128 123.996C90.3432 123.842 90.4967 123.702 90.5735 123.574C90.6503 123.446 90.6503 123.254 90.5735 122.998ZM86.2733 124.649C86.0429 124.469 85.8125 124.457 85.5821 124.61C85.3262 124.789 85.2366 125.02 85.3134 125.301C85.339 125.455 85.403 125.544 85.5053 125.57C85.6077 125.57 85.7485 125.57 85.9277 125.57C86.1325 125.57 86.2733 125.468 86.35 125.263C86.4012 125.109 86.4268 124.994 86.4268 124.917C86.4524 124.841 86.4012 124.751 86.2733 124.649ZM72.5661 126.069C72.4381 125.967 72.3357 125.89 72.259 125.839C72.1822 125.788 72.067 125.813 71.9134 125.916C71.7598 125.992 71.683 126.082 71.683 126.184C71.683 126.287 71.6958 126.415 71.7214 126.568C71.7726 126.748 71.8238 126.876 71.875 126.952C71.9262 127.004 72.0414 127.042 72.2206 127.067C72.3741 127.067 72.4765 127.042 72.5277 126.991C72.6045 126.914 72.6685 126.799 72.7197 126.645C72.8221 126.415 72.7709 126.223 72.5661 126.069ZM77.7495 126.568C77.5703 126.312 77.4039 126.172 77.2503 126.146C77.0968 126.12 76.8664 126.146 76.5592 126.223C76.2521 126.3 76.0345 126.402 75.9065 126.53C75.8041 126.632 75.7529 126.837 75.7529 127.144C75.7529 127.426 75.8041 127.618 75.9065 127.72C76.0345 127.823 76.2393 127.925 76.5208 128.027C76.7512 128.104 76.9176 128.117 77.02 128.066C77.148 127.989 77.2887 127.848 77.4423 127.643C77.6215 127.439 77.7495 127.272 77.8263 127.144C77.9287 126.991 77.9031 126.799 77.7495 126.568ZM79.5925 126.645C79.3365 126.645 79.1701 126.696 79.0933 126.799C79.0165 126.901 78.9269 127.067 78.8246 127.298C78.7222 127.579 78.6454 127.81 78.5942 127.989C78.543 128.143 78.6326 128.309 78.863 128.488C79.0677 128.642 79.2213 128.655 79.3237 128.527C79.4517 128.373 79.6309 128.207 79.8612 128.027C80.0916 127.899 80.2964 127.81 80.4756 127.759C80.6547 127.682 80.7059 127.515 80.6291 127.259C80.5523 126.978 80.4372 126.812 80.2836 126.76C80.13 126.684 79.8996 126.645 79.5925 126.645ZM70.4544 127.605C70.4032 127.349 70.3648 127.144 70.3392 126.991C70.3136 126.837 70.16 126.748 69.8784 126.722C69.6225 126.696 69.4433 126.748 69.3409 126.876C69.2385 127.004 69.1361 127.195 69.0337 127.451C68.957 127.656 68.957 127.81 69.0337 127.912C69.1361 127.989 69.2769 128.091 69.4561 128.219C69.6097 128.347 69.7377 128.437 69.84 128.488C69.9424 128.539 70.0832 128.514 70.2624 128.411C70.4416 128.283 70.5312 128.168 70.5312 128.066C70.5568 127.963 70.5312 127.81 70.4544 127.605ZM87.3099 128.718C86.542 128.386 85.8893 128.194 85.3518 128.143C84.8398 128.091 84.3535 128.207 83.8927 128.488C83.4576 128.744 82.9585 129.192 82.3953 129.832C81.9346 130.344 81.7554 130.792 81.8578 131.176C81.9602 131.56 82.1906 131.957 82.5489 132.366C82.9329 132.75 83.304 133.236 83.6624 133.825C84.0463 134.465 84.3919 134.9 84.699 135.131C85.0318 135.361 85.5565 135.386 86.2733 135.207C87.1436 135.003 87.7963 134.798 88.2314 134.593C88.6922 134.388 88.9609 133.838 89.0377 132.942C89.0889 132.174 89.1145 131.534 89.1145 131.022C89.1145 130.51 88.9865 130.075 88.7306 129.717C88.5002 129.333 88.0266 129 87.3099 128.718ZM74.9082 128.949C74.7035 128.744 74.5371 128.603 74.4091 128.527C74.2811 128.424 74.0891 128.424 73.8332 128.527C73.5004 128.655 73.27 128.782 73.142 128.91C73.0397 129.038 73.0013 129.269 73.0269 129.602C73.0525 129.909 73.142 130.101 73.2956 130.178C73.4748 130.229 73.7052 130.293 73.9867 130.369C74.2939 130.446 74.5243 130.497 74.6779 130.523C74.857 130.523 75.0234 130.395 75.177 130.139C75.3562 129.883 75.3946 129.678 75.2922 129.525C75.2154 129.371 75.0874 129.179 74.9082 128.949ZM69.6865 129.986C69.6865 129.832 69.5713 129.717 69.3409 129.64C69.1361 129.589 68.9953 129.627 68.9186 129.755C68.8162 129.883 68.7394 129.986 68.6882 130.062C68.6626 130.139 68.6882 130.242 68.765 130.369C68.9442 130.574 69.1745 130.625 69.4561 130.523C69.6097 130.472 69.6865 130.408 69.6865 130.331C69.6865 130.229 69.6865 130.114 69.6865 129.986ZM73.7948 131.637C73.6668 131.457 73.5388 131.406 73.4108 131.483C73.3084 131.534 73.1548 131.598 72.9501 131.675C72.7965 131.726 72.6813 131.777 72.6045 131.829C72.5277 131.88 72.4893 131.982 72.4893 132.136C72.4893 132.289 72.5277 132.392 72.6045 132.443C72.6813 132.494 72.7965 132.545 72.9501 132.596C73.1292 132.673 73.2572 132.724 73.334 132.75C73.4364 132.75 73.5516 132.686 73.6796 132.558C73.8076 132.353 73.8844 132.2 73.91 132.097C73.9611 131.969 73.9228 131.816 73.7948 131.637ZM70.2624 131.982C70.0064 131.905 69.8145 131.854 69.6865 131.829C69.5585 131.777 69.4177 131.854 69.2641 132.059C69.1361 132.264 69.1105 132.43 69.1873 132.558C69.2641 132.66 69.3793 132.814 69.5329 133.019C69.6609 133.198 69.7761 133.339 69.8784 133.441C69.9808 133.518 70.1472 133.518 70.3776 133.441C70.608 133.339 70.7487 133.236 70.7999 133.134C70.8767 133.006 70.9151 132.814 70.9151 132.558C70.9151 132.353 70.8511 132.225 70.7231 132.174C70.6208 132.097 70.4672 132.033 70.2624 131.982ZM71.9902 134.823C71.939 134.67 71.8622 134.593 71.7598 134.593C71.6574 134.567 71.5166 134.555 71.3375 134.555C71.1583 134.555 71.0047 134.555 70.8767 134.555C70.7743 134.555 70.6975 134.644 70.6463 134.823C70.5952 135.003 70.6208 135.118 70.7231 135.169C70.8255 135.22 70.9535 135.297 71.1071 135.399C71.2095 135.476 71.2991 135.54 71.3759 135.591C71.4527 135.617 71.5422 135.578 71.6446 135.476C71.7982 135.374 71.9006 135.284 71.9518 135.207C72.0286 135.131 72.0414 135.003 71.9902 134.823ZM69.9168 135.706C69.8912 135.502 69.8272 135.386 69.7249 135.361C69.6225 135.31 69.4689 135.259 69.2641 135.207C69.0849 135.182 68.9314 135.169 68.8034 135.169C68.701 135.169 68.6114 135.246 68.5346 135.399C68.3554 135.706 68.381 136.001 68.6114 136.282C68.765 136.436 68.893 136.538 68.9953 136.59C69.0977 136.615 69.2513 136.577 69.4561 136.474C69.7889 136.321 69.9424 136.065 69.9168 135.706ZM74.0251 136.09C73.7436 136.039 73.5388 136.116 73.4108 136.321C73.3084 136.5 73.2444 136.641 73.2188 136.743C73.1932 136.846 73.2444 136.973 73.3724 137.127C73.5004 137.255 73.6156 137.319 73.718 137.319C73.8204 137.293 73.9611 137.242 74.1403 137.165C74.3195 137.089 74.4347 137.012 74.4859 136.935C74.5627 136.858 74.5883 136.73 74.5627 136.551C74.5371 136.372 74.4859 136.27 74.4091 136.244C74.3323 136.193 74.2043 136.142 74.0251 136.09ZM82.9329 136.858L82.5105 137.089L82.5489 137.511L82.9713 137.626L83.2016 137.242L82.9329 136.858ZM69.4561 138.087L69.1105 137.895L68.8802 138.202L69.0337 138.433H69.3409L69.4561 138.087ZM70.5696 138.778C70.4416 138.65 70.3008 138.624 70.1472 138.701C70.0192 138.778 69.9168 138.842 69.84 138.893C69.7889 138.919 69.7761 139.008 69.8017 139.162C69.8272 139.29 69.8784 139.354 69.9552 139.354C70.0576 139.354 70.1728 139.367 70.3008 139.392C70.4288 139.418 70.5312 139.431 70.608 139.431C70.6847 139.431 70.7487 139.367 70.7999 139.239C70.8511 139.136 70.8511 139.06 70.7999 139.008C70.7487 138.957 70.6719 138.88 70.5696 138.778ZM73.8716 139.085C73.6924 138.829 73.5132 138.701 73.334 138.701C73.1804 138.676 72.9501 138.714 72.6429 138.816C72.3613 138.919 72.1694 139.034 72.067 139.162C71.9902 139.29 71.9518 139.495 71.9518 139.776C71.9518 140.084 71.9902 140.314 72.067 140.467C72.1438 140.595 72.3229 140.711 72.6045 140.813C72.9629 140.915 73.2444 140.992 73.4492 141.043C73.654 141.069 73.8716 140.928 74.1019 140.621C74.3323 140.314 74.4091 140.058 74.3323 139.853C74.2555 139.648 74.1019 139.392 73.8716 139.085ZM84.5839 139.316L84.1999 139.2L83.8927 139.469L84.1615 139.815L84.5071 139.7L84.5839 139.316ZM88.9225 140.467L88.6538 140.199L88.3466 140.429L88.4234 140.775L88.769 140.813L88.9225 140.467ZM96.8026 142.349C96.521 142.349 96.2778 142.246 96.0731 142.042C95.8683 141.837 95.7659 141.594 95.7659 141.312V116.509C95.7659 116.227 95.8683 115.984 96.0731 115.779C96.2778 115.574 96.521 115.472 96.8026 115.472H116.499C116.781 115.472 117.024 115.574 117.229 115.779C117.434 115.984 117.536 116.227 117.536 116.509V121.923C117.536 122.204 117.434 122.447 117.229 122.652C117.024 122.857 116.781 122.959 116.499 122.959H104.981V125.378H115.655C115.936 125.378 116.179 125.48 116.384 125.685C116.589 125.89 116.691 126.133 116.691 126.415V131.406C116.691 131.688 116.589 131.931 116.384 132.136C116.179 132.34 115.936 132.443 115.655 132.443H104.981V134.862H116.807C117.088 134.862 117.331 134.964 117.536 135.169C117.741 135.374 117.843 135.617 117.843 135.898V141.312C117.843 141.594 117.741 141.837 117.536 142.042C117.331 142.246 117.088 142.349 116.807 142.349H96.8026ZM109.703 117.123C109.601 116.918 109.473 116.842 109.319 116.893C109.191 116.944 109.025 116.982 108.82 117.008C108.59 117.034 108.398 117.034 108.244 117.008C108.091 116.982 108.001 117.085 107.976 117.315C107.924 117.545 107.95 117.699 108.052 117.776C108.155 117.853 108.321 117.955 108.552 118.083C108.756 118.185 108.91 118.275 109.012 118.352C109.14 118.403 109.294 118.352 109.473 118.198C109.678 118.019 109.793 117.865 109.819 117.737C109.844 117.584 109.806 117.379 109.703 117.123ZM98.8375 117.353C98.6584 117.174 98.492 117.072 98.3384 117.046C98.2104 116.995 98.0312 117.021 97.8009 117.123C97.4937 117.277 97.2505 117.405 97.0713 117.507C96.8922 117.584 96.8154 117.789 96.841 118.121C96.8922 118.454 97.0202 118.633 97.2249 118.659C97.4297 118.685 97.6985 118.736 98.0312 118.812C98.3128 118.864 98.5304 118.889 98.684 118.889C98.8631 118.889 99.0167 118.761 99.1447 118.505C99.2983 118.249 99.3367 118.057 99.2599 117.929C99.1831 117.776 99.0423 117.584 98.8375 117.353ZM114.042 117.507C113.863 117.328 113.697 117.264 113.543 117.315C113.415 117.341 113.236 117.417 113.005 117.545C112.749 117.673 112.545 117.776 112.391 117.853C112.263 117.904 112.212 118.07 112.238 118.352C112.289 118.633 112.391 118.787 112.545 118.812C112.698 118.838 112.916 118.876 113.197 118.928C113.453 118.979 113.658 119.017 113.812 119.043C113.991 119.068 114.144 118.953 114.272 118.697C114.4 118.441 114.439 118.237 114.388 118.083C114.362 117.929 114.247 117.737 114.042 117.507ZM107.246 117.929C107.246 117.75 107.221 117.622 107.169 117.545C107.144 117.469 107.054 117.417 106.901 117.392C106.721 117.341 106.581 117.328 106.478 117.353C106.401 117.353 106.312 117.417 106.209 117.545C106.056 117.801 106.069 118.057 106.248 118.313C106.35 118.441 106.44 118.505 106.517 118.505C106.619 118.48 106.747 118.441 106.901 118.39C107.131 118.313 107.246 118.16 107.246 117.929ZM104.942 117.891L104.712 117.699L104.52 117.891V118.198L104.866 118.237L104.942 117.891ZM115.693 118.275L115.348 118.121L115.04 118.237L115.117 118.621H115.501L115.693 118.275ZM103.215 118.659C102.907 118.557 102.69 118.569 102.562 118.697C102.459 118.825 102.319 119.017 102.14 119.273C101.96 119.529 101.832 119.734 101.756 119.888C101.679 120.016 101.73 120.208 101.909 120.463C102.114 120.719 102.293 120.886 102.447 120.963C102.626 121.014 102.869 120.988 103.176 120.886C103.483 120.783 103.65 120.655 103.675 120.502C103.701 120.323 103.714 120.08 103.714 119.772C103.714 119.465 103.701 119.222 103.675 119.043C103.65 118.864 103.496 118.736 103.215 118.659ZM100.143 119.158L99.9126 119.35L99.9894 119.619L100.335 119.734L100.412 119.35L100.143 119.158ZM108.744 119.926C108.641 119.849 108.552 119.836 108.475 119.888C108.398 119.939 108.308 120.016 108.206 120.118C108.104 120.195 108.014 120.259 107.937 120.31C107.86 120.336 107.848 120.412 107.899 120.54C107.95 120.694 108.001 120.809 108.052 120.886C108.104 120.963 108.219 121.001 108.398 121.001C108.654 121.001 108.833 120.86 108.936 120.579C109.038 120.323 108.974 120.105 108.744 119.926ZM113.351 120.809C113.223 120.758 113.133 120.771 113.082 120.847C113.057 120.924 112.993 121.014 112.89 121.116C112.813 121.219 112.749 121.308 112.698 121.385C112.673 121.436 112.698 121.513 112.775 121.615C112.877 121.743 113.044 121.782 113.274 121.731C113.402 121.679 113.505 121.641 113.581 121.615C113.684 121.59 113.735 121.513 113.735 121.385C113.761 121.103 113.633 120.911 113.351 120.809ZM99.2983 122.191C99.1191 122.063 98.9783 121.961 98.8759 121.884C98.7991 121.782 98.6712 121.795 98.492 121.923C98.2872 122.051 98.1592 122.178 98.108 122.306C98.0568 122.434 98.0696 122.614 98.1464 122.844C98.1976 123.074 98.2744 123.215 98.3768 123.266C98.5048 123.292 98.684 123.305 98.9143 123.305C99.1703 123.305 99.3623 123.305 99.4903 123.305C99.6182 123.279 99.7334 123.151 99.8358 122.921C99.9126 122.716 99.887 122.575 99.759 122.498C99.631 122.422 99.4775 122.319 99.2983 122.191ZM101.64 122.498L101.295 122.69L101.256 122.921L101.487 123.19L101.679 122.882L101.64 122.498ZM98.8759 124.956C98.5944 124.879 98.3896 124.892 98.2616 124.994C98.1336 125.071 97.98 125.225 97.8009 125.455C97.6473 125.685 97.5577 125.877 97.5321 126.031C97.5321 126.159 97.6217 126.325 97.8009 126.53C97.9544 126.76 98.0952 126.927 98.2232 127.029C98.3768 127.106 98.5944 127.106 98.8759 127.029C99.1319 126.927 99.2599 126.799 99.2599 126.645C99.2855 126.492 99.2983 126.274 99.2983 125.992C99.2983 125.711 99.2855 125.493 99.2599 125.34C99.2599 125.186 99.1319 125.058 98.8759 124.956ZM104.981 127.528C104.648 127.349 104.379 127.272 104.174 127.298C103.995 127.323 103.765 127.451 103.483 127.682C103.202 127.963 103.023 128.207 102.946 128.411C102.869 128.591 102.907 128.859 103.061 129.218C103.24 129.627 103.407 129.934 103.56 130.139C103.739 130.344 104.059 130.421 104.52 130.369C104.981 130.318 105.262 130.19 105.365 129.986C105.493 129.755 105.608 129.41 105.71 128.949C105.787 128.565 105.761 128.283 105.634 128.104C105.531 127.925 105.314 127.733 104.981 127.528ZM108.475 127.643C108.321 127.464 108.116 127.426 107.86 127.528C107.707 127.579 107.604 127.643 107.553 127.72C107.502 127.771 107.476 127.874 107.476 128.027C107.502 128.309 107.656 128.488 107.937 128.565C108.065 128.591 108.155 128.578 108.206 128.527C108.257 128.45 108.321 128.347 108.398 128.219C108.475 128.091 108.526 127.989 108.552 127.912C108.577 127.835 108.552 127.746 108.475 127.643ZM100.066 128.757C99.9382 128.655 99.823 128.591 99.7206 128.565C99.6438 128.539 99.5414 128.578 99.4135 128.68C99.2343 128.782 99.1191 128.885 99.0679 128.987C99.0167 129.064 99.0167 129.205 99.0679 129.41C99.1191 129.589 99.1959 129.717 99.2983 129.794C99.4007 129.845 99.5542 129.87 99.759 129.87C99.9382 129.87 100.066 129.832 100.143 129.755C100.22 129.678 100.284 129.55 100.335 129.371C100.386 129.218 100.386 129.102 100.335 129.026C100.309 128.949 100.22 128.859 100.066 128.757ZM109.78 128.91L109.435 128.68L109.089 128.834L109.204 129.256H109.588L109.78 128.91ZM97.5321 128.91L97.033 128.987L97.1097 129.525L97.5705 129.602L97.916 129.256L97.5321 128.91ZM108.129 130.024C107.976 129.922 107.86 129.832 107.784 129.755C107.732 129.653 107.63 129.653 107.476 129.755C107.169 129.96 107.067 130.229 107.169 130.561C107.195 130.741 107.259 130.83 107.361 130.83C107.489 130.83 107.643 130.83 107.822 130.83C108.001 130.83 108.129 130.83 108.206 130.83C108.308 130.83 108.385 130.753 108.436 130.6C108.488 130.446 108.475 130.344 108.398 130.293C108.347 130.216 108.257 130.126 108.129 130.024ZM100.22 130.677L100.028 130.792L99.951 131.099L100.297 131.176L100.45 130.907L100.22 130.677ZM101.448 132.136C101.269 131.982 101.128 131.841 101.026 131.713C100.949 131.585 100.808 131.585 100.604 131.713C100.399 131.816 100.322 131.944 100.373 132.097C100.45 132.225 100.514 132.404 100.565 132.635C100.617 132.814 100.655 132.955 100.681 133.057C100.732 133.16 100.847 133.224 101.026 133.249C101.256 133.275 101.423 133.262 101.525 133.211C101.628 133.16 101.717 133.032 101.794 132.827C101.871 132.648 101.858 132.52 101.756 132.443C101.679 132.366 101.576 132.264 101.448 132.136ZM98.5304 132.136C98.3256 132.11 98.1592 132.097 98.0312 132.097C97.9288 132.097 97.8393 132.2 97.7625 132.404C97.6089 132.737 97.6601 133.032 97.916 133.288C98.0952 133.441 98.2488 133.544 98.3768 133.595C98.5048 133.62 98.6712 133.569 98.8759 133.441C99.0551 133.339 99.1191 133.224 99.0679 133.096C99.0423 132.968 99.0167 132.801 98.9911 132.596C98.9399 132.315 98.7863 132.161 98.5304 132.136ZM98.5688 135.015C98.5688 134.862 98.5688 134.734 98.5688 134.631C98.5688 134.503 98.4792 134.427 98.3 134.401C98.1464 134.35 98.044 134.375 97.9928 134.478C97.9672 134.58 97.916 134.708 97.8393 134.862C97.7369 135.015 97.7369 135.156 97.8393 135.284C97.9416 135.386 98.0184 135.463 98.0696 135.514C98.1208 135.566 98.2104 135.566 98.3384 135.514C98.5176 135.438 98.5944 135.271 98.5688 135.015ZM101.026 136.666C101.026 136.41 100.988 136.231 100.911 136.129C100.86 136.001 100.719 135.898 100.489 135.822C100.156 135.719 99.8998 135.655 99.7206 135.63C99.5414 135.604 99.3623 135.732 99.1831 136.014C99.0039 136.27 98.9783 136.474 99.1063 136.628C99.2599 136.756 99.4263 136.935 99.6054 137.165C99.7846 137.37 99.9254 137.524 100.028 137.626C100.13 137.729 100.309 137.729 100.565 137.626C100.821 137.549 100.962 137.447 100.988 137.319C101.013 137.165 101.026 136.948 101.026 136.666ZM111.162 136.167C110.804 136.039 110.548 136.052 110.395 136.206C110.241 136.359 110.062 136.59 109.857 136.897C109.652 137.204 109.499 137.46 109.396 137.665C109.319 137.844 109.383 138.074 109.588 138.356C109.819 138.663 110.036 138.791 110.241 138.74C110.446 138.663 110.714 138.573 111.047 138.471C111.329 138.369 111.508 138.253 111.585 138.125C111.662 137.997 111.7 137.793 111.7 137.511C111.7 137.127 111.687 136.833 111.662 136.628C111.662 136.423 111.495 136.27 111.162 136.167ZM103.33 137.434L102.792 137.281L102.715 137.818L103.023 138.049L103.291 137.857L103.33 137.434ZM116.077 138.394C116.026 138.215 115.975 138.074 115.923 137.972C115.872 137.869 115.757 137.818 115.578 137.818C115.348 137.818 115.168 137.844 115.04 137.895C114.938 137.946 114.848 138.074 114.772 138.279C114.695 138.458 114.695 138.599 114.772 138.701C114.874 138.778 115.015 138.88 115.194 139.008C115.373 139.162 115.514 139.303 115.616 139.431C115.744 139.533 115.911 139.52 116.115 139.392C116.32 139.239 116.384 139.098 116.307 138.97C116.231 138.816 116.154 138.624 116.077 138.394ZM105.442 138.202L105.058 138.164L105.019 138.548L105.326 138.74L105.518 138.471L105.442 138.202ZM107.131 140.621H106.824L106.785 140.89L107.054 141.043L107.246 140.851L107.131 140.621ZM120.108 142.349C119.878 142.349 119.673 142.272 119.494 142.118C119.34 141.939 119.264 141.735 119.264 141.504C119.264 141.453 119.264 141.402 119.264 141.351C119.289 141.274 119.328 141.184 119.379 141.082L127.442 128.603L120.185 116.739C120.108 116.586 120.07 116.445 120.07 116.317C120.07 116.086 120.147 115.894 120.3 115.741C120.479 115.562 120.684 115.472 120.915 115.472H129.246C129.758 115.472 130.129 115.6 130.36 115.856C130.616 116.112 130.782 116.304 130.859 116.432L133.547 121.116L136.465 116.432C136.541 116.304 136.708 116.112 136.964 115.856C137.22 115.6 137.591 115.472 138.077 115.472H146.025C146.255 115.472 146.447 115.562 146.601 115.741C146.78 115.894 146.87 116.086 146.87 116.317C146.87 116.47 146.831 116.611 146.755 116.739L139.344 128.488L147.523 141.082C147.574 141.184 147.599 141.274 147.599 141.351C147.625 141.402 147.638 141.453 147.638 141.504C147.638 141.735 147.548 141.939 147.369 142.118C147.215 142.272 147.023 142.349 146.793 142.349H138.154C137.668 142.349 137.297 142.234 137.041 142.003C136.785 141.747 136.631 141.568 136.58 141.466L133.239 136.321L130.053 141.466C130.001 141.568 129.848 141.747 129.592 142.003C129.362 142.234 128.99 142.349 128.478 142.349H120.108ZM124.524 117.2L124.101 116.97L123.871 117.43L124.217 117.814L124.485 117.507L124.524 117.2ZM143.184 117.2L142.723 117.123L142.838 117.545L143.145 117.891L143.453 117.469L143.184 117.2ZM126.52 117.853C126.469 117.648 126.418 117.494 126.367 117.392C126.316 117.289 126.188 117.238 125.983 117.238C125.778 117.238 125.663 117.289 125.637 117.392C125.612 117.494 125.56 117.635 125.484 117.814C125.381 118.07 125.42 118.275 125.599 118.429C125.752 118.557 125.88 118.659 125.983 118.736C126.085 118.812 126.213 118.8 126.367 118.697C126.546 118.569 126.635 118.454 126.635 118.352C126.635 118.224 126.597 118.057 126.52 117.853ZM128.939 119.734C128.76 119.529 128.606 119.388 128.478 119.312C128.35 119.209 128.158 119.209 127.903 119.312C127.647 119.414 127.493 119.542 127.442 119.696C127.416 119.849 127.416 120.067 127.442 120.348C127.467 120.681 127.467 120.963 127.442 121.193C127.442 121.423 127.608 121.577 127.941 121.654C128.325 121.756 128.606 121.756 128.786 121.654C128.99 121.526 129.195 121.295 129.4 120.963C129.579 120.681 129.592 120.476 129.438 120.348C129.31 120.195 129.144 119.99 128.939 119.734ZM141.84 119.849L141.456 119.811L141.341 120.08L141.456 120.463L141.878 120.272L141.84 119.849ZM140.535 121.923C140.407 121.462 140.227 121.18 139.997 121.078C139.767 120.95 139.396 120.873 138.884 120.847C138.448 120.822 138.154 120.899 138 121.078C137.847 121.257 137.693 121.551 137.54 121.961C137.386 122.37 137.309 122.69 137.309 122.921C137.335 123.151 137.514 123.407 137.847 123.689C138.231 123.996 138.551 124.175 138.807 124.226C139.063 124.252 139.396 124.124 139.805 123.842C140.24 123.561 140.509 123.305 140.611 123.074C140.714 122.818 140.688 122.434 140.535 121.923ZM126.751 122.652C126.674 122.473 126.61 122.332 126.559 122.23C126.533 122.127 126.431 122.089 126.252 122.114C125.893 122.166 125.676 122.358 125.599 122.69C125.573 122.895 125.599 123.036 125.676 123.113C125.778 123.164 125.906 123.228 126.06 123.305C126.188 123.382 126.277 123.407 126.328 123.382C126.405 123.33 126.507 123.254 126.635 123.151C126.789 122.998 126.827 122.831 126.751 122.652ZM132.164 123.42C132.139 123.266 132.036 123.164 131.857 123.113C131.704 123.087 131.576 123.062 131.473 123.036C131.396 122.985 131.32 123.023 131.243 123.151C131.166 123.305 131.141 123.42 131.166 123.497C131.217 123.574 131.294 123.676 131.396 123.804C131.576 123.983 131.768 124.021 131.972 123.919C132.1 123.868 132.164 123.804 132.164 123.727C132.164 123.65 132.164 123.548 132.164 123.42ZM136.196 125.493C135.684 125.468 135.274 125.442 134.967 125.416C134.66 125.365 134.417 125.57 134.238 126.031C134.033 126.62 133.943 127.08 133.969 127.413C133.995 127.72 134.251 128.066 134.737 128.45C135.146 128.808 135.479 128.859 135.735 128.603C135.991 128.347 136.337 128.079 136.772 127.797C137.079 127.592 137.271 127.4 137.348 127.221C137.425 127.042 137.412 126.786 137.309 126.453C137.207 126.095 137.079 125.852 136.925 125.724C136.797 125.596 136.554 125.519 136.196 125.493ZM130.245 125.839L129.937 125.57L129.669 125.877L129.745 126.3L130.245 126.261V125.839ZM130.859 128.027C130.577 127.899 130.36 127.874 130.206 127.951C130.078 128.002 129.912 128.143 129.707 128.373C129.502 128.578 129.4 128.757 129.4 128.91C129.4 129.038 129.464 129.23 129.592 129.486C129.745 129.742 129.873 129.934 129.976 130.062C130.104 130.19 130.321 130.216 130.629 130.139C130.91 130.088 131.051 129.986 131.051 129.832C131.051 129.653 131.077 129.41 131.128 129.102C131.153 128.821 131.179 128.603 131.205 128.45C131.23 128.271 131.115 128.13 130.859 128.027ZM138.692 131.79C138.077 131.201 137.54 130.945 137.079 131.022C136.644 131.073 136.055 131.304 135.313 131.713C134.929 131.918 134.698 132.136 134.622 132.366C134.571 132.596 134.596 132.878 134.698 133.211C134.801 133.518 134.89 133.876 134.967 134.286C135.044 134.798 135.159 135.169 135.313 135.399C135.466 135.63 135.786 135.783 136.273 135.86C136.81 135.937 137.207 135.911 137.463 135.783C137.745 135.655 138 135.335 138.231 134.823C138.461 134.363 138.679 133.979 138.884 133.671C139.114 133.339 139.229 133.032 139.229 132.75C139.255 132.468 139.076 132.148 138.692 131.79ZM130.513 135.169C130.334 134.58 130.181 134.119 130.053 133.787C129.95 133.428 129.592 133.249 128.978 133.249C128.312 133.249 127.864 133.39 127.634 133.671C127.429 133.953 127.224 134.401 127.019 135.015C126.815 135.63 126.725 136.116 126.751 136.474C126.802 136.807 127.096 137.165 127.634 137.549C128.197 137.959 128.67 138.202 129.054 138.279C129.438 138.356 129.912 138.177 130.475 137.741C131.013 137.357 131.205 136.986 131.051 136.628C130.897 136.27 130.718 135.783 130.513 135.169ZM141.571 137.281C141.443 137.255 141.341 137.229 141.264 137.204C141.187 137.178 141.111 137.229 141.034 137.357C140.88 137.613 140.893 137.831 141.072 138.01C141.175 138.113 141.264 138.151 141.341 138.125C141.418 138.074 141.52 138.023 141.648 137.972C141.827 137.895 141.904 137.767 141.878 137.588C141.853 137.434 141.75 137.332 141.571 137.281ZM124.869 138.317C124.792 137.985 124.703 137.729 124.601 137.549C124.498 137.37 124.268 137.268 123.909 137.242C123.525 137.217 123.231 137.255 123.026 137.357C122.847 137.46 122.694 137.703 122.566 138.087C122.412 138.394 122.412 138.624 122.566 138.778C122.719 138.932 122.924 139.124 123.18 139.354C123.41 139.533 123.589 139.623 123.717 139.623C123.871 139.597 124.076 139.508 124.332 139.354C124.562 139.2 124.728 139.06 124.831 138.932C124.933 138.804 124.946 138.599 124.869 138.317ZM137.309 139.008C137.258 138.855 137.22 138.74 137.194 138.663C137.169 138.561 137.066 138.509 136.887 138.509C136.708 138.509 136.593 138.561 136.541 138.663C136.49 138.74 136.439 138.855 136.388 139.008C136.362 139.188 136.349 139.328 136.349 139.431C136.375 139.508 136.452 139.584 136.58 139.661C136.708 139.764 136.797 139.776 136.849 139.7C136.925 139.623 137.028 139.533 137.156 139.431C137.309 139.303 137.361 139.162 137.309 139.008ZM143.875 140.007C143.875 139.853 143.76 139.738 143.529 139.661C143.35 139.636 143.209 139.597 143.107 139.546C143.03 139.495 142.953 139.546 142.877 139.7C142.774 139.828 142.749 139.93 142.8 140.007C142.877 140.084 142.966 140.199 143.069 140.352C143.145 140.455 143.222 140.531 143.299 140.583C143.376 140.634 143.478 140.634 143.606 140.583C143.76 140.531 143.837 140.467 143.837 140.391C143.862 140.288 143.875 140.16 143.875 140.007ZM139.536 139.776C139.357 139.725 139.229 139.764 139.152 139.892C139.101 139.994 139.063 140.084 139.037 140.16C139.012 140.212 139.037 140.288 139.114 140.391C139.191 140.493 139.268 140.57 139.344 140.621C139.421 140.672 139.524 140.672 139.651 140.621C139.933 140.519 140.061 140.327 140.035 140.045C140.035 139.917 139.984 139.853 139.882 139.853C139.779 139.853 139.664 139.828 139.536 139.776ZM150.796 142.349C150.514 142.349 150.271 142.246 150.067 142.042C149.862 141.837 149.759 141.594 149.759 141.312V116.509C149.759 116.227 149.862 115.984 150.067 115.779C150.271 115.574 150.514 115.472 150.796 115.472H158.629C158.91 115.472 159.153 115.574 159.358 115.779C159.563 115.984 159.665 116.227 159.665 116.509V141.312C159.665 141.594 159.563 141.837 159.358 142.042C159.153 142.246 158.91 142.349 158.629 142.349H150.796ZM154.751 116.509C154.495 116.483 154.303 116.509 154.175 116.586C154.072 116.662 153.97 116.816 153.868 117.046C153.765 117.277 153.74 117.443 153.791 117.545C153.868 117.648 154.008 117.776 154.213 117.929C154.418 118.109 154.572 118.262 154.674 118.39C154.802 118.493 154.981 118.467 155.211 118.313C155.467 118.16 155.583 118.006 155.557 117.853C155.531 117.699 155.48 117.494 155.403 117.238C155.352 116.982 155.288 116.803 155.211 116.701C155.135 116.598 154.981 116.534 154.751 116.509ZM152.063 117.085L151.718 117.123L151.794 117.507H152.14L152.063 117.085ZM153.292 118.966L152.869 118.851L152.793 119.388L153.253 119.657L153.599 119.273L153.292 118.966ZM155.711 119.504C155.659 119.401 155.621 119.324 155.595 119.273C155.57 119.196 155.493 119.158 155.365 119.158C155.135 119.184 154.994 119.324 154.943 119.58C154.917 119.683 154.93 119.76 154.981 119.811C155.058 119.836 155.148 119.875 155.25 119.926C155.352 119.977 155.429 120.028 155.48 120.08C155.557 120.105 155.634 120.08 155.711 120.003C155.813 119.926 155.851 119.862 155.826 119.811C155.8 119.734 155.762 119.632 155.711 119.504ZM151.986 120.003L151.794 119.772L151.41 119.849L151.602 120.156L151.909 120.387L151.986 120.003ZM158.437 120.771L158.053 120.847L158.168 121.27L158.59 121.385L158.744 121.001L158.437 120.771ZM152.063 121.769L151.833 121.615L151.487 121.731L151.602 122.153H152.063V121.769ZM155.403 122.46C155.224 122.306 155.02 122.306 154.789 122.46C154.661 122.537 154.559 122.614 154.482 122.69C154.431 122.767 154.418 122.882 154.444 123.036C154.546 123.343 154.738 123.51 155.02 123.535C155.199 123.535 155.314 123.51 155.365 123.458C155.416 123.382 155.48 123.254 155.557 123.074C155.659 122.844 155.608 122.639 155.403 122.46ZM152.831 122.729L152.524 122.46L152.332 122.806V123.113H152.716L152.831 122.729ZM158.245 123.919L157.784 124.073L157.976 124.457L158.283 124.533L158.552 124.265L158.245 123.919ZM151.718 124.956L151.257 124.649L150.873 124.956L151.065 125.378L151.487 125.416L151.718 124.956ZM157.093 125.378C157.067 125.148 156.99 125.007 156.862 124.956C156.76 124.905 156.594 124.853 156.363 124.802C156.184 124.777 156.056 124.802 155.979 124.879C155.928 124.956 155.864 125.071 155.787 125.225C155.711 125.378 155.659 125.506 155.634 125.608C155.634 125.685 155.685 125.788 155.787 125.916C155.941 126.069 156.056 126.172 156.133 126.223C156.235 126.274 156.376 126.248 156.555 126.146C156.76 126.044 156.901 125.954 156.978 125.877C157.08 125.775 157.118 125.608 157.093 125.378ZM154.021 126.069C153.637 125.967 153.343 125.967 153.138 126.069C152.959 126.172 152.754 126.389 152.524 126.722C152.345 127.029 152.293 127.272 152.37 127.451C152.473 127.631 152.639 127.848 152.869 128.104C153.1 128.386 153.292 128.578 153.445 128.68C153.599 128.782 153.829 128.77 154.136 128.642C154.546 128.463 154.853 128.309 155.058 128.181C155.288 128.053 155.391 127.771 155.365 127.336C155.339 126.876 155.211 126.581 154.981 126.453C154.776 126.3 154.456 126.172 154.021 126.069ZM157.477 126.991L157.208 127.029L157.016 127.336L157.4 127.49L157.746 127.259L157.477 126.991ZM152.293 130.446C152.063 130.421 151.935 130.485 151.909 130.638C151.884 130.766 151.833 130.933 151.756 131.137C151.679 131.342 151.602 131.509 151.526 131.637C151.474 131.739 151.526 131.854 151.679 131.982C151.833 132.11 151.961 132.136 152.063 132.059C152.165 131.957 152.306 131.854 152.485 131.752C152.665 131.649 152.818 131.573 152.946 131.521C153.074 131.47 153.113 131.329 153.061 131.099C153.01 130.869 152.933 130.715 152.831 130.638C152.729 130.536 152.549 130.472 152.293 130.446ZM154.866 130.753L154.482 130.83L154.674 131.214L155.096 131.329L155.211 130.907L154.866 130.753ZM158.437 132.712L158.168 132.52L158.053 132.827L158.206 133.172L158.475 132.942L158.437 132.712ZM155.02 133.134C154.84 132.955 154.623 132.929 154.367 133.057C154.111 133.185 154.008 133.39 154.06 133.671C154.111 133.953 154.277 134.119 154.559 134.171C154.764 134.196 154.917 134.209 155.02 134.209C155.122 134.183 155.224 134.081 155.327 133.902C155.403 133.723 155.403 133.595 155.327 133.518C155.275 133.416 155.173 133.288 155.02 133.134ZM157.861 134.478C157.528 134.247 157.208 134.247 156.901 134.478C156.722 134.606 156.619 134.734 156.594 134.862C156.594 134.964 156.632 135.118 156.709 135.322C156.786 135.578 156.85 135.783 156.901 135.937C156.952 136.065 157.106 136.129 157.362 136.129C157.643 136.129 157.848 136.09 157.976 136.014C158.13 135.937 158.258 135.758 158.36 135.476C158.437 135.22 158.424 135.041 158.322 134.939C158.219 134.811 158.066 134.657 157.861 134.478ZM152.562 134.555C152.357 134.478 152.191 134.465 152.063 134.516C151.961 134.542 151.846 134.644 151.718 134.823C151.615 135.003 151.59 135.143 151.641 135.246C151.692 135.322 151.782 135.438 151.909 135.591C152.063 135.77 152.178 135.924 152.255 136.052C152.332 136.154 152.473 136.154 152.677 136.052C152.933 135.975 153.087 135.886 153.138 135.783C153.215 135.655 153.253 135.463 153.253 135.207C153.228 134.951 153.164 134.798 153.061 134.747C152.959 134.67 152.793 134.606 152.562 134.555ZM155.173 136.513L154.904 136.398L154.712 136.705L154.943 137.012L155.327 136.82L155.173 136.513ZM153.868 137.242L153.56 137.012L153.215 137.242L153.33 137.703L153.714 137.588L153.868 137.242ZM152.255 138.049C152.255 137.818 152.229 137.652 152.178 137.549C152.127 137.421 151.986 137.319 151.756 137.242C151.577 137.191 151.462 137.229 151.41 137.357C151.359 137.46 151.27 137.601 151.142 137.78C151.014 137.959 151.014 138.138 151.142 138.317C151.27 138.471 151.359 138.586 151.41 138.663C151.462 138.74 151.577 138.752 151.756 138.701C151.961 138.624 152.089 138.548 152.14 138.471C152.217 138.394 152.255 138.253 152.255 138.049ZM157.477 137.357C157.323 137.332 157.208 137.421 157.131 137.626C157.054 137.805 157.067 137.946 157.17 138.049C157.272 138.151 157.413 138.151 157.592 138.049C157.694 137.997 157.771 137.959 157.822 137.933C157.899 137.882 157.925 137.805 157.899 137.703C157.848 137.498 157.707 137.383 157.477 137.357ZM154.904 138.624L154.674 138.317L154.29 138.548L154.405 138.97L154.789 138.932L154.904 138.624ZM155.211 140.467C155.186 140.288 155.148 140.16 155.096 140.084C155.071 139.981 154.968 139.904 154.789 139.853C154.584 139.828 154.431 139.828 154.328 139.853C154.226 139.879 154.124 139.981 154.021 140.16C153.919 140.339 153.919 140.467 154.021 140.544C154.124 140.595 154.239 140.685 154.367 140.813C154.444 140.915 154.508 140.992 154.559 141.043C154.636 141.095 154.738 141.095 154.866 141.043C155.122 140.915 155.237 140.723 155.211 140.467ZM158.475 140.237C158.398 140.058 158.296 139.981 158.168 140.007C158.04 140.032 157.874 140.058 157.669 140.084C157.49 140.109 157.349 140.135 157.246 140.16C157.17 140.186 157.106 140.288 157.054 140.467C157.029 140.698 157.016 140.877 157.016 141.005C157.016 141.133 157.118 141.248 157.323 141.351C157.502 141.453 157.63 141.453 157.707 141.351C157.784 141.223 157.899 141.082 158.053 140.928C158.206 140.775 158.334 140.672 158.437 140.621C158.539 140.544 158.552 140.416 158.475 140.237ZM162.628 142.349C162.398 142.349 162.193 142.272 162.014 142.118C161.86 141.939 161.783 141.735 161.783 141.504C161.783 141.402 161.796 141.312 161.822 141.235L170.384 116.739C170.461 116.458 170.64 116.176 170.921 115.894C171.203 115.613 171.6 115.472 172.112 115.472H180.444C180.955 115.472 181.352 115.613 181.634 115.894C181.915 116.176 182.095 116.458 182.171 116.739L190.733 141.235C190.759 141.312 190.772 141.402 190.772 141.504C190.772 141.735 190.682 141.939 190.503 142.118C190.35 142.272 190.158 142.349 189.927 142.349H182.824C182.338 142.349 181.979 142.246 181.749 142.042C181.544 141.811 181.403 141.594 181.327 141.389L180.405 138.855H172.15L171.229 141.389C171.152 141.594 171.011 141.811 170.806 142.042C170.602 142.246 170.243 142.349 169.731 142.349H162.628ZM174.262 117.929C174.108 117.904 173.98 117.904 173.878 117.929C173.801 117.929 173.724 117.993 173.648 118.121C173.545 118.403 173.596 118.646 173.801 118.851C173.955 118.979 174.083 119.068 174.185 119.12C174.287 119.171 174.428 119.145 174.607 119.043C174.787 118.966 174.876 118.876 174.876 118.774C174.876 118.646 174.863 118.48 174.838 118.275C174.812 118.121 174.748 118.032 174.646 118.006C174.569 117.981 174.441 117.955 174.262 117.929ZM178.332 118.966C178.204 118.685 178.063 118.518 177.909 118.467C177.756 118.416 177.538 118.403 177.257 118.429C176.924 118.454 176.655 118.493 176.45 118.544C176.271 118.569 176.143 118.749 176.066 119.081C175.964 119.465 175.951 119.76 176.028 119.964C176.105 120.144 176.31 120.336 176.642 120.54C176.975 120.745 177.244 120.847 177.449 120.847C177.679 120.822 177.948 120.681 178.255 120.425C178.511 120.195 178.613 119.977 178.562 119.772C178.537 119.568 178.46 119.299 178.332 118.966ZM171.536 119.235C171.382 119.107 171.241 119.068 171.113 119.12C171.011 119.145 170.883 119.222 170.73 119.35C170.499 119.504 170.435 119.721 170.538 120.003C170.589 120.208 170.64 120.361 170.691 120.463C170.742 120.566 170.87 120.617 171.075 120.617C171.305 120.617 171.472 120.591 171.574 120.54C171.677 120.463 171.766 120.323 171.843 120.118C171.92 119.888 171.933 119.721 171.881 119.619C171.83 119.491 171.715 119.363 171.536 119.235ZM175.337 121.116C175.209 121.116 175.132 121.155 175.107 121.231C175.107 121.308 175.081 121.411 175.03 121.539C174.979 121.641 174.94 121.731 174.915 121.807C174.889 121.859 174.915 121.923 174.991 121.999C175.145 122.153 175.324 122.166 175.529 122.038C175.734 121.935 175.811 121.782 175.759 121.577C175.683 121.295 175.542 121.142 175.337 121.116ZM181.48 122.69C181.403 122.511 181.314 122.409 181.211 122.383C181.135 122.332 180.994 122.319 180.789 122.345C180.584 122.37 180.418 122.396 180.29 122.422C180.162 122.447 180.072 122.562 180.021 122.767C179.996 122.998 180.034 123.151 180.136 123.228C180.239 123.305 180.38 123.394 180.559 123.497C180.738 123.599 180.879 123.676 180.981 123.727C181.109 123.753 181.25 123.702 181.403 123.574C181.557 123.42 181.634 123.292 181.634 123.19C181.634 123.062 181.583 122.895 181.48 122.69ZM170.576 123.113C170.397 122.959 170.243 122.882 170.115 122.882C169.987 122.882 169.821 122.946 169.616 123.074C169.386 123.202 169.219 123.33 169.117 123.458C169.015 123.561 169.002 123.74 169.079 123.996C169.13 124.277 169.207 124.469 169.309 124.572C169.437 124.674 169.654 124.738 169.962 124.764C170.218 124.789 170.397 124.751 170.499 124.649C170.602 124.521 170.704 124.341 170.806 124.111C170.909 123.881 170.947 123.702 170.921 123.574C170.896 123.446 170.781 123.292 170.576 123.113ZM174.108 131.368H178.447L176.258 124.226L174.108 131.368ZM181.903 125.724C181.698 125.647 181.531 125.608 181.403 125.608C181.275 125.608 181.147 125.698 181.019 125.877C180.891 126.056 180.84 126.21 180.866 126.338C180.891 126.44 180.968 126.581 181.096 126.76C181.25 126.991 181.365 127.17 181.442 127.298C181.544 127.4 181.723 127.413 181.979 127.336C182.235 127.259 182.376 127.157 182.402 127.029C182.453 126.876 182.478 126.658 182.478 126.376C182.478 126.172 182.427 126.031 182.325 125.954C182.248 125.877 182.107 125.8 181.903 125.724ZM172.073 127.528C171.92 127.272 171.766 127.119 171.613 127.067C171.459 127.016 171.241 127.029 170.96 127.106C170.678 127.157 170.499 127.247 170.422 127.375C170.371 127.503 170.333 127.707 170.307 127.989C170.282 128.219 170.32 128.373 170.422 128.45C170.525 128.527 170.678 128.603 170.883 128.68C171.165 128.808 171.382 128.936 171.536 129.064C171.689 129.192 171.881 129.141 172.112 128.91C172.342 128.655 172.432 128.437 172.381 128.258C172.355 128.079 172.253 127.835 172.073 127.528ZM181.211 128.527C181.032 128.45 180.904 128.463 180.827 128.565C180.751 128.667 180.648 128.782 180.52 128.91C180.392 129.038 180.303 129.141 180.252 129.218C180.226 129.269 180.252 129.371 180.328 129.525C180.456 129.781 180.648 129.896 180.904 129.87C181.083 129.845 181.186 129.794 181.211 129.717C181.263 129.64 181.301 129.512 181.327 129.333C181.352 129.128 181.378 128.974 181.403 128.872C181.455 128.744 181.391 128.629 181.211 128.527ZM183.861 129.256L183.477 129.41L183.285 129.717L183.63 129.947L183.899 129.678L183.861 129.256ZM183.592 131.445C183.515 131.24 183.451 131.073 183.4 130.945C183.374 130.817 183.259 130.741 183.054 130.715C182.824 130.689 182.683 130.741 182.632 130.869C182.581 130.997 182.517 131.163 182.44 131.368C182.338 131.624 182.389 131.841 182.594 132.02C182.798 132.2 182.952 132.366 183.054 132.52C183.157 132.648 183.323 132.648 183.554 132.52C183.784 132.366 183.861 132.212 183.784 132.059C183.707 131.905 183.643 131.701 183.592 131.445ZM181.135 130.753L180.789 131.022L180.827 131.368L181.211 131.483L181.327 131.137L181.135 130.753ZM185.358 131.867C185.153 131.713 184.987 131.701 184.859 131.829C184.731 131.905 184.629 131.982 184.552 132.059C184.501 132.136 184.501 132.238 184.552 132.366C184.603 132.52 184.667 132.596 184.744 132.596C184.846 132.596 184.974 132.596 185.128 132.596C185.307 132.596 185.448 132.596 185.55 132.596C185.653 132.596 185.717 132.52 185.742 132.366C185.793 132.212 185.768 132.11 185.665 132.059C185.589 132.008 185.486 131.944 185.358 131.867ZM172.688 133.249C172.611 133.019 172.534 132.865 172.457 132.788C172.381 132.712 172.227 132.673 171.997 132.673C171.689 132.699 171.446 132.724 171.267 132.75C171.113 132.75 170.998 132.891 170.921 133.172C170.819 133.505 170.794 133.761 170.845 133.94C170.896 134.119 171.075 134.311 171.382 134.516C171.638 134.67 171.83 134.683 171.958 134.555C172.086 134.401 172.265 134.235 172.496 134.055C172.649 133.927 172.739 133.812 172.764 133.71C172.79 133.582 172.764 133.428 172.688 133.249ZM178.37 133.172C178.14 133.044 177.935 133.057 177.756 133.211C177.602 133.364 177.577 133.556 177.679 133.787C177.73 133.889 177.781 133.94 177.833 133.94C177.909 133.94 178.012 133.94 178.14 133.94C178.37 133.915 178.498 133.825 178.524 133.671C178.575 133.416 178.524 133.249 178.37 133.172ZM181.019 133.518C180.891 133.441 180.789 133.377 180.712 133.326C180.661 133.249 180.584 133.249 180.482 133.326C180.354 133.428 180.303 133.518 180.328 133.595C180.354 133.671 180.392 133.787 180.444 133.94C180.52 134.171 180.648 134.286 180.827 134.286C180.955 134.286 181.032 134.26 181.058 134.209C181.109 134.132 181.16 134.03 181.211 133.902C181.237 133.774 181.173 133.646 181.019 133.518ZM175.337 134.094L175.145 133.748L174.684 133.902L174.761 134.439L175.26 134.593L175.337 134.094ZM169.347 134.555C169.168 134.375 169.027 134.235 168.925 134.132C168.848 134.004 168.695 133.991 168.464 134.094C168.234 134.222 168.093 134.35 168.042 134.478C167.991 134.606 167.978 134.811 168.003 135.092C168.055 135.374 168.106 135.578 168.157 135.706C168.234 135.834 168.413 135.937 168.695 136.014C169.002 136.065 169.245 136.078 169.424 136.052C169.603 136.001 169.77 135.834 169.923 135.553C170.077 135.297 170.064 135.118 169.885 135.015C169.706 134.913 169.526 134.759 169.347 134.555ZM183.592 135.092C183.515 134.913 183.451 134.785 183.4 134.708C183.349 134.606 183.234 134.555 183.054 134.555C182.85 134.58 182.722 134.644 182.67 134.747C182.619 134.823 182.568 134.951 182.517 135.131C182.491 135.284 182.504 135.399 182.555 135.476C182.606 135.553 182.696 135.63 182.824 135.706C182.978 135.809 183.093 135.886 183.17 135.937C183.272 135.962 183.4 135.924 183.554 135.822C183.682 135.694 183.733 135.578 183.707 135.476C183.707 135.374 183.669 135.246 183.592 135.092ZM177.909 135.246L177.717 134.9L177.449 135.169V135.438L177.794 135.591L177.909 135.246ZM171.574 135.937C171.395 135.783 171.241 135.732 171.113 135.783C171.011 135.809 170.858 135.886 170.653 136.014C170.499 136.116 170.41 136.218 170.384 136.321C170.384 136.423 170.41 136.564 170.461 136.743C170.512 136.999 170.691 137.14 170.998 137.165C171.203 137.165 171.357 137.165 171.459 137.165C171.561 137.14 171.651 137.037 171.728 136.858C171.805 136.628 171.843 136.462 171.843 136.359C171.843 136.231 171.753 136.09 171.574 135.937ZM185.819 137.281C185.563 137.204 185.358 137.178 185.205 137.204C185.077 137.229 184.949 137.357 184.821 137.588C184.641 137.869 184.501 138.1 184.398 138.279C184.296 138.433 184.36 138.637 184.59 138.893C184.795 139.175 184.987 139.29 185.166 139.239C185.371 139.188 185.627 139.098 185.934 138.97C186.267 138.842 186.523 138.74 186.702 138.663C186.881 138.586 186.958 138.369 186.932 138.01C186.907 137.677 186.792 137.498 186.587 137.473C186.382 137.421 186.126 137.357 185.819 137.281ZM168.887 138.74C168.733 138.381 168.541 138.215 168.311 138.241C168.106 138.241 167.811 138.253 167.428 138.279C167.018 138.305 166.685 138.33 166.429 138.356C166.199 138.356 166.032 138.561 165.93 138.97C165.828 139.38 165.853 139.687 166.007 139.892C166.16 140.071 166.416 140.275 166.775 140.506C167.21 140.762 167.543 140.941 167.773 141.043C168.029 141.146 168.336 141.031 168.695 140.698C169.079 140.391 169.245 140.109 169.194 139.853C169.168 139.572 169.066 139.2 168.887 138.74Z" fill="#151515"/>
</svg>
