<svg width="73" height="64" viewBox="0 0 73 64" fill="none" xmlns="http://www.w3.org/2000/svg">
<path d="M28.3471 0.899857C26.4907 2.04967 24.5842 4.74924 22.778 8.74861C22.0254 10.3983 21.3732 11.7981 21.323 11.8981C21.2729 11.9481 20.0687 11.2982 18.6137 10.4483C12.7938 6.84891 6.52234 8.7986 6.52234 14.2477C6.52234 18.0471 12.5931 25.196 19.0151 28.9954L22.6777 31.1451L18.2625 33.4447C11.7904 36.7442 7.72646 40.7435 4.61581 46.8925C1.30447 53.3915 0 57.3409 0 60.9903C0 65.4896 1.20412 64.8397 2.45842 59.7405C3.96357 53.6915 9.18144 44.6929 13.3457 41.0435C15.6536 39.0438 20.9718 36.1942 26.3402 34.1446C28.6481 33.2947 28.8488 33.0947 28.8488 31.545C28.8488 29.9452 28.6481 29.7953 24.2832 27.5456C17.3595 23.9962 12.543 19.8968 10.7368 15.9475C9.73333 13.6478 10.3354 12.498 12.6433 12.498C14.4997 12.498 15.7038 13.0979 18.9148 15.7975C22.8784 19.147 24.2832 18.597 25.5375 13.2479C26.2399 10.2984 29.2502 4.74924 30.354 4.29932C31.7086 3.7994 32.8124 6.34899 33.0131 10.3484C33.1636 12.8979 32.8625 15.4975 32.11 18.997C31.1567 23.0463 31.0564 24.0962 31.6082 24.7461C32.712 26.0459 33.8158 25.5959 36.8763 22.4464C42.8969 16.3974 51.2254 11.2982 59.4536 8.69862C62.8653 7.59879 64.2199 7.44881 68.2337 7.59879C72.1973 7.69878 73 7.64878 73 6.99889C73 4.84923 62.9155 3.7494 57.6474 5.29916C52.6804 6.74893 39.5856 14.0478 38.3814 15.9975C38.2309 16.2474 37.7794 16.4974 37.4282 16.4974C36.9766 16.4974 36.8261 15.1976 36.8261 11.3482C36.8763 6.94889 36.7258 5.94905 35.7223 4.09935C34.6186 1.99968 32.11 0 30.6048 0C30.2034 0 29.2 0.399937 28.3471 0.899857Z" fill="white"/>
</svg>
