<svg width="84" height="19" viewBox="0 0 84 19" fill="none" xmlns="http://www.w3.org/2000/svg">
<path d="M0.702313 18.2C0.511646 18.2 0.346979 18.1307 0.208313 17.992C0.0696459 17.8533 0.000312589 17.6887 0.000312589 17.498V0.702C0.000312589 0.511334 0.0696459 0.346667 0.208313 0.208C0.346979 0.069333 0.511646 -4.76837e-07 0.702313 -4.76837e-07H4.81031C5.15698 -4.76837e-07 5.40831 0.0779996 5.56431 0.234C5.72031 0.39 5.82431 0.511333 5.87631 0.598L10.2703 7.8V0.702C10.2703 0.511334 10.3396 0.346667 10.4783 0.208C10.617 0.069333 10.7816 -4.76837e-07 10.9723 -4.76837e-07H15.6783C15.869 -4.76837e-07 16.0336 0.069333 16.1723 0.208C16.311 0.346667 16.3803 0.511334 16.3803 0.702V17.498C16.3803 17.6887 16.311 17.8533 16.1723 17.992C16.0336 18.1307 15.869 18.2 15.6783 18.2H11.5703C11.2236 18.2 10.9723 18.122 10.8163 17.966C10.6603 17.7927 10.5563 17.6713 10.5043 17.602L6.11031 10.972V17.498C6.11031 17.6887 6.04098 17.8533 5.90231 17.992C5.76365 18.1307 5.59898 18.2 5.40831 18.2H0.702313ZM5.48631 1.456L5.38231 1.248L5.20031 1.352L5.07031 1.638L5.40831 1.716L5.48631 1.456ZM2.88631 1.378C2.78231 1.34333 2.70431 1.352 2.65231 1.404C2.60031 1.43867 2.53965 1.508 2.47031 1.612C2.34898 1.75067 2.33165 1.88933 2.41831 2.028C2.52231 2.16667 2.66098 2.21 2.83431 2.158C2.93831 2.14067 3.01631 2.11467 3.06831 2.08C3.12031 2.028 3.14631 1.95 3.14631 1.846C3.14631 1.70733 3.12898 1.612 3.09431 1.56C3.07698 1.49067 3.00765 1.43 2.88631 1.378ZM13.2343 1.404L13.0003 1.508L13.0263 1.794L13.2863 1.716L13.4163 1.56L13.2343 1.404ZM12.3503 1.976C12.3156 1.85467 12.2723 1.768 12.2203 1.716C12.1856 1.664 12.1076 1.638 11.9863 1.638C11.8476 1.638 11.7436 1.664 11.6743 1.716C11.605 1.75067 11.553 1.82867 11.5183 1.95C11.4663 2.08867 11.4576 2.19267 11.4923 2.262C11.527 2.33133 11.605 2.40933 11.7263 2.496C11.8303 2.56533 11.917 2.59133 11.9863 2.574C12.0556 2.55667 12.1423 2.51333 12.2463 2.444C12.385 2.32267 12.4196 2.16667 12.3503 1.976ZM5.30431 3.328C4.99231 3.276 4.72365 3.21533 4.49831 3.146C4.27298 3.07667 4.07365 3.068 3.90031 3.12C3.72698 3.172 3.57098 3.33667 3.43231 3.614C3.29365 3.89133 3.25031 4.11667 3.30231 4.29C3.37165 4.446 3.50165 4.59333 3.69231 4.732C3.88298 4.87067 4.09098 5.05267 4.31631 5.278C4.59365 5.55533 4.81898 5.76333 4.99231 5.902C5.18298 6.04067 5.46031 6.02333 5.82431 5.85C6.24031 5.62467 6.50898 5.41667 6.63031 5.226C6.76898 5.018 6.80365 4.68 6.73431 4.212C6.66498 3.796 6.50898 3.562 6.26631 3.51C6.04098 3.44067 5.72031 3.38 5.30431 3.328ZM1.89831 3.484C1.86365 3.34533 1.81165 3.25867 1.74231 3.224C1.67298 3.172 1.56898 3.13733 1.43031 3.12C1.29165 3.10267 1.19631 3.12867 1.14431 3.198C1.10965 3.25 1.06631 3.33667 1.01431 3.458C0.944979 3.64867 0.979646 3.80467 1.11831 3.926C1.22231 4.03 1.30898 4.108 1.37831 4.16C1.44765 4.212 1.55165 4.20333 1.69031 4.134C1.82898 4.04733 1.90698 3.96067 1.92431 3.874C1.95898 3.78733 1.95031 3.65733 1.89831 3.484ZM13.1823 3.12H12.8703L12.7403 3.302L12.8963 3.51L13.1303 3.406L13.1823 3.12ZM13.6503 3.744L13.3383 3.796L13.2603 4.108L13.5723 4.264L13.6763 4.004L13.6503 3.744ZM12.1423 3.848C12.0383 3.796 11.9603 3.796 11.9083 3.848C11.8736 3.9 11.8216 3.96067 11.7523 4.03C11.6656 4.134 11.5876 4.212 11.5183 4.264C11.4663 4.29867 11.4663 4.368 11.5183 4.472C11.605 4.61067 11.6743 4.706 11.7263 4.758C11.7956 4.79267 11.9083 4.80133 12.0643 4.784C12.2203 4.74933 12.3243 4.69733 12.3763 4.628C12.4283 4.55867 12.463 4.446 12.4803 4.29C12.4976 4.15133 12.4803 4.056 12.4283 4.004C12.3763 3.952 12.281 3.9 12.1423 3.848ZM15.7303 5.096C15.6956 4.92267 15.635 4.81867 15.5483 4.784C15.4616 4.732 15.3316 4.69733 15.1583 4.68C14.985 4.66267 14.8636 4.68867 14.7943 4.758C14.7423 4.81 14.6816 4.914 14.6123 5.07C14.5603 5.19133 14.5516 5.28667 14.5863 5.356C14.6383 5.42533 14.7163 5.50333 14.8203 5.59C14.9416 5.694 15.037 5.772 15.1063 5.824C15.193 5.85867 15.297 5.84133 15.4183 5.772C15.5743 5.668 15.6783 5.57267 15.7303 5.486C15.7823 5.39933 15.7823 5.26933 15.7303 5.096ZM12.8183 6.214C12.6623 6.09267 12.5063 6.084 12.3503 6.188C12.177 6.30933 12.1163 6.46533 12.1683 6.656C12.1856 6.76 12.229 6.82067 12.2983 6.838C12.3676 6.838 12.463 6.838 12.5843 6.838C12.723 6.838 12.8183 6.76867 12.8703 6.63C12.905 6.526 12.9223 6.448 12.9223 6.396C12.9396 6.344 12.905 6.28333 12.8183 6.214ZM3.53631 7.176C3.44965 7.10667 3.38031 7.05467 3.32831 7.02C3.27631 6.98533 3.19831 7.00267 3.09431 7.072C2.99031 7.124 2.93831 7.18467 2.93831 7.254C2.93831 7.32333 2.94698 7.41 2.96431 7.514C2.99898 7.63533 3.03365 7.722 3.06831 7.774C3.10298 7.80867 3.18098 7.83467 3.30231 7.852C3.40631 7.852 3.47565 7.83467 3.51031 7.8C3.56231 7.748 3.60565 7.67 3.64031 7.566C3.70965 7.41 3.67498 7.28 3.53631 7.176ZM7.04631 7.514C6.92498 7.34067 6.81231 7.24533 6.70831 7.228C6.60431 7.21067 6.44831 7.228 6.24031 7.28C6.03231 7.332 5.88498 7.40133 5.79831 7.488C5.72898 7.55733 5.69431 7.696 5.69431 7.904C5.69431 8.09467 5.72898 8.22467 5.79831 8.294C5.88498 8.36333 6.02365 8.43267 6.21431 8.502C6.37031 8.554 6.48298 8.56267 6.55231 8.528C6.63898 8.476 6.73431 8.38067 6.83831 8.242C6.95965 8.10333 7.04631 7.99067 7.09831 7.904C7.16765 7.8 7.15031 7.67 7.04631 7.514ZM8.29431 7.566C8.12098 7.566 8.00831 7.60067 7.95631 7.67C7.90431 7.73933 7.84365 7.852 7.77431 8.008C7.70498 8.19867 7.65298 8.35467 7.61831 8.476C7.58365 8.58 7.64431 8.69267 7.80031 8.814C7.93898 8.918 8.04298 8.92667 8.11231 8.84C8.19898 8.736 8.32031 8.62333 8.47631 8.502C8.63231 8.41533 8.77098 8.35467 8.89231 8.32C9.01365 8.268 9.04831 8.15533 8.99631 7.982C8.94431 7.79133 8.86631 7.67867 8.76231 7.644C8.65831 7.592 8.50231 7.566 8.29431 7.566ZM2.10631 8.216C2.07165 8.04267 2.04565 7.904 2.02831 7.8C2.01098 7.696 1.90698 7.63533 1.71631 7.618C1.54298 7.60067 1.42165 7.63533 1.35231 7.722C1.28298 7.80867 1.21365 7.93867 1.14431 8.112C1.09231 8.25067 1.09231 8.35467 1.14431 8.424C1.21365 8.476 1.30898 8.54533 1.43031 8.632C1.53431 8.71867 1.62098 8.77933 1.69031 8.814C1.75965 8.84867 1.85498 8.83133 1.97631 8.762C2.09765 8.67533 2.15831 8.59733 2.15831 8.528C2.17565 8.45867 2.15831 8.35467 2.10631 8.216ZM13.5203 8.97C13.0003 8.74467 12.5583 8.61467 12.1943 8.58C11.8476 8.54533 11.5183 8.62333 11.2063 8.814C10.9116 8.98733 10.5736 9.29067 10.1923 9.724C9.88031 10.0707 9.75898 10.374 9.82831 10.634C9.89765 10.894 10.0536 11.1627 10.2963 11.44C10.5563 11.7 10.8076 12.0293 11.0503 12.428C11.3103 12.8613 11.5443 13.156 11.7523 13.312C11.9776 13.468 12.333 13.4853 12.8183 13.364C13.4076 13.2253 13.8496 13.0867 14.1443 12.948C14.4563 12.8093 14.6383 12.4367 14.6903 11.83C14.725 11.31 14.7423 10.8767 14.7423 10.53C14.7423 10.1833 14.6556 9.88867 14.4823 9.646C14.3263 9.386 14.0056 9.16067 13.5203 8.97ZM5.12231 9.126C4.98365 8.98733 4.87098 8.892 4.78431 8.84C4.69765 8.77067 4.56765 8.77067 4.39431 8.84C4.16898 8.92667 4.01298 9.01333 3.92631 9.1C3.85698 9.18667 3.83098 9.34267 3.84831 9.568C3.86565 9.776 3.92631 9.906 4.03031 9.958C4.15165 9.99267 4.30765 10.036 4.49831 10.088C4.70631 10.14 4.86231 10.1747 4.96631 10.192C5.08765 10.192 5.20031 10.1053 5.30431 9.932C5.42565 9.75867 5.45165 9.62 5.38231 9.516C5.33031 9.412 5.24365 9.282 5.12231 9.126ZM1.58631 9.828C1.58631 9.724 1.50831 9.646 1.35231 9.594C1.21365 9.55933 1.11831 9.58533 1.06631 9.672C0.996979 9.75867 0.944979 9.828 0.910313 9.88C0.892979 9.932 0.910313 10.0013 0.962313 10.088C1.08365 10.2267 1.23965 10.2613 1.43031 10.192C1.53431 10.1573 1.58631 10.114 1.58631 10.062C1.58631 9.99267 1.58631 9.91467 1.58631 9.828ZM4.36831 10.946C4.28165 10.8247 4.19498 10.79 4.10831 10.842C4.03898 10.8767 3.93498 10.92 3.79631 10.972C3.69231 11.0067 3.61431 11.0413 3.56231 11.076C3.51031 11.1107 3.48431 11.18 3.48431 11.284C3.48431 11.388 3.51031 11.4573 3.56231 11.492C3.61431 11.5267 3.69231 11.5613 3.79631 11.596C3.91765 11.648 4.00431 11.6827 4.05631 11.7C4.12565 11.7 4.20365 11.6567 4.29031 11.57C4.37698 11.4313 4.42898 11.3273 4.44631 11.258C4.48098 11.1713 4.45498 11.0673 4.36831 10.946ZM1.97631 11.18C1.80298 11.128 1.67298 11.0933 1.58631 11.076C1.49965 11.0413 1.40431 11.0933 1.30031 11.232C1.21365 11.3707 1.19631 11.4833 1.24831 11.57C1.30031 11.6393 1.37831 11.7433 1.48231 11.882C1.56898 12.0033 1.64698 12.0987 1.71631 12.168C1.78565 12.22 1.89831 12.22 2.05431 12.168C2.21031 12.0987 2.30565 12.0293 2.34031 11.96C2.39231 11.8733 2.41831 11.7433 2.41831 11.57C2.41831 11.4313 2.37498 11.3447 2.28831 11.31C2.21898 11.258 2.11498 11.2147 1.97631 11.18ZM3.14631 13.104C3.11165 13 3.05965 12.948 2.99031 12.948C2.92098 12.9307 2.82565 12.922 2.70431 12.922C2.58298 12.922 2.47898 12.922 2.39231 12.922C2.32298 12.922 2.27098 12.9827 2.23631 13.104C2.20165 13.2253 2.21898 13.3033 2.28831 13.338C2.35765 13.3727 2.44431 13.4247 2.54831 13.494C2.61765 13.546 2.67831 13.5893 2.73031 13.624C2.78231 13.6413 2.84298 13.6153 2.91231 13.546C3.01631 13.4767 3.08565 13.416 3.12031 13.364C3.17231 13.312 3.18098 13.2253 3.14631 13.104ZM1.74231 13.702C1.72498 13.5633 1.68165 13.4853 1.61231 13.468C1.54298 13.4333 1.43898 13.3987 1.30031 13.364C1.17898 13.3467 1.07498 13.338 0.988313 13.338C0.918979 13.338 0.858313 13.39 0.806313 13.494C0.684979 13.702 0.702313 13.9013 0.858313 14.092C0.962313 14.196 1.04898 14.2653 1.11831 14.3C1.18765 14.3173 1.29165 14.2913 1.43031 14.222C1.65565 14.118 1.75965 13.9447 1.74231 13.702ZM4.52431 13.962C4.33365 13.9273 4.19498 13.9793 4.10831 14.118C4.03898 14.2393 3.99565 14.3347 3.97831 14.404C3.96098 14.4733 3.99565 14.56 4.08231 14.664C4.16898 14.7507 4.24698 14.794 4.31631 14.794C4.38565 14.7767 4.48098 14.742 4.60231 14.69C4.72365 14.638 4.80165 14.586 4.83631 14.534C4.88831 14.482 4.90565 14.3953 4.88831 14.274C4.87098 14.1527 4.83631 14.0833 4.78431 14.066C4.73231 14.0313 4.64565 13.9967 4.52431 13.962ZM10.5563 14.482L10.2703 14.638L10.2963 14.924L10.5823 15.002L10.7383 14.742L10.5563 14.482ZM1.43031 15.314L1.19631 15.184L1.04031 15.392L1.14431 15.548H1.35231L1.43031 15.314ZM2.18431 15.782C2.09765 15.6953 2.00231 15.678 1.89831 15.73C1.81165 15.782 1.74231 15.8253 1.69031 15.86C1.65565 15.8773 1.64698 15.938 1.66431 16.042C1.68165 16.1287 1.71631 16.172 1.76831 16.172C1.83765 16.172 1.91565 16.1807 2.00231 16.198C2.08898 16.2153 2.15831 16.224 2.21031 16.224C2.26231 16.224 2.30565 16.1807 2.34031 16.094C2.37498 16.0247 2.37498 15.9727 2.34031 15.938C2.30565 15.9033 2.25365 15.8513 2.18431 15.782ZM4.42031 15.99C4.29898 15.8167 4.17765 15.73 4.05631 15.73C3.95231 15.7127 3.79631 15.7387 3.58831 15.808C3.39765 15.8773 3.26765 15.9553 3.19831 16.042C3.14631 16.1287 3.12031 16.2673 3.12031 16.458C3.12031 16.666 3.14631 16.822 3.19831 16.926C3.25031 17.0127 3.37165 17.0907 3.56231 17.16C3.80498 17.2293 3.99565 17.2813 4.13431 17.316C4.27298 17.3333 4.42031 17.238 4.57631 17.03C4.73231 16.822 4.78431 16.6487 4.73231 16.51C4.68031 16.3713 4.57631 16.198 4.42031 15.99ZM11.6743 16.146L11.4143 16.068L11.2063 16.25L11.3883 16.484L11.6223 16.406L11.6743 16.146ZM14.6123 16.926L14.4303 16.744L14.2223 16.9L14.2743 17.134L14.5083 17.16L14.6123 16.926ZM19.9484 18.2C19.7577 18.2 19.5931 18.1307 19.4544 17.992C19.3157 17.8533 19.2464 17.6887 19.2464 17.498V0.702C19.2464 0.511334 19.3157 0.346667 19.4544 0.208C19.5931 0.069333 19.7577 -4.76837e-07 19.9484 -4.76837e-07H33.2864C33.4771 -4.76837e-07 33.6417 0.069333 33.7804 0.208C33.9191 0.346667 33.9884 0.511334 33.9884 0.702V4.368C33.9884 4.55867 33.9191 4.72333 33.7804 4.862C33.6417 5.00067 33.4771 5.07 33.2864 5.07H25.4864V6.708H32.7144C32.9051 6.708 33.0697 6.77733 33.2084 6.916C33.3471 7.05467 33.4164 7.21933 33.4164 7.41V10.79C33.4164 10.9807 33.3471 11.1453 33.2084 11.284C33.0697 11.4227 32.9051 11.492 32.7144 11.492H25.4864V13.13H33.4944C33.6851 13.13 33.8497 13.1993 33.9884 13.338C34.1271 13.4767 34.1964 13.6413 34.1964 13.832V17.498C34.1964 17.6887 34.1271 17.8533 33.9884 17.992C33.8497 18.1307 33.6851 18.2 33.4944 18.2H19.9484ZM28.6844 1.118C28.6151 0.979334 28.5284 0.927333 28.4244 0.962C28.3377 0.996667 28.2251 1.02267 28.0864 1.04C27.9304 1.05733 27.8004 1.05733 27.6964 1.04C27.5924 1.02267 27.5317 1.092 27.5144 1.248C27.4797 1.404 27.4971 1.508 27.5664 1.56C27.6357 1.612 27.7484 1.68133 27.9044 1.768C28.0431 1.83733 28.1471 1.898 28.2164 1.95C28.3031 1.98467 28.4071 1.95 28.5284 1.846C28.6671 1.72467 28.7451 1.62067 28.7624 1.534C28.7797 1.43 28.7537 1.29133 28.6844 1.118ZM21.3264 1.274C21.2051 1.15267 21.0924 1.08333 20.9884 1.066C20.9017 1.03133 20.7804 1.04867 20.6244 1.118C20.4164 1.222 20.2517 1.30867 20.1304 1.378C20.0091 1.43 19.9571 1.56867 19.9744 1.794C20.0091 2.01933 20.0957 2.14067 20.2344 2.158C20.3731 2.17533 20.5551 2.21 20.7804 2.262C20.9711 2.29667 21.1184 2.314 21.2224 2.314C21.3437 2.314 21.4477 2.22733 21.5344 2.054C21.6384 1.88067 21.6644 1.75067 21.6124 1.664C21.5604 1.56 21.4651 1.43 21.3264 1.274ZM31.6224 1.378C31.5011 1.25667 31.3884 1.21333 31.2844 1.248C31.1977 1.26533 31.0764 1.31733 30.9204 1.404C30.7471 1.49067 30.6084 1.56 30.5044 1.612C30.4177 1.64667 30.3831 1.75933 30.4004 1.95C30.4351 2.14067 30.5044 2.24467 30.6084 2.262C30.7124 2.27933 30.8597 2.30533 31.0504 2.34C31.2237 2.37467 31.3624 2.40067 31.4664 2.418C31.5877 2.43533 31.6917 2.35733 31.7784 2.184C31.8651 2.01067 31.8911 1.872 31.8564 1.768C31.8391 1.664 31.7611 1.534 31.6224 1.378ZM27.0204 1.664C27.0204 1.54267 27.0031 1.456 26.9684 1.404C26.9511 1.352 26.8904 1.31733 26.7864 1.3C26.6651 1.26533 26.5697 1.25667 26.5004 1.274C26.4484 1.274 26.3877 1.31733 26.3184 1.404C26.2144 1.57733 26.2231 1.75067 26.3444 1.924C26.4137 2.01067 26.4744 2.054 26.5264 2.054C26.5957 2.03667 26.6824 2.01067 26.7864 1.976C26.9424 1.924 27.0204 1.82 27.0204 1.664ZM25.4604 1.638L25.3044 1.508L25.1744 1.638V1.846L25.4084 1.872L25.4604 1.638ZM32.7404 1.898L32.5064 1.794L32.2984 1.872L32.3504 2.132H32.6104L32.7404 1.898ZM24.2904 2.158C24.0824 2.08867 23.9351 2.09733 23.8484 2.184C23.7791 2.27067 23.6837 2.40067 23.5624 2.574C23.4411 2.74733 23.3544 2.886 23.3024 2.99C23.2504 3.07667 23.2851 3.20667 23.4064 3.38C23.5451 3.55333 23.6664 3.666 23.7704 3.718C23.8917 3.75267 24.0564 3.73533 24.2644 3.666C24.4724 3.59667 24.5851 3.51 24.6024 3.406C24.6197 3.28467 24.6284 3.12 24.6284 2.912C24.6284 2.704 24.6197 2.53933 24.6024 2.418C24.5851 2.29667 24.4811 2.21 24.2904 2.158ZM22.2104 2.496L22.0544 2.626L22.1064 2.808L22.3404 2.886L22.3924 2.626L22.2104 2.496ZM28.0344 3.016C27.9651 2.964 27.9044 2.95533 27.8524 2.99C27.8004 3.02467 27.7397 3.07667 27.6704 3.146C27.6011 3.198 27.5404 3.24133 27.4884 3.276C27.4364 3.29333 27.4277 3.34533 27.4624 3.432C27.4971 3.536 27.5317 3.614 27.5664 3.666C27.6011 3.718 27.6791 3.744 27.8004 3.744C27.9737 3.744 28.0951 3.64867 28.1644 3.458C28.2337 3.28467 28.1904 3.13733 28.0344 3.016ZM31.1544 3.614C31.0677 3.57933 31.0071 3.588 30.9724 3.64C30.9551 3.692 30.9117 3.75267 30.8424 3.822C30.7904 3.89133 30.7471 3.952 30.7124 4.004C30.6951 4.03867 30.7124 4.09067 30.7644 4.16C30.8337 4.24667 30.9464 4.27267 31.1024 4.238C31.1891 4.20333 31.2584 4.17733 31.3104 4.16C31.3797 4.14267 31.4144 4.09067 31.4144 4.004C31.4317 3.81333 31.3451 3.68333 31.1544 3.614ZM21.6384 4.55C21.5171 4.46333 21.4217 4.394 21.3524 4.342C21.3004 4.27267 21.2137 4.28133 21.0924 4.368C20.9537 4.45467 20.8671 4.54133 20.8324 4.628C20.7977 4.71467 20.8064 4.836 20.8584 4.992C20.8931 5.148 20.9451 5.24333 21.0144 5.278C21.1011 5.29533 21.2224 5.304 21.3784 5.304C21.5517 5.304 21.6817 5.304 21.7684 5.304C21.8551 5.28667 21.9331 5.2 22.0024 5.044C22.0544 4.90533 22.0371 4.81 21.9504 4.758C21.8637 4.706 21.7597 4.63667 21.6384 4.55ZM23.2244 4.758L22.9904 4.888L22.9644 5.044L23.1204 5.226L23.2504 5.018L23.2244 4.758ZM21.3524 6.422C21.1617 6.37 21.0231 6.37867 20.9364 6.448C20.8497 6.5 20.7457 6.604 20.6244 6.76C20.5204 6.916 20.4597 7.046 20.4424 7.15C20.4424 7.23667 20.5031 7.34933 20.6244 7.488C20.7284 7.644 20.8237 7.75667 20.9104 7.826C21.0144 7.878 21.1617 7.878 21.3524 7.826C21.5257 7.75667 21.6124 7.67 21.6124 7.566C21.6297 7.462 21.6384 7.31467 21.6384 7.124C21.6384 6.93333 21.6297 6.786 21.6124 6.682C21.6124 6.578 21.5257 6.49133 21.3524 6.422ZM25.4864 8.164C25.2611 8.04267 25.0791 7.99067 24.9404 8.008C24.8191 8.02533 24.6631 8.112 24.4724 8.268C24.2817 8.45867 24.1604 8.62333 24.1084 8.762C24.0564 8.88333 24.0824 9.06533 24.1864 9.308C24.3077 9.58533 24.4204 9.79333 24.5244 9.932C24.6457 10.0707 24.8624 10.1227 25.1744 10.088C25.4864 10.0533 25.6771 9.96667 25.7464 9.828C25.8331 9.672 25.9111 9.438 25.9804 9.126C26.0324 8.866 26.0151 8.67533 25.9284 8.554C25.8591 8.43267 25.7117 8.30267 25.4864 8.164ZM27.8524 8.242C27.7484 8.12067 27.6097 8.09467 27.4364 8.164C27.3324 8.19867 27.2631 8.242 27.2284 8.294C27.1937 8.32867 27.1764 8.398 27.1764 8.502C27.1937 8.69267 27.2977 8.814 27.4884 8.866C27.5751 8.88333 27.6357 8.87467 27.6704 8.84C27.7051 8.788 27.7484 8.71867 27.8004 8.632C27.8524 8.54533 27.8871 8.476 27.9044 8.424C27.9217 8.372 27.9044 8.31133 27.8524 8.242ZM22.1584 8.996C22.0717 8.92667 21.9937 8.88333 21.9244 8.866C21.8724 8.84867 21.8031 8.87467 21.7164 8.944C21.5951 9.01333 21.5171 9.08267 21.4824 9.152C21.4477 9.204 21.4477 9.29933 21.4824 9.438C21.5171 9.55933 21.5691 9.646 21.6384 9.698C21.7077 9.73267 21.8117 9.75 21.9504 9.75C22.0717 9.75 22.1584 9.724 22.2104 9.672C22.2624 9.62 22.3057 9.53333 22.3404 9.412C22.3751 9.308 22.3751 9.23 22.3404 9.178C22.3231 9.126 22.2624 9.06533 22.1584 8.996ZM28.7364 9.1L28.5024 8.944L28.2684 9.048L28.3464 9.334H28.6064L28.7364 9.1ZM20.4424 9.1L20.1044 9.152L20.1564 9.516L20.4684 9.568L20.7024 9.334L20.4424 9.1ZM27.6184 9.854C27.5144 9.78467 27.4364 9.724 27.3844 9.672C27.3497 9.60267 27.2804 9.60267 27.1764 9.672C26.9684 9.81067 26.8991 9.99267 26.9684 10.218C26.9857 10.3393 27.0291 10.4 27.0984 10.4C27.1851 10.4 27.2891 10.4 27.4104 10.4C27.5317 10.4 27.6184 10.4 27.6704 10.4C27.7397 10.4 27.7917 10.348 27.8264 10.244C27.8611 10.14 27.8524 10.0707 27.8004 10.036C27.7657 9.984 27.7051 9.92333 27.6184 9.854ZM22.2624 10.296L22.1324 10.374L22.0804 10.582L22.3144 10.634L22.4184 10.452L22.2624 10.296ZM23.0944 11.284C22.9731 11.18 22.8777 11.0847 22.8084 10.998C22.7564 10.9113 22.6611 10.9113 22.5224 10.998C22.3837 11.0673 22.3317 11.154 22.3664 11.258C22.4184 11.3447 22.4617 11.466 22.4964 11.622C22.5311 11.7433 22.5571 11.8387 22.5744 11.908C22.6091 11.9773 22.6871 12.0207 22.8084 12.038C22.9644 12.0553 23.0771 12.0467 23.1464 12.012C23.2157 11.9773 23.2764 11.8907 23.3284 11.752C23.3804 11.6307 23.3717 11.544 23.3024 11.492C23.2504 11.44 23.1811 11.3707 23.0944 11.284ZM21.1184 11.284C20.9797 11.2667 20.8671 11.258 20.7804 11.258C20.7111 11.258 20.6504 11.3273 20.5984 11.466C20.4944 11.6913 20.5291 11.8907 20.7024 12.064C20.8237 12.168 20.9277 12.2373 21.0144 12.272C21.1011 12.2893 21.2137 12.2547 21.3524 12.168C21.4737 12.0987 21.5171 12.0207 21.4824 11.934C21.4651 11.8473 21.4477 11.7347 21.4304 11.596C21.3957 11.4053 21.2917 11.3013 21.1184 11.284ZM21.1444 13.234C21.1444 13.13 21.1444 13.0433 21.1444 12.974C21.1444 12.8873 21.0837 12.8353 20.9624 12.818C20.8584 12.7833 20.7891 12.8007 20.7544 12.87C20.7371 12.9393 20.7024 13.026 20.6504 13.13C20.5811 13.234 20.5811 13.3293 20.6504 13.416C20.7197 13.4853 20.7717 13.5373 20.8064 13.572C20.8411 13.6067 20.9017 13.6067 20.9884 13.572C21.1097 13.52 21.1617 13.4073 21.1444 13.234ZM22.8084 14.352C22.8084 14.1787 22.7824 14.0573 22.7304 13.988C22.6957 13.9013 22.6004 13.832 22.4444 13.78C22.2191 13.7107 22.0457 13.6673 21.9244 13.65C21.8031 13.6327 21.6817 13.7193 21.5604 13.91C21.4391 14.0833 21.4217 14.222 21.5084 14.326C21.6124 14.4127 21.7251 14.534 21.8464 14.69C21.9677 14.8287 22.0631 14.9327 22.1324 15.002C22.2017 15.0713 22.3231 15.0713 22.4964 15.002C22.6697 14.95 22.7651 14.8807 22.7824 14.794C22.7997 14.69 22.8084 14.5427 22.8084 14.352ZM29.6724 14.014C29.4297 13.9273 29.2564 13.936 29.1524 14.04C29.0484 14.144 28.9271 14.3 28.7884 14.508C28.6497 14.716 28.5457 14.8893 28.4764 15.028C28.4244 15.1493 28.4677 15.3053 28.6064 15.496C28.7624 15.704 28.9097 15.7907 29.0484 15.756C29.1871 15.704 29.3691 15.6433 29.5944 15.574C29.7851 15.5047 29.9064 15.4267 29.9584 15.34C30.0104 15.2533 30.0364 15.1147 30.0364 14.924C30.0364 14.664 30.0277 14.4647 30.0104 14.326C30.0104 14.1873 29.8977 14.0833 29.6724 14.014ZM24.3684 14.872L24.0044 14.768L23.9524 15.132L24.1604 15.288L24.3424 15.158L24.3684 14.872ZM33.0004 15.522C32.9657 15.4007 32.9311 15.3053 32.8964 15.236C32.8617 15.1667 32.7837 15.132 32.6624 15.132C32.5064 15.132 32.3851 15.1493 32.2984 15.184C32.2291 15.2187 32.1684 15.3053 32.1164 15.444C32.0644 15.5653 32.0644 15.6607 32.1164 15.73C32.1857 15.782 32.2811 15.8513 32.4024 15.938C32.5237 16.042 32.6191 16.1373 32.6884 16.224C32.7751 16.2933 32.8877 16.2847 33.0264 16.198C33.1651 16.094 33.2084 15.9987 33.1564 15.912C33.1044 15.808 33.0524 15.678 33.0004 15.522ZM25.7984 15.392L25.5384 15.366L25.5124 15.626L25.7204 15.756L25.8504 15.574L25.7984 15.392ZM26.9424 17.03H26.7344L26.7084 17.212L26.8904 17.316L27.0204 17.186L26.9424 17.03ZM35.7302 18.2C35.5742 18.2 35.4355 18.148 35.3142 18.044C35.2102 17.9227 35.1582 17.784 35.1582 17.628C35.1582 17.5933 35.1582 17.5587 35.1582 17.524C35.1755 17.472 35.2015 17.4113 35.2362 17.342L40.6962 8.892L35.7822 0.857999C35.7302 0.754 35.7042 0.658666 35.7042 0.572C35.7042 0.416 35.7562 0.286 35.8602 0.182C35.9815 0.0606664 36.1202 -4.76837e-07 36.2762 -4.76837e-07H41.9182C42.2649 -4.76837e-07 42.5162 0.0866661 42.6722 0.259999C42.8455 0.433333 42.9582 0.563334 43.0102 0.65L44.8302 3.822L46.8062 0.65C46.8582 0.563334 46.9709 0.433333 47.1442 0.259999C47.3175 0.0866661 47.5689 -4.76837e-07 47.8982 -4.76837e-07H53.2802C53.4362 -4.76837e-07 53.5662 0.0606664 53.6702 0.182C53.7915 0.286 53.8522 0.416 53.8522 0.572C53.8522 0.676 53.8262 0.771333 53.7742 0.857999L48.7562 8.814L54.2942 17.342C54.3289 17.4113 54.3462 17.472 54.3462 17.524C54.3635 17.5587 54.3722 17.5933 54.3722 17.628C54.3722 17.784 54.3115 17.9227 54.1902 18.044C54.0862 18.148 53.9562 18.2 53.8002 18.2H47.9502C47.6209 18.2 47.3695 18.122 47.1962 17.966C47.0229 17.7927 46.9189 17.6713 46.8842 17.602L44.6222 14.118L42.4642 17.602C42.4295 17.6713 42.3255 17.7927 42.1522 17.966C41.9962 18.122 41.7449 18.2 41.3982 18.2H35.7302ZM38.7202 1.17L38.4342 1.014L38.2782 1.326L38.5122 1.586L38.6942 1.378L38.7202 1.17ZM51.3562 1.17L51.0442 1.118L51.1222 1.404L51.3302 1.638L51.5382 1.352L51.3562 1.17ZM40.0722 1.612C40.0375 1.47333 40.0029 1.36933 39.9682 1.3C39.9335 1.23067 39.8469 1.196 39.7082 1.196C39.5695 1.196 39.4915 1.23067 39.4742 1.3C39.4569 1.36933 39.4222 1.46467 39.3702 1.586C39.3009 1.75933 39.3269 1.898 39.4482 2.002C39.5522 2.08867 39.6389 2.158 39.7082 2.21C39.7775 2.262 39.8642 2.25333 39.9682 2.184C40.0895 2.09733 40.1502 2.01933 40.1502 1.95C40.1502 1.86333 40.1242 1.75067 40.0722 1.612ZM41.7102 2.886C41.5889 2.74733 41.4849 2.652 41.3982 2.6C41.3115 2.53067 41.1815 2.53067 41.0082 2.6C40.8349 2.66933 40.7309 2.756 40.6962 2.86C40.6789 2.964 40.6789 3.11133 40.6962 3.302C40.7135 3.52733 40.7135 3.718 40.6962 3.874C40.6962 4.03 40.8089 4.134 41.0342 4.186C41.2942 4.25533 41.4849 4.25533 41.6062 4.186C41.7449 4.09933 41.8835 3.94333 42.0222 3.718C42.1435 3.52733 42.1522 3.38867 42.0482 3.302C41.9615 3.198 41.8489 3.05933 41.7102 2.886ZM50.4462 2.964L50.1862 2.938L50.1082 3.12L50.1862 3.38L50.4722 3.25L50.4462 2.964ZM49.5622 4.368C49.4755 4.056 49.3542 3.86533 49.1982 3.796C49.0422 3.70933 48.7909 3.65733 48.4442 3.64C48.1495 3.62267 47.9502 3.67467 47.8462 3.796C47.7422 3.91733 47.6382 4.11667 47.5342 4.394C47.4302 4.67133 47.3782 4.888 47.3782 5.044C47.3955 5.2 47.5169 5.37333 47.7422 5.564C48.0022 5.772 48.2189 5.89333 48.3922 5.928C48.5655 5.94533 48.7909 5.85867 49.0682 5.668C49.3629 5.47733 49.5449 5.304 49.6142 5.148C49.6835 4.97467 49.6662 4.71467 49.5622 4.368ZM40.2282 4.862C40.1762 4.74067 40.1329 4.64533 40.0982 4.576C40.0809 4.50667 40.0115 4.48067 39.8902 4.498C39.6475 4.53267 39.5002 4.66267 39.4482 4.888C39.4309 5.02667 39.4482 5.122 39.5002 5.174C39.5695 5.20867 39.6562 5.252 39.7602 5.304C39.8469 5.356 39.9075 5.37333 39.9422 5.356C39.9942 5.32133 40.0635 5.26933 40.1502 5.2C40.2542 5.096 40.2802 4.98333 40.2282 4.862ZM43.8942 5.382C43.8769 5.278 43.8075 5.20867 43.6862 5.174C43.5822 5.15667 43.4955 5.13933 43.4262 5.122C43.3742 5.08733 43.3222 5.11333 43.2702 5.2C43.2182 5.304 43.2009 5.382 43.2182 5.434C43.2529 5.486 43.3049 5.55533 43.3742 5.642C43.4955 5.76333 43.6255 5.78933 43.7642 5.72C43.8509 5.68533 43.8942 5.642 43.8942 5.59C43.8942 5.538 43.8942 5.46867 43.8942 5.382ZM46.6242 6.786C46.2775 6.76867 46.0002 6.75133 45.7922 6.734C45.5842 6.69933 45.4195 6.838 45.2982 7.15C45.1595 7.54867 45.0989 7.86067 45.1162 8.086C45.1335 8.294 45.3069 8.528 45.6362 8.788C45.9135 9.03067 46.1389 9.06533 46.3122 8.892C46.4855 8.71867 46.7195 8.53667 47.0142 8.346C47.2222 8.20733 47.3522 8.07733 47.4042 7.956C47.4562 7.83467 47.4475 7.66133 47.3782 7.436C47.3089 7.19333 47.2222 7.02867 47.1182 6.942C47.0315 6.85533 46.8669 6.80333 46.6242 6.786ZM42.5942 7.02L42.3862 6.838L42.2042 7.046L42.2562 7.332L42.5942 7.306V7.02ZM43.0102 8.502C42.8195 8.41533 42.6722 8.398 42.5682 8.45C42.4815 8.48467 42.3689 8.58 42.2302 8.736C42.0915 8.87467 42.0222 8.996 42.0222 9.1C42.0222 9.18667 42.0655 9.31667 42.1522 9.49C42.2562 9.66333 42.3429 9.79333 42.4122 9.88C42.4989 9.96667 42.6462 9.984 42.8542 9.932C43.0449 9.89733 43.1402 9.828 43.1402 9.724C43.1402 9.60267 43.1575 9.438 43.1922 9.23C43.2095 9.03933 43.2269 8.892 43.2442 8.788C43.2615 8.66667 43.1835 8.57133 43.0102 8.502ZM48.3142 11.05C47.8982 10.6513 47.5342 10.478 47.2222 10.53C46.9275 10.5647 46.5289 10.7207 46.0262 10.998C45.7662 11.1367 45.6102 11.284 45.5582 11.44C45.5235 11.596 45.5409 11.7867 45.6102 12.012C45.6795 12.22 45.7402 12.4627 45.7922 12.74C45.8442 13.0867 45.9222 13.338 46.0262 13.494C46.1302 13.65 46.3469 13.754 46.6762 13.806C47.0402 13.858 47.3089 13.8407 47.4822 13.754C47.6729 13.6673 47.8462 13.4507 48.0022 13.104C48.1582 12.792 48.3055 12.532 48.4442 12.324C48.6002 12.0987 48.6782 11.8907 48.6782 11.7C48.6955 11.5093 48.5742 11.2927 48.3142 11.05ZM42.7762 13.338C42.6549 12.9393 42.5509 12.6273 42.4642 12.402C42.3949 12.1593 42.1522 12.038 41.7362 12.038C41.2855 12.038 40.9822 12.1333 40.8262 12.324C40.6875 12.5147 40.5489 12.818 40.4102 13.234C40.2715 13.65 40.2109 13.9793 40.2282 14.222C40.2629 14.4473 40.4622 14.69 40.8262 14.95C41.2075 15.2273 41.5282 15.392 41.7882 15.444C42.0482 15.496 42.3689 15.3747 42.7502 15.08C43.1142 14.82 43.2442 14.5687 43.1402 14.326C43.0362 14.0833 42.9149 13.754 42.7762 13.338ZM50.2642 14.768C50.1775 14.7507 50.1082 14.7333 50.0562 14.716C50.0042 14.6987 49.9522 14.7333 49.9002 14.82C49.7962 14.9933 49.8049 15.1407 49.9262 15.262C49.9955 15.3313 50.0562 15.3573 50.1082 15.34C50.1602 15.3053 50.2295 15.2707 50.3162 15.236C50.4375 15.184 50.4895 15.0973 50.4722 14.976C50.4549 14.872 50.3855 14.8027 50.2642 14.768ZM38.9542 15.47C38.9022 15.2447 38.8415 15.0713 38.7722 14.95C38.7029 14.8287 38.5469 14.7593 38.3042 14.742C38.0442 14.7247 37.8449 14.7507 37.7062 14.82C37.5849 14.8893 37.4809 15.054 37.3942 15.314C37.2902 15.522 37.2902 15.678 37.3942 15.782C37.4982 15.886 37.6369 16.016 37.8102 16.172C37.9662 16.2933 38.0875 16.354 38.1742 16.354C38.2782 16.3367 38.4169 16.276 38.5902 16.172C38.7462 16.068 38.8589 15.9727 38.9282 15.886C38.9975 15.7993 39.0062 15.6607 38.9542 15.47ZM47.3782 15.938C47.3435 15.834 47.3175 15.756 47.3002 15.704C47.2829 15.6347 47.2135 15.6 47.0922 15.6C46.9709 15.6 46.8929 15.6347 46.8582 15.704C46.8235 15.756 46.7889 15.834 46.7542 15.938C46.7369 16.0593 46.7282 16.1547 46.7282 16.224C46.7455 16.276 46.7975 16.328 46.8842 16.38C46.9709 16.4493 47.0315 16.458 47.0662 16.406C47.1182 16.354 47.1875 16.2933 47.2742 16.224C47.3782 16.1373 47.4129 16.042 47.3782 15.938ZM51.8242 16.614C51.8242 16.51 51.7462 16.432 51.5902 16.38C51.4689 16.3627 51.3735 16.3367 51.3042 16.302C51.2522 16.2673 51.2002 16.302 51.1482 16.406C51.0789 16.4927 51.0615 16.562 51.0962 16.614C51.1482 16.666 51.2089 16.744 51.2782 16.848C51.3302 16.9173 51.3822 16.9693 51.4342 17.004C51.4862 17.0387 51.5555 17.0387 51.6422 17.004C51.7462 16.9693 51.7982 16.926 51.7982 16.874C51.8155 16.8047 51.8242 16.718 51.8242 16.614ZM48.8862 16.458C48.7649 16.4233 48.6782 16.4493 48.6262 16.536C48.5915 16.6053 48.5655 16.666 48.5482 16.718C48.5309 16.7527 48.5482 16.8047 48.6002 16.874C48.6522 16.9433 48.7042 16.9953 48.7562 17.03C48.8082 17.0647 48.8775 17.0647 48.9642 17.03C49.1549 16.9607 49.2415 16.8307 49.2242 16.64C49.2242 16.5533 49.1895 16.51 49.1202 16.51C49.0509 16.51 48.9729 16.4927 48.8862 16.458ZM56.5109 18.2C56.3202 18.2 56.1556 18.1307 56.0169 17.992C55.8782 17.8533 55.8089 17.6887 55.8089 17.498V0.702C55.8089 0.511334 55.8782 0.346667 56.0169 0.208C56.1556 0.069333 56.3202 -4.76837e-07 56.5109 -4.76837e-07H61.8149C62.0056 -4.76837e-07 62.1702 0.069333 62.3089 0.208C62.4476 0.346667 62.5169 0.511334 62.5169 0.702V17.498C62.5169 17.6887 62.4476 17.8533 62.3089 17.992C62.1702 18.1307 62.0056 18.2 61.8149 18.2H56.5109ZM59.1889 0.702C59.0156 0.684667 58.8856 0.702 58.7989 0.754001C58.7296 0.806 58.6602 0.91 58.5909 1.066C58.5216 1.222 58.5042 1.33467 58.5389 1.404C58.5909 1.47333 58.6862 1.56 58.8249 1.664C58.9636 1.78533 59.0676 1.88933 59.1369 1.976C59.2236 2.04533 59.3449 2.028 59.5009 1.924C59.6742 1.82 59.7522 1.716 59.7349 1.612C59.7176 1.508 59.6829 1.36933 59.6309 1.196C59.5962 1.02267 59.5529 0.901333 59.5009 0.832C59.4489 0.762666 59.3449 0.719333 59.1889 0.702ZM57.3689 1.092L57.1349 1.118L57.1869 1.378H57.4209L57.3689 1.092ZM58.2009 2.366L57.9149 2.288L57.8629 2.652L58.1749 2.834L58.4089 2.574L58.2009 2.366ZM59.8389 2.73C59.8042 2.66067 59.7782 2.60867 59.7609 2.574C59.7436 2.522 59.6916 2.496 59.6049 2.496C59.4489 2.51333 59.3536 2.60867 59.3189 2.782C59.3016 2.85133 59.3102 2.90333 59.3449 2.938C59.3969 2.95533 59.4576 2.98133 59.5269 3.016C59.5962 3.05067 59.6482 3.08533 59.6829 3.12C59.7349 3.13733 59.7869 3.12 59.8389 3.068C59.9082 3.016 59.9342 2.97267 59.9169 2.938C59.8996 2.886 59.8736 2.81667 59.8389 2.73ZM57.3169 3.068L57.1869 2.912L56.9269 2.964L57.0569 3.172L57.2649 3.328L57.3169 3.068ZM61.6849 3.588L61.4249 3.64L61.5029 3.926L61.7889 4.004L61.8929 3.744L61.6849 3.588ZM57.3689 4.264L57.2129 4.16L56.9789 4.238L57.0569 4.524H57.3689V4.264ZM59.6309 4.732C59.5096 4.628 59.3709 4.628 59.2149 4.732C59.1282 4.784 59.0589 4.836 59.0069 4.888C58.9722 4.94 58.9636 5.018 58.9809 5.122C59.0502 5.33 59.1802 5.44267 59.3709 5.46C59.4922 5.46 59.5702 5.44267 59.6049 5.408C59.6396 5.356 59.6829 5.26933 59.7349 5.148C59.8042 4.992 59.7696 4.85333 59.6309 4.732ZM57.8889 4.914L57.6809 4.732L57.5509 4.966V5.174H57.8109L57.8889 4.914ZM61.5549 5.72L61.2429 5.824L61.3729 6.084L61.5809 6.136L61.7629 5.954L61.5549 5.72ZM57.1349 6.422L56.8229 6.214L56.5629 6.422L56.6929 6.708L56.9789 6.734L57.1349 6.422ZM60.7749 6.708C60.7576 6.552 60.7056 6.45667 60.6189 6.422C60.5496 6.38733 60.4369 6.35267 60.2809 6.318C60.1596 6.30067 60.0729 6.318 60.0209 6.37C59.9862 6.422 59.9429 6.5 59.8909 6.604C59.8389 6.708 59.8042 6.79467 59.7869 6.864C59.7869 6.916 59.8216 6.98533 59.8909 7.072C59.9949 7.176 60.0729 7.24533 60.1249 7.28C60.1942 7.31467 60.2896 7.29733 60.4109 7.228C60.5496 7.15867 60.6449 7.098 60.6969 7.046C60.7662 6.97667 60.7922 6.864 60.7749 6.708ZM58.6949 7.176C58.4349 7.10667 58.2356 7.10667 58.0969 7.176C57.9756 7.24533 57.8369 7.39267 57.6809 7.618C57.5596 7.826 57.5249 7.99067 57.5769 8.112C57.6462 8.23333 57.7589 8.38067 57.9149 8.554C58.0709 8.74467 58.2009 8.87467 58.3049 8.944C58.4089 9.01333 58.5649 9.00467 58.7729 8.918C59.0502 8.79667 59.2582 8.69267 59.3969 8.606C59.5529 8.51933 59.6222 8.32867 59.6049 8.034C59.5876 7.722 59.5009 7.52267 59.3449 7.436C59.2062 7.332 58.9896 7.24533 58.6949 7.176ZM61.0349 7.8L60.8529 7.826L60.7229 8.034L60.9829 8.138L61.2169 7.982L61.0349 7.8ZM57.5249 10.14C57.3689 10.1227 57.2822 10.166 57.2649 10.27C57.2476 10.3567 57.2129 10.4693 57.1609 10.608C57.1089 10.7467 57.0569 10.8593 57.0049 10.946C56.9702 11.0153 57.0049 11.0933 57.1089 11.18C57.2129 11.2667 57.2996 11.284 57.3689 11.232C57.4382 11.1627 57.5336 11.0933 57.6549 11.024C57.7762 10.9547 57.8802 10.9027 57.9669 10.868C58.0536 10.8333 58.0796 10.738 58.0449 10.582C58.0102 10.426 57.9582 10.322 57.8889 10.27C57.8196 10.2007 57.6982 10.1573 57.5249 10.14ZM59.2669 10.348L59.0069 10.4L59.1369 10.66L59.4229 10.738L59.5009 10.452L59.2669 10.348ZM61.6849 11.674L61.5029 11.544L61.4249 11.752L61.5289 11.986L61.7109 11.83L61.6849 11.674ZM59.3709 11.96C59.2496 11.8387 59.1022 11.8213 58.9289 11.908C58.7556 11.9947 58.6862 12.1333 58.7209 12.324C58.7556 12.5147 58.8682 12.6273 59.0589 12.662C59.1976 12.6793 59.3016 12.688 59.3709 12.688C59.4402 12.6707 59.5096 12.6013 59.5789 12.48C59.6309 12.3587 59.6309 12.272 59.5789 12.22C59.5442 12.1507 59.4749 12.064 59.3709 11.96ZM61.2949 12.87C61.0696 12.714 60.8529 12.714 60.6449 12.87C60.5236 12.9567 60.4542 13.0433 60.4369 13.13C60.4369 13.1993 60.4629 13.3033 60.5149 13.442C60.5669 13.6153 60.6102 13.754 60.6449 13.858C60.6796 13.9447 60.7836 13.988 60.9569 13.988C61.1476 13.988 61.2862 13.962 61.3729 13.91C61.4769 13.858 61.5636 13.7367 61.6329 13.546C61.6849 13.3727 61.6762 13.2513 61.6069 13.182C61.5376 13.0953 61.4336 12.9913 61.2949 12.87ZM57.7069 12.922C57.5682 12.87 57.4556 12.8613 57.3689 12.896C57.2996 12.9133 57.2216 12.9827 57.1349 13.104C57.0656 13.2253 57.0482 13.3207 57.0829 13.39C57.1176 13.442 57.1782 13.52 57.2649 13.624C57.3689 13.7453 57.4469 13.8493 57.4989 13.936C57.5509 14.0053 57.6462 14.0053 57.7849 13.936C57.9582 13.884 58.0622 13.8233 58.0969 13.754C58.1489 13.6673 58.1749 13.5373 58.1749 13.364C58.1576 13.1907 58.1142 13.0867 58.0449 13.052C57.9756 13 57.8629 12.9567 57.7069 12.922ZM59.4749 14.248L59.2929 14.17L59.1629 14.378L59.3189 14.586L59.5789 14.456L59.4749 14.248ZM58.5909 14.742L58.3829 14.586L58.1489 14.742L58.2269 15.054L58.4869 14.976L58.5909 14.742ZM57.4989 15.288C57.4989 15.132 57.4816 15.0193 57.4469 14.95C57.4122 14.8633 57.3169 14.794 57.1609 14.742C57.0396 14.7073 56.9616 14.7333 56.9269 14.82C56.8922 14.8893 56.8316 14.9847 56.7449 15.106C56.6582 15.2273 56.6582 15.3487 56.7449 15.47C56.8316 15.574 56.8922 15.652 56.9269 15.704C56.9616 15.756 57.0396 15.7647 57.1609 15.73C57.2996 15.678 57.3862 15.626 57.4209 15.574C57.4729 15.522 57.4989 15.4267 57.4989 15.288ZM61.0349 14.82C60.9309 14.8027 60.8529 14.8633 60.8009 15.002C60.7489 15.1233 60.7576 15.2187 60.8269 15.288C60.8962 15.3573 60.9916 15.3573 61.1129 15.288C61.1822 15.2533 61.2342 15.2273 61.2689 15.21C61.3209 15.1753 61.3382 15.1233 61.3209 15.054C61.2862 14.9153 61.1909 14.8373 61.0349 14.82ZM59.2929 15.678L59.1369 15.47L58.8769 15.626L58.9549 15.912L59.2149 15.886L59.2929 15.678ZM59.5009 16.926C59.4836 16.8047 59.4576 16.718 59.4229 16.666C59.4056 16.5967 59.3362 16.5447 59.2149 16.51C59.0762 16.4927 58.9722 16.4927 58.9029 16.51C58.8336 16.5273 58.7642 16.5967 58.6949 16.718C58.6256 16.8393 58.6256 16.926 58.6949 16.978C58.7642 17.0127 58.8422 17.0733 58.9289 17.16C58.9809 17.2293 59.0242 17.2813 59.0589 17.316C59.1109 17.3507 59.1802 17.3507 59.2669 17.316C59.4402 17.2293 59.5182 17.0993 59.5009 16.926ZM61.7109 16.77C61.6589 16.6487 61.5896 16.5967 61.5029 16.614C61.4162 16.6313 61.3036 16.6487 61.1649 16.666C61.0436 16.6833 60.9482 16.7007 60.8789 16.718C60.8269 16.7353 60.7836 16.8047 60.7489 16.926C60.7316 17.082 60.7229 17.2033 60.7229 17.29C60.7229 17.3767 60.7922 17.4547 60.9309 17.524C61.0522 17.5933 61.1389 17.5933 61.1909 17.524C61.2429 17.4373 61.3209 17.342 61.4249 17.238C61.5289 17.134 61.6156 17.0647 61.6849 17.03C61.7542 16.978 61.7629 16.8913 61.7109 16.77ZM64.5232 18.2C64.3672 18.2 64.2285 18.148 64.1072 18.044C64.0032 17.9227 63.9512 17.784 63.9512 17.628C63.9512 17.5587 63.9598 17.498 63.9772 17.446L69.7752 0.857999C69.8272 0.667333 69.9485 0.476667 70.1392 0.286C70.3298 0.0953332 70.5985 -4.76837e-07 70.9452 -4.76837e-07H76.5872C76.9338 -4.76837e-07 77.2025 0.0953332 77.3932 0.286C77.5838 0.476667 77.7052 0.667333 77.7572 0.857999L83.5552 17.446C83.5725 17.498 83.5812 17.5587 83.5812 17.628C83.5812 17.784 83.5205 17.9227 83.3992 18.044C83.2952 18.148 83.1652 18.2 83.0092 18.2H78.1992C77.8698 18.2 77.6272 18.1307 77.4712 17.992C77.3325 17.836 77.2372 17.6887 77.1852 17.55L76.5612 15.834H70.9712L70.3472 17.55C70.2952 17.6887 70.1998 17.836 70.0612 17.992C69.9225 18.1307 69.6798 18.2 69.3332 18.2H64.5232ZM72.4012 1.664C72.2972 1.64667 72.2105 1.64667 72.1412 1.664C72.0892 1.664 72.0372 1.70733 71.9852 1.794C71.9158 1.98467 71.9505 2.14933 72.0892 2.288C72.1932 2.37467 72.2798 2.43533 72.3492 2.47C72.4185 2.50467 72.5138 2.48733 72.6352 2.418C72.7565 2.366 72.8172 2.30533 72.8172 2.236C72.8172 2.14933 72.8085 2.03667 72.7912 1.898C72.7738 1.794 72.7305 1.73333 72.6612 1.716C72.6092 1.69867 72.5225 1.68133 72.4012 1.664ZM75.1572 2.366C75.0705 2.17533 74.9752 2.06267 74.8712 2.028C74.7672 1.99333 74.6198 1.98467 74.4292 2.002C74.2038 2.01933 74.0218 2.04533 73.8832 2.08C73.7618 2.09733 73.6752 2.21867 73.6232 2.444C73.5538 2.704 73.5452 2.90333 73.5972 3.042C73.6492 3.16333 73.7878 3.29333 74.0132 3.432C74.2385 3.57067 74.4205 3.64 74.5592 3.64C74.7152 3.62267 74.8972 3.52733 75.1052 3.354C75.2785 3.198 75.3478 3.05067 75.3132 2.912C75.2958 2.77333 75.2438 2.59133 75.1572 2.366ZM70.5552 2.548C70.4512 2.46133 70.3558 2.43533 70.2692 2.47C70.1998 2.48733 70.1132 2.53933 70.0092 2.626C69.8532 2.73 69.8098 2.87733 69.8792 3.068C69.9138 3.20667 69.9485 3.31067 69.9832 3.38C70.0178 3.44933 70.1045 3.484 70.2432 3.484C70.3992 3.484 70.5118 3.46667 70.5812 3.432C70.6505 3.38 70.7112 3.28467 70.7632 3.146C70.8152 2.99 70.8238 2.87733 70.7892 2.808C70.7545 2.72133 70.6765 2.63467 70.5552 2.548ZM73.1292 3.822C73.0425 3.822 72.9905 3.848 72.9732 3.9C72.9732 3.952 72.9558 4.02133 72.9212 4.108C72.8865 4.17733 72.8605 4.238 72.8432 4.29C72.8258 4.32467 72.8432 4.368 72.8952 4.42C72.9992 4.524 73.1205 4.53267 73.2592 4.446C73.3978 4.37667 73.4498 4.27267 73.4152 4.134C73.3632 3.94333 73.2678 3.83933 73.1292 3.822ZM77.2892 4.888C77.2372 4.76667 77.1765 4.69733 77.1072 4.68C77.0552 4.64533 76.9598 4.63667 76.8212 4.654C76.6825 4.67133 76.5698 4.68867 76.4832 4.706C76.3965 4.72333 76.3358 4.80133 76.3012 4.94C76.2838 5.096 76.3098 5.2 76.3792 5.252C76.4485 5.304 76.5438 5.36467 76.6652 5.434C76.7865 5.50333 76.8818 5.55533 76.9512 5.59C77.0378 5.60733 77.1332 5.57267 77.2372 5.486C77.3412 5.382 77.3932 5.29533 77.3932 5.226C77.3932 5.13933 77.3585 5.02667 77.2892 4.888ZM69.9052 5.174C69.7838 5.07 69.6798 5.018 69.5932 5.018C69.5065 5.018 69.3938 5.06133 69.2552 5.148C69.0992 5.23467 68.9865 5.32133 68.9172 5.408C68.8478 5.47733 68.8392 5.59867 68.8912 5.772C68.9258 5.96267 68.9778 6.09267 69.0472 6.162C69.1338 6.23133 69.2812 6.27467 69.4892 6.292C69.6625 6.30933 69.7838 6.28333 69.8532 6.214C69.9225 6.12733 69.9918 6.006 70.0612 5.85C70.1305 5.694 70.1565 5.57267 70.1392 5.486C70.1218 5.39933 70.0438 5.29533 69.9052 5.174ZM72.2972 10.764H75.2352L73.7532 5.928L72.2972 10.764ZM77.5752 6.942C77.4365 6.89 77.3238 6.864 77.2372 6.864C77.1505 6.864 77.0638 6.92467 76.9772 7.046C76.8905 7.16733 76.8558 7.27133 76.8732 7.358C76.8905 7.42733 76.9425 7.52267 77.0292 7.644C77.1332 7.8 77.2112 7.92133 77.2632 8.008C77.3325 8.07733 77.4538 8.086 77.6272 8.034C77.8005 7.982 77.8958 7.91267 77.9132 7.826C77.9478 7.722 77.9652 7.57467 77.9652 7.384C77.9652 7.24533 77.9305 7.15 77.8612 7.098C77.8092 7.046 77.7138 6.994 77.5752 6.942ZM70.9192 8.164C70.8152 7.99067 70.7112 7.88667 70.6072 7.852C70.5032 7.81733 70.3558 7.826 70.1652 7.878C69.9745 7.91267 69.8532 7.97333 69.8012 8.06C69.7665 8.14667 69.7405 8.28533 69.7232 8.476C69.7058 8.632 69.7318 8.736 69.8012 8.788C69.8705 8.84 69.9745 8.892 70.1132 8.944C70.3038 9.03067 70.4512 9.11733 70.5552 9.204C70.6592 9.29067 70.7892 9.256 70.9452 9.1C71.1012 8.92667 71.1618 8.77933 71.1272 8.658C71.1098 8.53667 71.0405 8.372 70.9192 8.164ZM77.1072 8.84C76.9858 8.788 76.8992 8.79667 76.8472 8.866C76.7952 8.93533 76.7258 9.01333 76.6392 9.1C76.5525 9.18667 76.4918 9.256 76.4572 9.308C76.4398 9.34267 76.4572 9.412 76.5092 9.516C76.5958 9.68933 76.7258 9.76733 76.8992 9.75C77.0205 9.73267 77.0898 9.698 77.1072 9.646C77.1418 9.594 77.1678 9.50733 77.1852 9.386C77.2025 9.24733 77.2198 9.14333 77.2372 9.074C77.2718 8.98733 77.2285 8.90933 77.1072 8.84ZM78.9012 9.334L78.6412 9.438L78.5112 9.646L78.7452 9.802L78.9272 9.62L78.9012 9.334ZM78.7192 10.816C78.6672 10.6773 78.6238 10.5647 78.5892 10.478C78.5718 10.3913 78.4938 10.3393 78.3552 10.322C78.1992 10.3047 78.1038 10.3393 78.0692 10.426C78.0345 10.5127 77.9912 10.6253 77.9392 10.764C77.8698 10.9373 77.9045 11.0847 78.0432 11.206C78.1818 11.3273 78.2858 11.44 78.3552 11.544C78.4245 11.6307 78.5372 11.6307 78.6932 11.544C78.8492 11.44 78.9012 11.336 78.8492 11.232C78.7972 11.128 78.7538 10.9893 78.7192 10.816ZM77.0552 10.348L76.8212 10.53L76.8472 10.764L77.1072 10.842L77.1852 10.608L77.0552 10.348ZM79.9152 11.102C79.7765 10.998 79.6638 10.9893 79.5772 11.076C79.4905 11.128 79.4212 11.18 79.3692 11.232C79.3345 11.284 79.3345 11.3533 79.3692 11.44C79.4038 11.544 79.4472 11.596 79.4992 11.596C79.5685 11.596 79.6552 11.596 79.7592 11.596C79.8805 11.596 79.9758 11.596 80.0452 11.596C80.1145 11.596 80.1578 11.544 80.1752 11.44C80.2098 11.336 80.1925 11.2667 80.1232 11.232C80.0712 11.1973 80.0018 11.154 79.9152 11.102ZM71.3352 12.038C71.2832 11.882 71.2312 11.778 71.1792 11.726C71.1272 11.674 71.0232 11.648 70.8672 11.648C70.6592 11.6653 70.4945 11.6827 70.3732 11.7C70.2692 11.7 70.1912 11.7953 70.1392 11.986C70.0698 12.2113 70.0525 12.3847 70.0872 12.506C70.1218 12.6273 70.2432 12.7573 70.4512 12.896C70.6245 13 70.7545 13.0087 70.8412 12.922C70.9278 12.818 71.0492 12.7053 71.2052 12.584C71.3092 12.4973 71.3698 12.4193 71.3872 12.35C71.4045 12.2633 71.3872 12.1593 71.3352 12.038ZM75.1832 11.986C75.0272 11.8993 74.8885 11.908 74.7672 12.012C74.6632 12.116 74.6458 12.246 74.7152 12.402C74.7498 12.4713 74.7845 12.506 74.8192 12.506C74.8712 12.506 74.9405 12.506 75.0272 12.506C75.1832 12.4887 75.2698 12.428 75.2872 12.324C75.3218 12.1507 75.2872 12.038 75.1832 11.986ZM76.9772 12.22C76.8905 12.168 76.8212 12.1247 76.7692 12.09C76.7345 12.038 76.6825 12.038 76.6132 12.09C76.5265 12.1593 76.4918 12.22 76.5092 12.272C76.5265 12.324 76.5525 12.402 76.5872 12.506C76.6392 12.662 76.7258 12.74 76.8472 12.74C76.9338 12.74 76.9858 12.7227 77.0032 12.688C77.0378 12.636 77.0725 12.5667 77.1072 12.48C77.1245 12.3933 77.0812 12.3067 76.9772 12.22ZM73.1292 12.61L72.9992 12.376L72.6872 12.48L72.7392 12.844L73.0772 12.948L73.1292 12.61ZM69.0732 12.922C68.9518 12.8007 68.8565 12.7053 68.7872 12.636C68.7352 12.5493 68.6312 12.5407 68.4752 12.61C68.3192 12.6967 68.2238 12.7833 68.1892 12.87C68.1545 12.9567 68.1458 13.0953 68.1632 13.286C68.1978 13.4767 68.2325 13.6153 68.2672 13.702C68.3192 13.7887 68.4405 13.858 68.6312 13.91C68.8392 13.9447 69.0038 13.9533 69.1252 13.936C69.2465 13.9013 69.3592 13.7887 69.4632 13.598C69.5672 13.4247 69.5585 13.3033 69.4372 13.234C69.3158 13.1647 69.1945 13.0607 69.0732 12.922ZM78.7192 13.286C78.6672 13.1647 78.6238 13.078 78.5892 13.026C78.5545 12.9567 78.4765 12.922 78.3552 12.922C78.2165 12.9393 78.1298 12.9827 78.0952 13.052C78.0605 13.104 78.0258 13.1907 77.9912 13.312C77.9738 13.416 77.9825 13.494 78.0172 13.546C78.0518 13.598 78.1125 13.65 78.1992 13.702C78.3032 13.7713 78.3812 13.8233 78.4332 13.858C78.5025 13.8753 78.5892 13.8493 78.6932 13.78C78.7798 13.6933 78.8145 13.6153 78.7972 13.546C78.7972 13.4767 78.7712 13.39 78.7192 13.286ZM74.8712 13.39L74.7412 13.156L74.5592 13.338V13.52L74.7932 13.624L74.8712 13.39ZM70.5812 13.858C70.4598 13.754 70.3558 13.7193 70.2692 13.754C70.1998 13.7713 70.0958 13.8233 69.9572 13.91C69.8532 13.9793 69.7925 14.0487 69.7752 14.118C69.7752 14.1873 69.7925 14.2827 69.8272 14.404C69.8618 14.5773 69.9832 14.6727 70.1912 14.69C70.3298 14.69 70.4338 14.69 70.5032 14.69C70.5725 14.6727 70.6332 14.6033 70.6852 14.482C70.7372 14.326 70.7632 14.2133 70.7632 14.144C70.7632 14.0573 70.7025 13.962 70.5812 13.858ZM80.2272 14.768C80.0538 14.716 79.9152 14.6987 79.8112 14.716C79.7245 14.7333 79.6378 14.82 79.5512 14.976C79.4298 15.1667 79.3345 15.3227 79.2652 15.444C79.1958 15.548 79.2392 15.6867 79.3952 15.86C79.5338 16.0507 79.6638 16.1287 79.7852 16.094C79.9238 16.0593 80.0972 15.9987 80.3052 15.912C80.5305 15.8253 80.7038 15.756 80.8252 15.704C80.9465 15.652 80.9985 15.5047 80.9812 15.262C80.9638 15.0367 80.8858 14.9153 80.7472 14.898C80.6085 14.8633 80.4352 14.82 80.2272 14.768ZM68.7612 15.756C68.6572 15.5133 68.5272 15.4007 68.3712 15.418C68.2325 15.418 68.0332 15.4267 67.7732 15.444C67.4958 15.4613 67.2705 15.4787 67.0972 15.496C66.9412 15.496 66.8285 15.6347 66.7592 15.912C66.6898 16.1893 66.7072 16.3973 66.8112 16.536C66.9152 16.6573 67.0885 16.796 67.3312 16.952C67.6258 17.1253 67.8512 17.2467 68.0072 17.316C68.1805 17.3853 68.3885 17.3073 68.6312 17.082C68.8912 16.874 69.0038 16.6833 68.9692 16.51C68.9518 16.3193 68.8825 16.068 68.7612 15.756Z" fill="#151515"/>
</svg>
