<svg width="62" height="62" viewBox="0 0 62 62" fill="none" xmlns="http://www.w3.org/2000/svg">
<path d="M48.3506 26.6943C48.7642 26.6943 49.0273 26.5815 49.3657 26.2808L54.479 20.9043C57.4868 17.7837 61.6978 12.9712 61.6978 7.70752C61.6978 3.42139 58.6523 0 54.7046 0C52.2983 0 49.8545 1.20312 48.3506 3.42139C46.8467 1.20312 44.3652 0 41.9966 0C38.0112 0 35.0034 3.42139 35.0034 7.70752C35.0034 12.9712 39.2144 17.7837 42.1846 20.9043L47.3354 26.2808C47.6362 26.5815 47.8994 26.6943 48.3506 26.6943ZM48.3506 20.1147C48.125 20.1147 48.0122 20.002 47.8994 19.8892L45.8691 17.6709C42.2222 13.6104 40.3423 10.6777 40.3423 8.27148C40.3423 6.57959 41.4326 5.33887 43.0869 5.33887C44.9292 5.33887 46.3955 7.10596 47.2979 9.21143C47.6738 10.1514 49.0273 10.1514 49.3657 9.24902C50.2681 7.10596 51.6968 5.33887 53.6143 5.33887C55.2686 5.33887 56.3589 6.57959 56.3589 8.27148C56.3589 10.6777 54.5166 13.6104 50.832 17.6709L48.8018 19.8892C48.689 20.002 48.5762 20.1147 48.3506 20.1147ZM42.2598 10.8657C42.5229 11.2041 43.1245 10.9033 42.8989 10.4521C42.6357 10.001 42.5605 9.5498 42.5605 9.21143C42.5605 8.0459 43.6885 8.0835 43.6885 7.29395C43.6885 6.95557 43.4629 6.65479 43.0117 6.65479C42.2974 6.65479 41.4702 7.40674 41.4702 8.72266C41.4702 9.5498 41.8462 10.3018 42.2598 10.8657ZM20.5659 61.6978C21.2427 61.6978 21.6938 61.4722 22.1074 61.0586L30.0781 52.7119C34.5146 48.0498 41.1694 40.6055 41.1694 32.4092C41.1694 25.7544 36.4697 20.5283 30.4165 20.5283C26.6943 20.5283 22.897 22.3706 20.5659 25.7544C18.2725 22.3706 14.4751 20.5283 10.7529 20.5283C4.69971 20.5283 0 25.7544 0 32.4092C0 40.6055 6.65479 48.0498 11.1289 52.7119L19.0996 61.0586C19.4756 61.5098 19.9268 61.6978 20.5659 61.6978ZM20.5659 53.8398C20.3779 53.8398 20.2275 53.7271 20.1147 53.6143L15.6406 48.8018C9.36182 41.9966 6.27881 36.9585 6.27881 32.5972C6.27881 29.2886 8.30908 26.8071 11.3545 26.8071C14.5879 26.8071 17.2573 29.4014 19.2124 33.8755C19.7012 35.1162 21.5435 35.1162 21.9946 33.8755C23.7617 29.4014 26.5815 26.8071 29.8149 26.8071C32.8604 26.8071 34.8906 29.2886 34.8906 32.5972C34.8906 36.9585 31.8452 41.9966 25.5288 48.8018L21.0547 53.6143C20.9419 53.7271 20.8291 53.8398 20.5659 53.8398ZM9.92578 36.7329C10.377 37.2593 11.0913 36.8833 10.8281 36.1313C10.4897 35.2666 10.3394 34.4395 10.3394 33.8003C10.3394 31.2061 12.708 31.4692 12.708 29.9277C12.708 29.2886 12.2568 28.8374 11.5049 28.8374C10.189 28.8374 8.53467 30.2661 8.53467 32.6724C8.53467 34.2139 9.13623 35.6802 9.92578 36.7329Z" fill="#151515"/>
</svg>
