<svg width="39" height="40" viewBox="0 0 39 40" fill="none" xmlns="http://www.w3.org/2000/svg">
<path d="M19.4887 39.8139C22.8348 39.8139 30.1374 33.8452 34.6817 28.6678C37.7113 25.2087 39 21.6365 39 18.2904C39 9.47304 31.1548 0 19.4887 0C6.71478 0 0 10.6713 0 18.313C0 21.6365 1.26609 25.1861 4.38609 28.7357C8.81739 33.8226 16.1426 39.8139 19.4887 39.8139ZM19.4887 35.7896C16.8661 35.7896 10.92 30.5217 7.23478 26.1809C4.90609 23.4452 3.97913 20.687 3.97913 17.9061C3.97913 9.74435 12.073 3.97913 19.4887 3.97913C27.6278 3.97913 35.0209 10.3322 35.0209 17.9513C35.0209 20.7096 34.1391 23.3774 31.6748 26.2939C28.0574 30.5217 22.1113 35.7896 19.4887 35.7896ZM13.3617 26.6783C16.1652 26.6783 17.3409 24.4174 17.3409 21.8626C17.3409 17.8157 13.7913 13.927 10.287 13.927C7.50609 13.927 6.21739 16.3461 6.21739 18.833C6.21739 22.9478 9.81217 26.6783 13.3617 26.6783ZM25.6157 26.6783C29.1652 26.6783 32.7826 22.9704 32.7826 18.833C32.7826 16.3461 31.4713 13.927 28.7357 13.927C25.2087 13.927 21.6591 17.8157 21.6591 21.8626C21.6591 24.44 22.8348 26.6783 25.6157 26.6783ZM11.327 19.0365C10.2643 19.0365 9.0887 17.9061 9.0887 16.7304C9.0887 16.0974 9.42783 15.3513 10.2643 15.3513C11.2139 15.3513 12.4122 16.4817 12.4122 17.6574C12.4122 18.3583 12.1635 19.0365 11.327 19.0365ZM27.673 19.0365C26.8139 19.0365 26.5652 18.3809 26.5652 17.6574C26.5652 16.4817 27.7635 15.3513 28.7357 15.3513C29.5722 15.3513 29.9339 16.12 29.9339 16.7304C29.9339 17.9061 28.7583 19.0365 27.673 19.0365ZM19.4887 32.5339C21.8626 32.5339 23.9878 30.1826 23.9878 29.0974C23.9878 28.7357 23.8974 28.6452 23.5583 28.8713C22.6765 29.4591 21.0261 29.9339 19.4887 29.9339C17.9287 29.9339 16.2783 29.4365 15.4191 28.8713C15.1252 28.6452 15.0122 28.7357 15.0122 29.0974C15.0122 30.1826 17.1148 32.5339 19.4887 32.5339Z" fill="#252525"/>
</svg>
