<svg width="1540" height="272" viewBox="0 0 1540 272" fill="none" xmlns="http://www.w3.org/2000/svg">
<path d="M0 0H220V172C220 227.228 175.228 272 120 272H100C44.7715 272 0 227.228 0 172V0Z" fill="#5D9BFF"/>
<path d="M220 0H440V172C440 227.228 395.228 272 340 272H320C264.772 272 220 227.228 220 172V0Z" fill="#5D9BFF"/>
<path d="M440 0H660V172C660 227.228 615.228 272 560 272H540C484.772 272 440 227.228 440 172V0Z" fill="#5D9BFF"/>
<path d="M660 0H880V172C880 227.228 835.228 272 780 272H760C704.772 272 660 227.228 660 172V0Z" fill="#5D9BFF"/>
<path d="M880 0H1100V172C1100 227.228 1055.23 272 1000 272H980C924.772 272 880 227.228 880 172V0Z" fill="#5D9BFF"/>
<path d="M1100 0H1320V172C1320 227.228 1275.23 272 1220 272H1200C1144.77 272 1100 227.228 1100 172V0Z" fill="#5D9BFF"/>
<path d="M1320 0H1540V172C1540 227.228 1495.23 272 1440 272H1420C1364.77 272 1320 227.228 1320 172V0Z" fill="#5D9BFF"/>
</svg>
