<svg width="1440" height="230" viewBox="0 0 1440 230" fill="none" xmlns="http://www.w3.org/2000/svg">
<path d="M0 0H220V130C220 185.228 175.228 230 120 230H100C44.7715 230 0 185.228 0 130V0Z" fill="#F25144"/>
<path d="M220 0H440V130C440 185.228 395.228 230 340 230H320C264.772 230 220 185.228 220 130V0Z" fill="#F25144"/>
<path d="M440 0H660V130C660 185.228 615.228 230 560 230H540C484.772 230 440 185.228 440 130V0Z" fill="#F25144"/>
<path d="M660 0H880V130C880 185.228 835.228 230 780 230H760C704.772 230 660 185.228 660 130V0Z" fill="#F25144"/>
<path d="M880 0H1100V130C1100 185.228 1055.23 230 1000 230H980C924.772 230 880 185.228 880 130V0Z" fill="#F25144"/>
<path d="M1100 0H1320V130C1320 185.228 1275.23 230 1220 230H1200C1144.77 230 1100 185.228 1100 130V0Z" fill="#F25144"/>
<path d="M1320 0H1540V130C1540 185.228 1495.23 230 1440 230H1420C1364.77 230 1320 185.228 1320 130V0Z" fill="#F25144"/>
</svg>
