<svg width="44" height="44" viewBox="0 0 44 44" fill="none" xmlns="http://www.w3.org/2000/svg">
<path d="M34.4814 19.0372C34.7764 19.0372 34.964 18.9567 35.2054 18.7422L38.8519 14.908C40.997 12.6825 44 9.25046 44 5.49665C44 2.43998 41.8282 0 39.0128 0C37.2968 0 35.5539 0.858013 34.4814 2.43998C33.4089 0.858013 31.6392 0 29.95 0C27.1079 0 24.9628 2.43998 24.9628 5.49665C24.9628 9.25046 27.9659 12.6825 30.0841 14.908L33.7575 18.7422C33.972 18.9567 34.1597 19.0372 34.4814 19.0372ZM34.4814 14.3449C34.3205 14.3449 34.2401 14.2645 34.1597 14.184L32.7118 12.6021C30.1109 9.70628 28.7703 7.61487 28.7703 5.89884C28.7703 4.69226 29.5478 3.80743 30.7276 3.80743C32.0414 3.80743 33.0871 5.06764 33.7307 6.56917C33.9988 7.23949 34.964 7.23949 35.2054 6.59598C35.8489 5.06764 36.8678 3.80743 38.2352 3.80743C39.415 3.80743 40.1926 4.69226 40.1926 5.89884C40.1926 7.61487 38.8787 9.70628 36.2511 12.6021L34.8032 14.184C34.7227 14.2645 34.6423 14.3449 34.4814 14.3449ZM30.1377 7.74893C30.3254 7.99025 30.7544 7.77575 30.5935 7.45399C30.4059 7.13224 30.3522 6.81048 30.3522 6.56917C30.3522 5.73796 31.1566 5.76478 31.1566 5.20171C31.1566 4.96039 30.9957 4.74589 30.674 4.74589C30.1645 4.74589 29.5746 5.28215 29.5746 6.2206C29.5746 6.81048 29.8428 7.34674 30.1377 7.74893ZM14.6667 44C15.1493 44 15.4711 43.8391 15.766 43.5442L21.4503 37.5917C24.6143 34.2669 29.3601 28.958 29.3601 23.1127C29.3601 18.3668 26.0085 14.6399 21.6917 14.6399C19.0372 14.6399 16.3291 15.9537 14.6667 18.3668C13.0311 15.9537 10.323 14.6399 7.6685 14.6399C3.35161 14.6399 0 18.3668 0 23.1127C0 28.958 4.74589 34.2669 7.93662 37.5917L13.621 43.5442C13.8891 43.8659 14.2108 44 14.6667 44ZM14.6667 38.3961C14.5326 38.3961 14.4254 38.3157 14.3449 38.2352L11.1542 34.8032C6.67642 29.95 4.47776 26.3571 4.47776 23.2468C4.47776 20.8873 5.92566 19.1176 8.0975 19.1176C10.4034 19.1176 12.3071 20.9677 13.7014 24.1584C14.05 25.0433 15.3638 25.0433 15.6856 24.1584C16.9458 20.9677 18.9567 19.1176 21.2626 19.1176C23.4345 19.1176 24.8824 20.8873 24.8824 23.2468C24.8824 26.3571 22.7105 29.95 18.206 34.8032L15.0152 38.2352C14.9348 38.3157 14.8544 38.3961 14.6667 38.3961ZM7.07861 26.1962C7.40037 26.5716 7.90981 26.3035 7.72212 25.7672C7.4808 25.1505 7.37355 24.5606 7.37355 24.1048C7.37355 22.2547 9.06277 22.4424 9.06277 21.3431C9.06277 20.8873 8.74101 20.5655 8.20475 20.5655C7.2663 20.5655 6.08653 21.5844 6.08653 23.3004C6.08653 24.3998 6.51554 25.4455 7.07861 26.1962Z" fill="#151515"/>
</svg>
