<svg width="43" height="41" viewBox="0 0 43 41" fill="none" xmlns="http://www.w3.org/2000/svg">
<path d="M20.4793 40.9586C24.4328 40.9586 28.3371 39.7309 31.3574 37.7664L29.393 33.9358C27.1339 35.4582 24.0399 36.6123 20.4793 36.6123C11.492 36.6123 4.34633 29.4421 4.34633 20.4793C4.34633 11.492 11.4674 4.32178 20.4548 4.32178C29.4421 4.32178 36.6123 11.492 36.6123 20.4793C36.6123 21.7808 36.4404 23.0085 36.3422 23.5242C36.7351 23.8925 37.0789 24.2854 37.4226 24.8257C38.2821 24.5555 39.3625 24.4328 40.5166 24.6538C40.7868 23.5242 40.9586 22.1 40.9586 20.4793C40.9586 9.33111 31.6275 0 20.4548 0C9.28199 0 0 9.30655 0 20.4793C0 31.6275 9.33111 40.9586 20.4793 40.9586ZM7.78411 16.4277C7.98055 16.5013 8.52077 16.5259 8.76633 16.1575C10.3133 13.9721 12.4497 12.2287 14.5369 11.2955C15.0525 11.05 15.249 10.608 15.028 9.99411C14.8807 9.62577 14.3404 9.35566 13.923 9.47844C10.8781 10.3624 8.44711 12.6952 7.41577 15.3963C7.26844 15.8383 7.44033 16.2803 7.78411 16.4277ZM33.2728 16.9679C33.6656 17.1643 33.9358 17.0661 34.1077 16.7469C34.255 16.5259 34.2795 16.133 34.0094 15.9365C32.1432 14.365 29.9087 13.4564 27.625 13.4564C26.9374 13.4564 26.1762 13.5055 25.4395 13.702C24.7765 13.8739 24.5801 14.3895 24.6538 14.8561C24.752 15.3963 25.194 15.8383 25.7097 15.7401C26.3481 15.6419 26.4954 15.6419 27.1584 15.6419C29.0492 15.6419 31.2592 16.0102 33.2728 16.9679ZM14.586 22.4192C16.0102 22.4192 17.0907 20.8968 17.0907 19.0305C17.0907 17.1643 15.9857 15.6173 14.586 15.6173C13.26 15.6173 12.2287 17.2134 12.2287 19.0305C12.2287 20.8722 13.26 22.4192 14.586 22.4192ZM24.531 21.216C25.3659 21.0441 26.4709 20.8968 27.8214 20.8968C28.2143 20.8968 28.4353 20.8968 29.7613 20.995C30.6944 21.0687 31.1119 19.8654 30.2524 19.3989C29.2702 18.8832 28.0424 18.5149 26.6428 18.5149C25.6605 18.5149 24.6783 18.7113 23.7943 19.0551C22.5911 19.5217 23.0331 21.5598 24.531 21.216ZM33.4692 36.7842C35.6792 35.9248 37.5209 35.139 38.7486 34.6233C40.664 33.8375 42.0145 32.8799 42.7266 31.0873C43.4879 29.1965 42.6039 27.5513 40.7622 26.9129C39.4853 26.4463 38.1593 26.6428 36.8333 27.4531C36.7105 27.5268 36.686 27.4531 36.6614 27.3794C36.1212 25.857 35.2618 24.8993 34.0585 24.4573C32.1432 23.7943 30.4243 24.5064 29.7368 26.3481C29.2457 27.7232 29.5403 29.7122 30.5471 31.6767C31.5048 33.5183 32.3888 35.1881 33.15 36.6614C33.2482 36.8333 33.2973 36.8579 33.4692 36.7842ZM21.0195 34.476C22.7384 34.4023 26.2744 33.6902 26.2744 32.045C26.2744 30.498 23.7207 30.7927 23.7207 29.8104C23.7207 28.8528 26.2744 29.172 26.2744 27.625C26.2744 26.0289 22.7875 25.2185 21.0687 25.1203C20.6758 25.0958 20.4548 25.3904 20.4548 25.636C20.4548 25.9798 20.6512 26.2008 20.9459 26.2253C22.0754 26.299 23.205 26.741 23.205 27.4531C23.205 28.3371 20.9459 28.7545 20.9459 29.8104C20.9459 30.8172 23.205 31.2347 23.205 32.1678C23.205 32.9535 21.9035 33.2728 20.9704 33.3464C20.6267 33.371 20.4548 33.7639 20.4548 33.9112C20.4548 34.255 20.6512 34.5005 21.0195 34.476ZM31.382 29.8841C31.0628 28.8528 30.8909 27.8705 31.2101 26.9865C31.5539 26.0043 32.3396 25.5623 33.15 25.7097C33.592 25.7833 33.813 26.078 33.7393 26.3727C33.6411 26.7901 32.6343 26.5445 32.1432 27.5513C31.8976 28.0179 31.6767 28.7545 31.7012 29.8595C31.7012 30.1051 31.4557 30.1051 31.382 29.8841Z" fill="#FFEA00"/>
</svg>
