<svg width="151" height="91" viewBox="0 0 151 91" fill="none" xmlns="http://www.w3.org/2000/svg">
<path d="M92.4302 0.2938C84.4336 1.32293 73.1085 4.85137 64.3001 9.0659C43.3142 19.1612 24.845 34.6961 15.8337 49.888C15.7931 49.986 14.6971 49.0059 13.4388 47.6827C10.3132 44.3993 8.3242 42.6841 7.10645 42.3411C5.60456 41.9 4.46799 43.8603 4.14325 47.3887C3.33142 56.6999 2.9255 60.1793 1.42361 71.0097C-0.403015 84.5844 -0.443607 87.7208 1.13947 89.289C2.56018 90.6611 4.46799 90.2201 10.435 87.1817C17.2544 83.6533 24.6421 80.7129 33.1663 78.0176C41.0005 75.5672 41.4876 75.3712 42.0965 73.901C42.7865 72.4309 41.8529 71.1077 37.7532 67.5302C32.9228 63.4137 31.5426 61.7965 31.5426 60.2773C31.5426 58.9052 35.1959 54.4456 41.7312 47.7318C51.2296 38.0775 65.2338 28.0313 75.7876 23.3267C80.9833 21.0234 90.1165 18.3281 97.3012 17.0539C108.505 14.9956 121.331 15.6817 128.963 18.6221C136.919 21.7585 144.266 28.7664 146.701 35.5292C147.148 36.8524 147.391 38.9106 147.391 42.096C147.432 46.3106 147.513 46.7516 148.203 46.7516C150.03 46.7516 151.126 36.2153 149.908 30.3346C146.62 14.6036 133.387 3.92026 113.213 0.685852C109.032 -0.000236511 96.4488 -0.24527 92.4302 0.2938ZM116.379 4.75336C130.505 7.84075 141.506 15.6817 145.605 25.63C147.351 29.8445 147.107 30.2856 144.753 27.1982C139.476 20.2393 132.778 16.0248 123.483 13.8195C117.881 12.4963 103.877 12.6433 96.1646 14.0645C88.8175 15.4367 79.1567 18.4261 74.1639 20.7784C65.3149 24.9929 54.274 32.5398 45.8309 40.1848C40.6758 44.8404 30.9338 55.4257 29.8784 57.484C28.0112 61.1594 29.3507 63.8548 35.6018 69.0004C39.2145 71.9898 39.9451 72.8229 39.5392 73.313C39.4174 73.411 36.576 74.3911 33.2069 75.4692C24.8044 78.0666 17.7821 80.9089 11.0438 84.3393C7.79651 86.0056 4.67095 87.2797 3.73734 87.3287L2.11367 87.4267L1.99189 85.0744C1.91071 83.8003 2.51959 78.1646 3.29083 72.5779C4.06207 66.9912 5.07686 58.8071 5.56396 54.3476C6.45698 45.7225 6.57876 45.0364 7.10645 45.0364C7.26882 45.0364 9.25781 46.7026 11.4498 48.7119C13.6823 50.7211 15.8337 52.3873 16.2802 52.3873C16.7673 52.3873 19.0404 49.888 22.166 45.9675C27.5241 39.2047 30.6902 35.8723 36.4137 31.0207C54.1928 15.9268 73.6768 6.51759 93.242 3.67522C94.0133 3.57721 98.5189 3.52821 103.187 3.62622C109.6 3.72423 112.848 4.01826 116.379 4.75336Z" fill="white"/>
</svg>
