<svg width="1440" height="180" viewBox="0 0 1440 180" fill="none" xmlns="http://www.w3.org/2000/svg">
<path d="M-50 -50H170V80C170 135.228 125.228 180 70 180H50C-5.22848 180 -50 135.228 -50 80V-50Z" fill="#11A858"/>
<path d="M170 -50H390V80C390 135.228 345.228 180 290 180H270C214.772 180 170 135.228 170 80V-50Z" fill="#11A858"/>
<path d="M390 -50H610V80C610 135.228 565.228 180 510 180H490C434.772 180 390 135.228 390 80V-50Z" fill="#11A858"/>
<path d="M610 -50H830V80C830 135.228 785.228 180 730 180H710C654.772 180 610 135.228 610 80V-50Z" fill="#11A858"/>
<path d="M830 -50H1050V80C1050 135.228 1005.23 180 950 180H930C874.772 180 830 135.228 830 80V-50Z" fill="#11A858"/>
<path d="M1050 -50H1270V80C1270 135.228 1225.23 180 1170 180H1150C1094.77 180 1050 135.228 1050 80V-50Z" fill="#11A858"/>
<path d="M1270 -50H1490V80C1490 135.228 1445.23 180 1390 180H1370C1314.77 180 1270 135.228 1270 80V-50Z" fill="#11A858"/>
</svg>
