<svg width="1540" height="150" viewBox="0 0 1540 150" fill="none" xmlns="http://www.w3.org/2000/svg">
<path d="M0 0H220V50C220 105.228 175.228 150 120 150H100C44.7715 150 0 105.228 0 50V0Z" fill="#FFEA00"/>
<path d="M220 0H440V50C440 105.228 395.228 150 340 150H320C264.772 150 220 105.228 220 50V0Z" fill="#FFEA00"/>
<path d="M440 0H660V50C660 105.228 615.228 150 560 150H540C484.772 150 440 105.228 440 50V0Z" fill="#FFEA00"/>
<path d="M660 0H880V50C880 105.228 835.228 150 780 150H760C704.772 150 660 105.228 660 50V0Z" fill="#FFEA00"/>
<path d="M880 0H1100V50C1100 105.228 1055.23 150 1000 150H980C924.772 150 880 105.228 880 50V0Z" fill="#FFEA00"/>
<path d="M1100 0H1320V50C1320 105.228 1275.23 150 1220 150H1200C1144.77 150 1100 105.228 1100 50V0Z" fill="#FFEA00"/>
<path d="M1320 0H1540V50C1540 105.228 1495.23 150 1440 150H1420C1364.77 150 1320 105.228 1320 50V0Z" fill="#FFEA00"/>
</svg>
