<svg width="200" height="70" viewBox="0 0 200 70" fill="none" xmlns="http://www.w3.org/2000/svg">
<path d="M155 11.6909C182.111 1.52014 200 -8.56088 200 11.768C200 43.9287 155.228 70.0004 100 70.0004C44.7717 70.0004 0.000258149 43.9287 0 11.768C0 -8.56088 17.8893 1.52014 45 11.6909V25.0004C45.0002 30.5231 49.4773 35.0004 55 35.0004C60.5227 35.0004 64.9998 30.5231 65 25.0004V18.3354C72.9077 20.5415 81.2892 22.2983 90 23.0952V33.0004C90.0002 38.5231 94.4773 43.0004 100 43.0004C105.523 43.0004 110 38.5231 110 33.0004V23.0952C118.711 22.2983 127.092 20.5415 135 18.3354V24.9995C135 30.5223 139.477 34.9995 145 34.9995C150.523 34.9995 155 30.5223 155 24.9995V11.6909Z" fill="#151515"/>
<mask id="mask0_59_3152" style="mask-type:alpha" maskUnits="userSpaceOnUse" x="0" y="0" width="200" height="70">
<path d="M200 11.7677C200 43.9285 155.228 70 100 70C44.7715 70 0 43.9285 0 11.7677C0 -20.3931 44.7715 23.5617 100 23.5617C155.228 23.5617 200 -20.3931 200 11.7677Z" fill="#151515"/>
</mask>
<g mask="url(#mask0_59_3152)">
<rect x="45" y="-15" width="20" height="50" rx="10" fill="white"/>
<rect x="89" y="-7" width="22" height="57" rx="11" fill="white"/>
<rect x="135" y="-15.0001" width="20" height="50" rx="10" fill="white"/>
</g>
</svg>
