<svg width="64" height="73" viewBox="0 0 64 73" fill="none" xmlns="http://www.w3.org/2000/svg">
<path d="M63.1001 44.6529C61.9503 46.5093 59.2508 48.4158 55.2514 50.222C53.6017 50.9746 52.2019 51.6268 52.1019 51.677C52.0519 51.7271 52.7018 52.9313 53.5517 54.3863C57.1511 60.2062 55.2014 66.4777 49.7523 66.4777C45.9529 66.4777 38.804 60.4069 35.0046 53.9849L32.855 50.3223L30.5553 54.7375C27.2558 61.2096 23.2565 65.2735 17.1075 68.3842C10.6085 71.6955 6.65911 73 3.00969 73C-1.48959 73 -0.839697 71.7959 4.25949 70.5416C10.3085 69.0364 19.3071 63.8186 22.9565 59.6543C24.9562 57.3464 27.8058 52.0282 29.8554 46.6598C30.7053 44.3519 30.9053 44.1512 32.455 44.1512C34.0548 44.1512 34.2047 44.3519 36.4544 48.7168C40.0038 55.6405 44.1032 60.457 48.0525 62.2632C50.3522 63.2667 51.502 62.6646 51.502 60.3567C51.502 58.5003 50.9021 57.2962 48.2025 54.0852C44.853 50.1216 45.403 48.7168 50.7521 47.4625C53.7016 46.7601 59.2508 43.7498 59.7007 42.646C60.2006 41.2914 57.651 40.1876 53.6516 39.9869C51.1021 39.8364 48.5025 40.1375 45.003 40.89C40.9537 41.8433 39.9038 41.9436 39.2539 41.3918C37.9541 40.288 38.4041 39.1842 41.5536 36.1237C47.6026 30.1031 52.7018 21.7746 55.3014 13.5464C56.4012 10.1347 56.5512 8.78007 56.4012 4.76632C56.3012 0.80275 56.3512 6.71982e-07 57.0011 6.79731e-07C59.1508 7.05366e-07 60.2506 10.0845 58.7008 15.3526C57.2511 20.3196 49.9522 33.4144 48.0025 34.6186C47.7526 34.7691 47.5026 35.2206 47.5026 35.5718C47.5026 36.0234 48.8024 36.1739 52.6518 36.1739C57.0511 36.1237 58.0509 36.2742 59.9007 37.2777C62.0003 38.3814 64 40.89 64 42.3952C64 42.7966 63.6001 43.8 63.1001 44.6529Z" fill="white"/>
</svg>
