<svg width="120" height="120" viewBox="0 0 120 120" fill="none" xmlns="http://www.w3.org/2000/svg">
<g clip-path="url(#clip0_59_3352)">
<path d="M59.5813 22.5L57.5 20L5 100H41.25L57.5438 75.1687L59.5813 70.7562V22.5Z" fill="white"/>
<path d="M57.5 20H90V100H57.5V20Z" fill="white"/>
<path d="M22.5 50C30.7843 50 37.5 43.2843 37.5 35C37.5 26.7157 30.7843 20 22.5 20C14.2157 20 7.5 26.7157 7.5 35C7.5 43.2843 14.2157 50 22.5 50Z" fill="white"/>
<path d="M92.5 77.5L90 100C77.575 100 67.5 89.925 67.5 77.5C67.5 65.075 77.575 55 90 55L92.5 77.5Z" fill="white"/>
<path d="M72.5 37.5C72.5 27.8375 80.3375 20 90 20L93.125 37.5L90 55C80.3375 55 72.5 47.1625 72.5 37.5Z" fill="white"/>
<path d="M90 20C99.6625 20 107.5 27.8375 107.5 37.5C107.5 47.1625 99.6625 55 90 55" fill="white"/>
<path d="M90 55C102.425 55 112.5 65.075 112.5 77.5C112.5 89.925 102.425 100 90 100" fill="white"/>
</g>
<defs>
<clipPath id="clip0_59_3352">
<rect width="120" height="120" fill="white"/>
</clipPath>
</defs>
</svg>
