<svg width="43" height="44" viewBox="0 0 43 44" fill="none" xmlns="http://www.w3.org/2000/svg">
<path d="M16.0204 43.9915C25.0213 43.9915 29.0958 39.1803 31.7201 35.474C32.7791 34.0007 33.9531 32.7346 35.3113 31.6527C36.6234 30.5938 38.2579 29.788 40.3066 29.3046C41.9411 28.9363 43 27.5781 43 25.9897C43 22.9971 40.3527 20.8793 36.7385 20.8793C34.5056 20.8793 32.756 21.6619 30.4771 23.6877C29.9246 24.1711 29.5562 24.3783 29.3951 24.3783C29.234 24.3783 29.1189 24.1711 29.1189 23.6877V5.06443C29.1189 2.25597 27.0701 0 24.4688 0H24.4458C21.8215 0 19.7036 2.23295 19.7036 5.06443V12.6841C19.1511 12.615 18.6907 12.615 18.2303 12.615C16.9412 12.615 15.7672 13.1675 14.8234 14.1804C14.1788 13.766 13.258 13.5128 12.3602 13.5128C11.8077 13.5128 11.0941 13.6049 10.3344 13.8351L9.29853 9.62241C8.74605 7.41248 7.01954 6.05429 4.76357 6.05429C1.58679 6.05429 -0.577101 8.95483 0.136522 12.0856L1.81699 19.452C2.53062 22.5367 2.02417 24.4013 2.02417 26.7724C2.02417 37.776 7.38786 43.9915 16.0204 43.9915ZM16.0204 40.3773C9.27551 40.3773 5.47719 35.5431 5.47719 26.7494C5.47719 24.4474 6.30592 22.8129 5.31605 18.6003L3.58954 11.441C3.33632 10.29 3.81974 9.55335 4.71753 9.55335C5.33907 9.55335 5.68437 9.89865 5.82249 10.4742L9.32155 25.0689C9.85102 27.3249 11.3013 28.4529 13.1199 28.4529C14.6622 28.4529 15.4449 27.6472 16.2046 27.6472C16.8491 27.6472 17.4707 28.2457 18.9209 28.2457C21.5452 28.2457 23.2257 26.1739 23.2257 23.7338V4.92631C23.2257 4.05154 23.7091 3.49906 24.4458 3.49906H24.4688C25.1824 3.49906 25.6198 4.05154 25.6198 4.92631V23.6417C25.6198 26.9335 27.1622 28.0385 28.9577 28.0385C30.4771 28.0385 31.8813 27.1177 32.756 26.4041C34.2524 25.161 35.2422 24.3323 37.0838 24.3323C38.442 24.3323 39.524 24.9308 39.524 25.6905C39.524 25.8976 39.4089 26.0127 39.1556 26.0588C37.4752 26.3811 35.1041 27.394 33.3776 28.7291C31.9964 29.765 30.4771 31.3764 29.0038 33.3562C26.2874 37.0164 23.2487 40.3773 16.0204 40.3773ZM18.7368 24.7927C18.0922 24.7927 17.7239 24.3553 17.6779 23.6647L17.0793 17.6564C17.0103 16.7587 17.5858 16.1141 18.3915 16.1141C19.2202 16.1141 19.7727 16.7126 19.7727 17.4953V23.6187C19.7727 24.3783 19.4504 24.7927 18.7368 24.7927ZM13.4652 24.9999C12.9818 24.9999 12.6365 24.7006 12.5214 24.1251L11.3013 18.255C11.1401 17.4953 11.6236 16.9658 12.2451 16.9658C12.7976 16.9658 13.281 17.3111 13.3731 18.0017L14.2709 23.8719C14.386 24.5625 13.9716 24.9999 13.4652 24.9999Z" fill="#F25144"/>
</svg>
