<svg width="43" height="43" viewBox="0 0 43 43" fill="none" xmlns="http://www.w3.org/2000/svg">
<path d="M15.7512 43C31.3735 43 43 31.3735 43 15.7512C43 5.28477 37.6637 0 27.2488 0C11.6265 0 0 11.6007 0 27.2488C0 37.6637 5.31055 43 15.7512 43ZM29.3885 4.66607C35.0084 5.18165 37.7668 7.94005 38.3339 13.5342C36.1427 10.1055 32.8687 6.80576 29.3885 4.66607ZM24.2068 7.39868C24.0779 7.45024 23.949 7.5018 23.8201 7.57914C23.5366 7.34712 23.2272 7.16667 22.9179 6.98621C22.7374 6.85731 22.4281 6.88309 22.196 7.03777L20.5719 7.99161C20.2368 8.19784 20.3657 8.53297 20.5977 8.68765C20.7782 8.81655 20.9329 8.94544 21.1133 9.04856C20.5977 9.35791 20.1079 9.69305 19.6181 10.0282C19.3603 9.82194 19.1283 9.64149 18.8963 9.48681C18.6127 9.30636 18.4323 9.38369 18.226 9.53837L16.8339 10.6211C16.5504 10.8531 16.6277 11.1367 16.8339 11.3171C17.0144 11.446 17.1948 11.6007 17.3753 11.7296C16.7566 12.2452 16.1637 12.7608 15.5965 13.3279C15.3387 13.1475 15.1067 12.9928 14.8747 12.8381C14.6942 12.7608 14.4107 12.6835 14.1787 12.9412L13.0701 14.2044C12.8124 14.488 12.8639 14.72 13.1475 14.9263C13.3537 15.0552 13.5342 15.1841 13.7146 15.313C13.2764 15.8028 12.8639 16.3183 12.4514 16.8339C12.2194 16.705 11.9874 16.5504 11.7554 16.4215C11.6007 16.3441 11.3171 16.3699 11.1625 16.5761L10.0797 18.0198C9.84772 18.3291 9.89928 18.5096 10.2086 18.7158C10.4406 18.8447 10.6469 18.9736 10.8531 19.1025C10.6469 19.4377 10.4406 19.7728 10.2344 20.1079C9.84772 20.7008 9.8735 21.0875 10.2344 21.3453L10.6211 21.6289C10.3375 22.1187 10.054 22.6085 9.79616 23.1241C8.3783 22.1445 6.93465 21.268 5.46523 20.5719C7.81115 12.1421 14.6169 6.13549 23.5624 4.82074C24.774 5.38789 25.9341 6.03237 27.0426 6.7542C26.5012 6.93465 25.9856 7.14089 25.4442 7.3729C25.0576 7.14089 24.774 7.11511 24.2068 7.39868ZM11.9101 22.5054C12.4257 22.8663 12.8124 22.8405 13.1475 22.2992C13.3795 21.9382 13.6115 21.5516 13.8435 21.1906C14.2302 21.4742 14.5911 21.7578 14.9263 22.0414C15.1583 22.2218 15.3903 22.2992 15.5965 21.9898L16.6535 20.4946C16.8855 20.1853 16.8339 20.0048 16.5504 19.7728C16.2152 19.4892 15.8543 19.2056 15.4934 18.9221C15.8543 18.4838 16.2152 18.0456 16.5761 17.6331C16.9113 17.9167 17.2464 18.2002 17.5558 18.4838C17.762 18.69 17.994 18.7158 18.226 18.458L19.515 17.0917C19.6954 16.9113 19.6439 16.6535 19.4634 16.473C19.1541 16.1637 18.8447 15.8801 18.5354 15.6223C19.0252 15.1325 19.5665 14.6685 20.1079 14.2302C20.3657 14.488 20.6493 14.7974 20.9586 15.1067C21.1649 15.313 21.3453 15.313 21.6289 15.0809L23.0983 13.9209C23.3046 13.7662 23.2788 13.4568 23.0725 13.2248C22.8405 12.9928 22.6085 12.7608 22.3765 12.5288C22.9179 12.1421 23.485 11.7812 24.0522 11.446C24.2584 11.6523 24.4646 11.8327 24.6709 12.039C24.8255 12.1936 25.1607 12.1936 25.4185 12.0647L27.1715 11.1367C27.4808 10.982 27.3519 10.6984 27.1199 10.4922C26.9652 10.3375 26.8106 10.1829 26.6817 10.0282C26.7848 9.97662 26.8879 9.92506 27.0168 9.8735C27.5324 9.64149 27.7128 8.89389 27.1199 8.50719L26.991 8.40408C27.5324 8.19784 28.0995 8.01739 28.6667 7.86271C32.6367 10.8273 35.8591 14.7716 38.205 19.2056C36.9934 28.1253 31.0899 34.9568 22.789 37.4317C19.6697 32.2758 15.5707 27.5066 11.0078 24.0006C11.2656 23.485 11.5492 22.9952 11.8585 22.4796L11.9101 22.5054ZM4.56295 27.2488C4.56295 26.8621 4.58873 26.5012 4.58873 26.1403C5.54257 26.6817 6.52218 27.3519 7.47602 28.0995C6.72842 29.9814 6.16127 31.8375 5.72302 33.6163C4.94964 31.9664 4.56295 29.8525 4.56295 27.2488ZM15.7512 38.4113C11.6007 38.4113 8.71343 37.4832 6.90887 35.4466C7.29556 33.4359 7.91427 31.2962 8.73921 29.0791C11.807 31.6829 14.7716 35.06 16.7308 38.4113C16.4215 38.4113 16.0863 38.4113 15.7512 38.4113Z" fill="#D9FF01"/>
</svg>
