<svg width="1540" height="230" viewBox="0 0 1540 230" fill="none" xmlns="http://www.w3.org/2000/svg">
<path d="M0 230H220V100C220 44.7715 175.228 0 120 0H100C44.7715 0 0 44.7715 0 100V230Z" fill="white"/>
<path d="M220 230H440V100C440 44.7715 395.228 0 340 0H320C264.772 0 220 44.7715 220 100V230Z" fill="white"/>
<path d="M440 230H660V100C660 44.7715 615.228 0 560 0H540C484.772 0 440 44.7715 440 100V230Z" fill="white"/>
<path d="M660 230H880V100C880 44.7715 835.228 0 780 0H760C704.772 0 660 44.7715 660 100V230Z" fill="white"/>
<path d="M880 230H1100V100C1100 44.7715 1055.23 0 1000 0H980C924.772 0 880 44.7715 880 100V230Z" fill="white"/>
<path d="M1100 230H1320V100C1320 44.7715 1275.23 0 1220 0H1200C1144.77 0 1100 44.7715 1100 100V230Z" fill="white"/>
<path d="M1320 230H1540V100C1540 44.7715 1495.23 0 1440 0H1420C1364.77 0 1320 44.7715 1320 100V230Z" fill="white"/>
</svg>
