<svg width="1440" height="755" viewBox="0 0 1440 755" fill="none" xmlns="http://www.w3.org/2000/svg">
<g clip-path="url(#clip0_59_3824)">
<rect width="1440" height="755" fill="white"/>
<ellipse cx="720" cy="748" rx="720" ry="721" fill="#151515"/>
<path d="M217 154L285.5 173.5L217 241V154Z" fill="#151515"/>
<path d="M121 277.972L191.129 290.399L129.855 364.52L121 277.972Z" fill="#151515"/>
<path d="M40 417.438L110.843 410.106L72.308 498.217L40 417.438Z" fill="#151515"/>
<path d="M1222.5 154L1154 173.5L1222.5 241V154Z" fill="#151515"/>
<path d="M1318.5 277.972L1248.37 290.399L1309.64 364.52L1318.5 277.972Z" fill="#151515"/>
<path d="M1399.5 417.438L1328.66 410.106L1367.19 498.217L1399.5 417.438Z" fill="#151515"/>
<circle cx="630" cy="541" r="75" fill="white"/>
<circle cx="630" cy="541" r="54" fill="#151515"/>
<circle cx="810" cy="541" r="75" fill="white"/>
<circle cx="810" cy="541" r="54" fill="#151515"/>
<ellipse cx="719.5" cy="666" rx="17.5" ry="12" fill="white"/>
</g>
<defs>
<clipPath id="clip0_59_3824">
<rect width="1440" height="755" fill="white"/>
</clipPath>
</defs>
</svg>
