<svg width="44" height="37" viewBox="0 0 44 37" fill="none" xmlns="http://www.w3.org/2000/svg">
<path d="M16.9845 33.8336C19.4129 33.1828 20.2284 31.4627 20.9289 31.275C21.2325 31.1937 21.6733 31.2508 21.9318 31.2816L21.9568 31.375C21.3877 32.0531 21.1368 33.1714 21.4183 34.2222C21.9502 36.207 24.0227 37.4036 26.7547 36.6716C27.6187 36.4401 28.9076 36.0196 30.4254 35.6129C34.395 34.5493 36.5971 34.7351 37.9281 34.3784C39.9596 33.8341 41.4778 32.4012 42.5663 29.832C43.7899 26.9264 44.119 23.4845 43.4245 20.8926C42.4109 17.1098 40.7653 14.7977 39.1088 12.5386C37.8736 10.9175 36.6559 9.642 35.7924 6.41959L35.4858 5.2754C34.4597 1.44588 30.8989 -0.728408 27.3496 0.222629C24.4541 0.998475 23.1908 3.2891 22.5603 3.45803C21.9065 3.63322 19.6621 1.98214 16.6265 2.79553C12.7503 3.83416 11.7858 8.54746 10.8922 8.76186C10.4719 8.87449 9.78802 8.65729 8.90069 8.89505C4.88435 9.97123 5.46268 14.3712 3.73472 14.8342C0.862575 15.6038 -0.614988 18.4024 0.242196 21.6014C0.648889 23.1192 1.96605 26.8207 3.56846 30.7461C4.793 33.8217 7.30997 34.2485 9.38819 33.6916C10.4857 33.3975 11.3133 32.7503 11.6169 32.669C12.0839 32.5438 13.9255 34.6532 16.9845 33.8336ZM16.091 30.2188C14.8363 30.58 13.8826 30.0096 13.3608 28.6228C12.8532 27.3823 11.5753 23.9206 11.0206 22.3173C10.6189 21.0985 9.75859 20.5031 8.70781 20.7846C7.68037 21.0599 7.188 22.1179 7.59592 23.3601C8.24451 25.3136 8.95063 27.2016 9.84568 29.5146C9.47833 29.6381 9.11891 29.8845 8.72194 29.9909C7.69451 30.2662 7.25665 30.0331 6.83957 28.9436C5.31515 25.1224 4.43384 22.5806 3.93955 20.7358C3.6142 19.5216 3.99317 18.6943 5.16071 18.3814C8.68667 17.4366 7.60547 13.1213 9.94055 12.4957C10.5243 12.3392 11.448 12.5172 12.4287 12.2544C15.4643 11.441 15.2442 7.07019 17.696 6.41322C19.7976 5.85011 21.0082 7.75314 23.4367 7.10243C25.655 6.50803 25.8037 4.54109 27.882 3.98423C29.68 3.50245 31.3755 4.59982 31.9074 6.58463L32.1702 7.56537C33.0273 10.7644 34.0064 15.6327 34.682 20.5823C34.9018 22.1501 34.1731 23.4466 32.8421 23.8032C31.1608 24.2537 29.8689 23.4486 29.4293 21.7144C28.8082 19.303 28.0602 16.325 26.9036 12.7556C26.527 11.6302 25.6029 11.077 24.6689 11.3272C23.6181 11.6088 23.0882 12.5266 23.4556 13.8047C24.2139 16.3545 25.2663 20.0018 26.0597 23.243C26.5448 25.2403 25.8115 26.6131 24.0135 27.0949C22.4957 27.5015 21.1838 26.902 20.6074 25.4047C19.5968 22.8474 18.7797 20.6387 17.639 17.3154C17.264 16.2896 16.3211 15.6663 15.4338 15.9041C14.313 16.2044 13.8269 17.2857 14.2456 18.4749C15.1787 21.3032 16.2835 24.5861 17.2241 27.1622C17.7521 28.5724 17.2055 29.8951 16.091 30.2188ZM37.0392 30.6873C35.825 31.0127 33.8797 30.7581 29.6065 31.9031C28.3456 32.2409 26.4029 32.8366 26.0993 32.9179C25.3521 33.1181 25.0218 33.0064 24.8842 32.4927C24.4587 30.9048 26.6144 28.6754 29.4398 27.9184C31.121 27.4679 32.498 27.7496 34.0858 27.3242C37.0047 26.5421 38.7208 23.9799 38.1404 20.5065C37.8722 18.8515 37.4012 17.0005 37.0679 15.6633C38.2866 17.6893 39.2141 19.8434 39.6083 21.3145C40.2027 23.5328 40.0265 25.9576 39.0673 28.5422C38.6916 29.5688 38.1134 30.3995 37.0392 30.6873Z" fill="#151515"/>
</svg>
