<svg width="1440" height="230" viewBox="0 0 1440 230" fill="none" xmlns="http://www.w3.org/2000/svg">
<g clip-path="url(#clip0_59_3912)">
<path d="M-50 0H170V130C170 185.228 125.228 230 70 230H50C-5.22848 230 -50 185.228 -50 130V0Z" fill="#151515"/>
<path d="M170 0H390V130C390 185.228 345.228 230 290 230H270C214.772 230 170 185.228 170 130V0Z" fill="#151515"/>
<path d="M390 0H610V130C610 185.228 565.228 230 510 230H490C434.772 230 390 185.228 390 130V0Z" fill="#151515"/>
<path d="M610 0H830V130C830 185.228 785.228 230 730 230H710C654.772 230 610 185.228 610 130V0Z" fill="#151515"/>
<path d="M830 0H1050V130C1050 185.228 1005.23 230 950 230H930C874.772 230 830 185.228 830 130V0Z" fill="#151515"/>
<path d="M1050 0H1270V130C1270 185.228 1225.23 230 1170 230H1150C1094.77 230 1050 185.228 1050 130V0Z" fill="#151515"/>
<path d="M1270 0H1490V130C1490 185.228 1445.23 230 1390 230H1370C1314.77 230 1270 185.228 1270 130V0Z" fill="#151515"/>
</g>
<defs>
<clipPath id="clip0_59_3912">
<rect width="1440" height="230" fill="white"/>
</clipPath>
</defs>
</svg>
