<svg width="45" height="45" viewBox="0 0 45 45" fill="none" xmlns="http://www.w3.org/2000/svg">
<path d="M22.5 45C34.8022 45 45 34.7482 45 22.5C45 10.2248 34.7482 0 22.473 0C10.1978 0 0 10.2248 0 22.5C0 34.7482 10.2248 45 22.5 45ZM22.2302 39.4694C22.554 39.5773 22.9856 39.4964 23.0665 39.1187L23.1205 38.9029C23.2014 38.6061 23.0396 38.2554 22.7428 38.1475C22.5809 38.0935 22.3921 38.0396 22.1763 38.0126C22.3381 37.6349 22.473 37.2572 22.5809 36.8525C22.8777 36.9604 23.1745 37.0144 23.4173 37.0414C23.8489 37.0953 24.1727 36.8795 24.1996 36.4748V36.1241C24.2266 35.7194 24.0378 35.4496 23.687 35.3957C23.4173 35.3687 23.1745 35.3147 22.9047 35.2068C22.9586 34.7752 22.9856 34.3165 22.9856 33.8309C23.2554 33.9389 23.5252 33.9928 23.741 34.0198C24.1996 34.0468 24.4424 33.8309 24.4424 33.4263V32.9946C24.4424 32.5899 24.1996 32.4011 23.8759 32.3471C23.5522 32.2932 23.2014 32.1853 22.8777 32.0234C22.8237 31.5378 22.7158 31.0252 22.6079 30.4856C22.9317 30.5126 23.3094 30.5126 23.6061 30.4586C24.0108 30.4047 24.2266 30.054 24.1457 29.6493L24.0647 29.2716C23.9838 28.8939 23.714 28.732 23.3094 28.759C22.9047 28.813 22.473 28.813 22.1223 28.786C21.9604 28.3004 21.7716 27.7878 21.5558 27.3022C21.9065 27.2482 22.2572 27.1403 22.527 27.0324C22.9317 26.8435 23.1205 26.5468 22.9047 26.1151L22.7158 25.7644C22.5809 25.4676 22.2842 25.2788 21.9335 25.4137C21.4209 25.5755 21.0971 25.6295 20.7734 25.6835C20.4496 25.036 20.0719 24.4155 19.6673 23.8759C20.018 23.741 20.2878 23.5791 20.5845 23.3903C20.8813 23.2014 21.0432 22.7698 20.7464 22.4191L20.5036 22.1493C20.2338 21.8525 19.991 21.7446 19.5863 21.9874C19.2896 22.1223 18.9658 22.3112 18.5881 22.446C18.0755 21.8525 17.536 21.313 16.9964 20.8273C17.2662 20.6385 17.536 20.4496 17.7518 20.2068C18.0755 19.8831 18.0486 19.4245 17.6978 19.1817L17.4011 18.9658C17.1043 18.75 16.7266 18.777 16.4568 19.0468C16.241 19.2626 15.9712 19.4784 15.6205 19.6942C15.1079 19.3165 14.5683 18.9658 14.0558 18.6421C14.2986 18.4263 14.5144 18.1835 14.7032 17.9137C14.9191 17.5899 14.9191 17.1583 14.5414 16.9964L14.2446 16.8615C13.9209 16.6996 13.5971 16.7536 13.4083 17.0234C13.1924 17.3201 12.9496 17.5899 12.6529 17.8867C12.3831 17.7248 12.0594 17.5899 11.7626 17.4281C11.9245 17.2392 12.0863 17.0504 12.2482 16.8345C12.545 16.4299 12.464 16.1601 12.0863 15.9712L11.8165 15.8363C11.4928 15.6745 11.196 15.7284 10.9532 16.0791C10.7914 16.3219 10.5755 16.5647 10.3597 16.8076C10.1169 16.6996 9.84712 16.5917 9.57734 16.4838C9.73921 16.214 9.90108 15.8903 10.009 15.5665C10.1439 15.2698 10.0629 14.973 9.73921 14.8651L9.36151 14.7302C9.06475 14.6493 8.84892 14.7842 8.68705 15.1349C8.55216 15.4586 8.41727 15.7284 8.28237 15.9712C8.09352 15.8903 7.90468 15.8363 7.71583 15.7554C7.85072 15.5396 7.95863 15.2968 8.06655 15.027C8.17446 14.7032 8.1205 14.3795 7.76978 14.2716L7.52698 14.1906C7.20324 14.0827 6.93345 14.2716 6.82554 14.5683C6.71763 14.8381 6.60971 15.0809 6.47482 15.2968C6.39388 15.2698 6.33993 15.2428 6.28597 15.2158C9.01079 9.03777 15.1619 4.7482 22.446 4.7482C23.5252 4.7482 24.5773 4.85611 25.6025 5.01799C25.6835 5.31475 25.7374 5.61151 25.8183 5.88129C25.6565 5.85432 25.4676 5.85432 25.2788 5.85432C24.955 5.85432 24.7662 6.01619 24.7662 6.36691L24.7932 6.69065C24.7932 7.01439 25.063 7.23022 25.3597 7.23022C25.6835 7.23022 25.9532 7.25719 26.196 7.28417C26.277 7.60791 26.3579 7.93165 26.4658 8.22842C26.25 8.20144 26.0072 8.17446 25.7374 8.17446C25.3597 8.17446 25.0899 8.41727 25.1978 8.84892L25.2788 9.17266C25.3597 9.55036 25.5486 9.68525 25.9263 9.68525C26.277 9.68525 26.5737 9.71223 26.9245 9.76619C27.0324 10.1169 27.1403 10.4946 27.2752 10.8453C26.9784 10.8183 26.6547 10.8453 26.3309 10.8723C25.9263 10.8993 25.7914 11.1151 25.8453 11.4388L25.9263 11.8705C26.0342 12.3831 26.25 12.464 26.6007 12.437C27.0863 12.4101 27.437 12.437 27.8417 12.491C28.0306 12.9766 28.2194 13.4353 28.4083 13.8939C28.0845 13.9209 27.7608 13.9209 27.3831 14.0018C26.9514 14.0827 26.8165 14.3795 26.9514 14.7302L27.1403 15.1888C27.2752 15.5126 27.464 15.6205 27.8687 15.5665C28.3273 15.5396 28.705 15.4856 29.1097 15.4856C29.3795 16.0791 29.7032 16.6727 30.027 17.2662C29.6763 17.2662 29.2986 17.2932 28.8669 17.3741C28.5162 17.4281 28.3813 17.7518 28.5432 18.1025L28.759 18.6421C28.8939 18.9388 29.1637 19.0468 29.5144 18.9928C30.1079 18.8579 30.5396 18.8309 30.9442 18.8579C31.241 19.3435 31.5378 19.8022 31.8345 20.2338C31.4568 20.2878 31.1601 20.3957 30.8903 20.5036C30.4586 20.6924 30.2428 21.0162 30.5396 21.4209L30.7824 21.7716C30.9442 22.0414 31.214 22.1493 31.5647 22.0414C31.9424 21.9065 32.4281 21.7716 32.8597 21.7176C33.1565 22.1223 33.4532 22.527 33.75 22.9047C33.3993 22.9586 33.0216 23.0665 32.6709 23.1745C32.2932 23.2824 32.2932 23.714 32.509 24.0378L32.8058 24.4694C32.9406 24.6583 33.1835 24.7932 33.5342 24.6853C34.0737 24.5234 34.4784 24.4155 34.991 24.3615C35.2068 24.6043 35.4227 24.8471 35.6655 25.063C35.4496 25.1439 35.2338 25.2518 34.991 25.3867C34.5863 25.5755 34.5054 25.9802 34.8291 26.304L35.045 26.5198C35.2608 26.7626 35.5306 26.7626 35.8543 26.6007C36.205 26.4388 36.5018 26.304 36.8525 26.196C37.1223 26.4119 37.3921 26.6277 37.6619 26.8435C37.3921 27.0054 37.1763 27.1942 36.9335 27.437C36.7716 27.6259 36.7446 27.7878 36.9335 28.0036L37.2032 28.3004C37.446 28.5432 37.7698 28.5432 38.1475 28.2194C38.4442 27.9766 38.6331 27.8417 38.8759 27.7068C39.0108 27.8147 39.1727 27.8957 39.3345 28.0036C37.0414 35.0989 30.4047 40.2248 22.473 40.2248C21.9604 40.2248 21.4748 40.2248 20.9622 40.1709C21.1511 39.9281 21.3399 39.6583 21.5018 39.3615C21.7986 39.3885 22.0144 39.4155 22.2302 39.4694ZM39.8741 25.2518C39.982 24.9011 39.9011 24.7662 39.6313 24.5773L39.3345 24.3885C39.0647 24.1996 38.741 24.3345 38.6601 24.5773C38.5522 24.8741 38.4712 25.1439 38.4173 25.4406C38.3094 25.3597 38.1745 25.2518 38.0665 25.1439C38.1205 24.8201 38.2284 24.5234 38.4173 24.2266C38.6061 23.9838 38.5791 23.6061 38.3094 23.3903L38.0665 23.2014C37.7428 22.9317 37.3111 22.9317 37.0683 23.3363C36.9335 23.5522 36.8255 23.768 36.7446 23.9568C36.5558 23.768 36.3669 23.5522 36.1781 23.3363C36.3399 22.9856 36.5558 22.6619 36.7986 22.3921C37.0683 22.0953 37.0414 21.8255 36.7716 21.4748L36.5558 21.1781C36.313 20.8004 35.8004 20.8813 35.5306 21.232C35.3147 21.4748 35.1529 21.7176 35.018 21.9604C34.7212 21.5827 34.4245 21.205 34.1277 20.8004C34.2896 20.4227 34.5594 20.018 34.8561 19.6942C35.1529 19.3975 35.1259 19.1547 34.8561 18.777L34.6403 18.4802C34.3705 18.1025 33.8849 18.1565 33.5881 18.5342C33.3723 18.777 33.2104 19.0198 33.0755 19.2356C32.8327 18.8579 32.563 18.4532 32.3201 18.0216C32.509 17.7248 32.7788 17.455 33.1295 17.1583C33.4532 16.8885 33.3993 16.5917 33.2104 16.241L32.9946 15.8094C32.8058 15.4586 32.4011 15.5126 32.1313 15.7284C31.8345 15.9982 31.6187 16.268 31.4299 16.5108C31.1331 15.9442 30.8363 15.3777 30.5665 14.8381C30.8363 14.5414 31.241 14.2446 31.5108 14.0288C31.8345 13.786 31.8076 13.4892 31.6187 13.1115L31.4838 12.8147C31.3219 12.437 30.9442 12.437 30.6475 12.5989C30.3507 12.7608 30.0809 12.9766 29.8381 13.1924C29.7032 12.8417 29.5683 12.518 29.4335 12.1673C29.7032 11.9784 30 11.8435 30.3507 11.7626C30.7284 11.6547 30.9173 11.3579 30.7554 10.9802L30.6205 10.6565C30.4856 10.3327 30.2968 10.2248 29.8921 10.2788C29.5144 10.3597 29.1637 10.4946 28.8669 10.6835C28.759 10.3327 28.6511 10.009 28.5432 9.68525C28.8399 9.57734 29.0288 9.55036 29.3795 9.52338C29.7842 9.4964 30 9.2536 29.8381 8.8759L29.6763 8.4982C29.5414 8.20144 29.4065 8.03957 29.0288 8.09352C28.705 8.1205 28.4353 8.17446 28.1115 8.28237C28.0306 7.98561 27.9496 7.68885 27.8687 7.39209C28.0576 7.36511 28.2734 7.36511 28.4622 7.39209C28.8399 7.44604 29.0827 7.31115 29.0018 6.90647L28.9478 6.55576C28.8669 6.23201 28.732 6.07014 28.4353 6.04317C28.0576 6.01619 27.7878 6.04317 27.491 6.07014C27.437 5.85432 27.3831 5.63849 27.3291 5.42266C34.8291 7.52698 40.1709 14.3795 40.1978 22.5C40.1978 23.8489 40.036 25.1439 39.7662 26.3849C39.7392 26.3849 39.7122 26.3579 39.6853 26.3309C39.7122 25.9532 39.7932 25.6025 39.8741 25.2518ZM20.3417 34.3435C20.6924 34.3165 21.0432 34.2086 21.3399 34.0737C21.313 34.3975 21.286 34.6942 21.259 35.018C20.9353 35.018 20.6115 34.991 20.3687 34.9101C19.991 34.8022 19.7212 35.018 19.6403 35.3957L19.5594 35.7464C19.4784 36.1511 19.6403 36.4209 20.018 36.5018C20.3687 36.5827 20.6385 36.6097 20.8813 36.6367C20.8004 36.9335 20.6924 37.2302 20.5576 37.527C20.3417 37.4191 20.0989 37.3651 19.8291 37.3111C19.4784 37.2572 19.2086 37.3921 19.1007 37.6619L18.9928 37.9317C18.8579 38.2824 19.0198 38.6601 19.3975 38.687C19.5863 38.714 19.7482 38.741 19.8831 38.8219C19.6403 39.1996 19.3705 39.5773 19.0737 39.9281C10.8723 38.3633 4.7482 31.214 4.7482 22.5C4.7482 20.4766 5.07194 18.5342 5.69245 16.7266L5.90827 16.8076C5.90827 17.2122 5.88129 17.563 5.82734 17.9406C5.77338 18.2374 5.98921 18.4802 6.25899 18.5612L6.42086 18.6151C6.77158 18.75 7.04137 18.5072 7.09532 18.1295C7.1223 17.8597 7.1223 17.536 7.1223 17.2662C7.33813 17.3471 7.55396 17.4011 7.74281 17.482C7.74281 17.8597 7.71583 18.2104 7.63489 18.5881C7.55396 18.9388 7.58094 19.2356 7.90468 19.3165L8.39029 19.4245C8.74101 19.5054 8.92986 19.2356 8.98381 18.8849C9.03777 18.6421 9.06475 18.3453 9.09173 17.9946C9.28058 18.0755 9.46942 18.1565 9.65827 18.2374C9.65827 18.5881 9.68525 19.0198 9.57734 19.5324C9.52338 19.8022 9.60432 20.0719 10.009 20.2338L10.2248 20.3147C10.6025 20.4496 10.8993 20.2338 10.9802 19.8831C11.0612 19.5324 11.0881 19.1817 11.1151 18.8849C11.3849 19.0198 11.6817 19.1547 11.9514 19.2896C11.9514 19.7482 11.9245 20.1799 11.8165 20.5576C11.7626 20.8273 11.8435 21.0701 12.1673 21.313L12.491 21.5558C12.8147 21.7986 13.1655 21.6097 13.2464 21.205C13.3004 20.8004 13.3543 20.4496 13.4083 20.0989C13.8129 20.3687 14.2176 20.6385 14.6223 20.9353C14.4604 21.313 14.2986 21.6097 14.1097 21.9335C13.8939 22.3381 14.0288 22.6349 14.2986 22.8507L14.6223 23.0935C14.946 23.3633 15.2698 23.2284 15.5126 22.8507C15.6745 22.5809 15.8363 22.3112 15.9712 22.0414C16.4568 22.473 16.9155 22.9586 17.3741 23.4712C17.1313 23.8219 16.9155 24.0917 16.6457 24.2806C16.295 24.5773 16.3759 24.9281 16.5917 25.2518L16.8345 25.5755C17.1043 25.9263 17.563 25.8453 17.9137 25.4676C18.1295 25.2788 18.2914 25.0899 18.4263 24.9011C18.75 25.3867 19.0737 25.8993 19.3705 26.4388C19.0737 26.8165 18.804 27.1133 18.5342 27.3561C18.1835 27.6529 18.1835 27.9227 18.3183 28.2194L18.5072 28.5701C18.6691 28.9748 19.1007 29.0288 19.4514 28.786C19.6942 28.5971 19.937 28.3813 20.1529 28.1115C20.3417 28.5432 20.5036 28.9748 20.6385 29.3795C20.3687 29.5953 20.018 29.8112 19.6403 30C19.3165 30.1619 19.1547 30.4047 19.2356 30.8094L19.3165 31.187C19.3975 31.6457 19.7752 31.7536 20.1529 31.5917C20.5306 31.4299 20.8543 31.268 21.0971 31.1331C21.1781 31.5108 21.232 31.8885 21.259 32.2662C20.9622 32.4281 20.6115 32.536 20.2878 32.5899C19.937 32.6709 19.6942 32.9137 19.6942 33.2374V33.6691C19.6942 34.1007 19.9101 34.3975 20.3417 34.3435Z" fill="#151515"/>
</svg>
