<svg width="104" height="99" viewBox="0 0 104 99" fill="none" xmlns="http://www.w3.org/2000/svg">
<path d="M15.1379 1.93127C11.5 5.74817 6.6692 17.7356 8.75656 17.7356C9.8897 17.7356 15.4361 10.6982 16.9867 7.29878C18.7163 3.54153 19.1337 0.440302 17.941 0.0228291C17.5235 -0.156088 16.2711 0.738495 15.1379 1.93127Z" fill="white"/>
<path d="M20.0283 19.7633C18.7162 21.0754 17.8217 25.9658 17.8217 31.7508C17.8217 37.1779 18.1199 38.6093 19.3723 38.6093C20.2669 38.6093 22.4735 31.6911 22.9506 27.3971C23.3084 24.0573 22.5331 19.4055 21.6385 19.1073C21.2211 18.988 20.5054 19.2862 20.0283 19.7633Z" fill="white"/>
<path d="M1.71916 29.3652C1.36132 29.7827 0.705294 31.9297 0.347461 34.017C-0.18929 37.1779 -0.129651 38.5496 0.705294 41.949C1.83843 46.5412 3.03121 48.2707 4.22399 47.078C5.11858 46.1834 5.29749 32.9435 4.52219 30.0809C4.04507 28.2917 2.8523 27.9935 1.71916 29.3652Z" fill="white"/>
<path d="M28.7356 35.3888C27.7217 38.0129 32.1946 49.9407 35.1766 52.6841C36.1904 53.5787 36.3097 53.5787 36.6675 52.7437C36.8464 52.2666 36.6079 49.6425 36.0711 46.9587C34.6398 39.2057 30.0476 31.9894 28.7356 35.3888Z" fill="white"/>
<path d="M17.5832 52.2069C17.1061 53.6979 18.12 58.2305 19.6109 61.451C20.9826 64.4329 24.6802 68.4287 25.9923 68.4287C27.9604 68.4287 25.3959 59.8407 21.8772 54.4136C19.7302 51.1931 18.12 50.3581 17.5832 52.2069Z" fill="white"/>
<path d="M2.31555 61.272C2.31555 63.1805 4.46255 67.8323 6.31136 69.9197C8.93547 72.9016 12.156 74.0944 12.812 72.3052C13.3488 70.8739 10.3072 65.2082 7.38486 62.1666C4.224 58.9461 2.31555 58.5883 2.31555 61.272Z" fill="white"/>
<path d="M41.0809 64.6118C39.4707 66.4606 43.9436 72.007 49.3111 74.8697C55.3346 78.0902 57.422 77.1956 53.9033 72.9016C51.9352 70.4564 46.2695 65.9834 43.1086 64.3732C42.0948 63.8364 41.6177 63.8961 41.0809 64.6118Z" fill="white"/>
<path d="M30.7634 79.5811C28.3182 81.9667 38.3375 89.839 42.9297 89.183C43.705 89.1234 44.4207 88.5866 44.54 88.1095C45.0767 85.2468 32.6718 77.613 30.7634 79.5811Z" fill="white"/>
<path d="M16.0325 81.7283C16.0325 84.5313 23.4278 89.8988 27.3639 89.8988C28.7356 89.8988 29.1531 89.6602 29.1531 88.706C29.1531 86.0223 21.3404 80.3566 17.6428 80.3566C16.3904 80.3566 16.0325 80.6548 16.0325 81.7283Z" fill="white"/>
<path d="M67.2027 83.2192C64.8171 83.5174 63.9225 84.8891 65.175 86.2608C68.5147 89.9584 82.4703 89.541 80.5022 85.7837C79.548 84.1138 72.0334 82.6228 67.2027 83.2192Z" fill="white"/>
<path d="M95.6505 84.1733C87.3607 86.8571 86.6451 90.3758 94.5174 89.7197C99.05 89.3619 104 86.7974 104 84.8294C104 83.8155 103.523 83.6366 101.018 83.5173C99.4078 83.4577 96.9626 83.7559 95.6505 84.1733Z" fill="white"/>
<path d="M52.293 92.6421C51.637 92.821 51.2195 93.5367 51.2195 94.4313C51.2195 95.624 51.7563 96.1608 53.9033 97.115C57.4816 98.6656 61.8353 99.1427 64.5787 98.2482C67.0239 97.4728 67.2028 97.0554 65.6522 95.6837C63.2666 93.5367 55.3943 91.7475 52.293 92.6421Z" fill="white"/>
</svg>
