<svg width="48" height="35" viewBox="0 0 48 35" fill="none" xmlns="http://www.w3.org/2000/svg">
<path d="M39.5087 30.9082C39.5087 33.003 37.8106 34.7021 35.7158 34.7021H10.3017C8.20689 34.7021 6.50873 33.003 6.50873 30.9082V14.6035C6.50875 8.1066 11.7755 2.83993 18.2724 2.83984H27.7451C34.242 2.83993 39.5087 8.1066 39.5087 14.6035V30.9082Z" fill="#F25144"/>
<ellipse cx="17.1483" cy="15.6887" rx="4.63954" ry="7.84884" fill="white"/>
<ellipse cx="28.8692" cy="15.6887" rx="4.63954" ry="7.84884" fill="white"/>
<circle cx="28.0087" cy="17.3398" r="2.5" fill="#151515"/>
<circle cx="16.0087" cy="18.3398" r="2.5" fill="#151515"/>
<ellipse cx="22.9738" cy="27.8979" rx="2.02326" ry="2.75581" fill="#151515"/>
<path d="M7.30719 14.2594H3.69796C3.40387 14.2594 3.16545 14.021 3.16545 13.7269V4.02341M3.16545 4.02341H4.28964C4.58374 4.02341 4.82215 3.785 4.82215 3.49091V1.50879M3.16545 4.02341H2.04127C1.74717 4.02341 1.50876 3.785 1.50876 3.49091V1.50879" stroke="#F25144" stroke-width="3.01755" stroke-linecap="round"/>
<path d="M19.7912 0.170898C19.7912 1.65005 20.7499 3.11551 21.2292 3.66335H18.1477C17.6546 2.18419 19.0379 0.718734 19.7912 0.170898Z" fill="#F25144"/>
<path d="M14.8597 0.992676C15.8868 3.2525 16.6401 3.32098 17.1194 3.86881L14.3465 4.48513C13.8534 3.00597 14.1064 1.54051 14.8597 0.992676Z" fill="#F25144"/>
<path d="M11.3572 3.62988C12.333 4.45164 12.7438 4.86251 13.5656 5.06795L11.0998 6.09514C11.1003 5.27339 10.6895 5.06795 11.3572 3.62988Z" fill="#F25144"/>
<path d="M39.7101 14.2594H43.3194C43.6135 14.2594 43.8519 14.021 43.8519 13.7269V4.02341M43.8519 4.02341H42.7277C42.4336 4.02341 42.1952 3.785 42.1952 3.49091V1.50879M43.8519 4.02341H44.9761C45.2702 4.02341 45.5086 3.785 45.5086 3.49091V1.50879" stroke="#F25144" stroke-width="3.01755" stroke-linecap="round"/>
<path d="M27.1838 0.170898C27.1838 1.65005 26.225 3.11551 25.7457 3.66335H28.8273C29.3203 2.18419 27.937 0.718734 27.1838 0.170898Z" fill="#F25144"/>
<path d="M32.1151 0.992676C31.088 3.2525 30.3347 3.32098 29.8554 3.86881L32.6283 4.48513C33.1214 3.00597 32.8684 1.54051 32.1151 0.992676Z" fill="#F25144"/>
<path d="M35.6177 3.62988C34.642 4.45164 34.2311 4.86251 33.4093 5.06795L35.8751 6.09514C35.8746 5.27339 36.2854 5.06795 35.6177 3.62988Z" fill="#F25144"/>
</svg>
