<svg width="1440" height="755" viewBox="0 0 1440 755" fill="none" xmlns="http://www.w3.org/2000/svg">
<g clip-path="url(#clip0_59_3033)">
<rect width="1440" height="755" fill="white"/>
<ellipse cx="720" cy="1382.5" rx="955" ry="955.5" fill="#5D9BFF"/>
<ellipse cx="636.5" cy="559.5" rx="66.5" ry="92.5" fill="white"/>
<ellipse cx="804.5" cy="559.5" rx="66.5" ry="92.5" fill="white"/>
<circle cx="790.5" cy="589.5" r="22.5" fill="#151515"/>
<circle cx="650.5" cy="589.5" r="22.5" fill="#151515"/>
<path d="M415.347 559.9C413.491 561.05 411.584 563.749 409.778 567.749C409.025 569.398 408.373 570.798 408.323 570.898C408.273 570.948 407.069 570.298 405.614 569.448C399.794 565.849 393.522 567.799 393.522 573.248C393.522 577.047 399.593 584.196 406.015 587.995L409.678 590.145L405.263 592.445C398.79 595.744 394.726 599.744 391.616 605.893C388.304 612.392 387 616.341 387 619.99C387 624.49 388.204 623.84 389.458 618.741C390.964 612.691 396.181 603.693 400.346 600.043C402.654 598.044 407.972 595.194 413.34 593.145C415.648 592.295 415.849 592.095 415.849 590.545C415.849 588.945 415.648 588.795 411.283 586.546C404.359 582.996 399.543 578.897 397.737 574.947C396.733 572.648 397.335 571.498 399.643 571.498C401.5 571.498 402.704 572.098 405.915 574.797C409.878 578.147 411.283 577.597 412.537 572.248C413.24 569.298 416.25 563.749 417.354 563.299C418.709 562.799 419.812 565.349 420.013 569.348C420.164 571.898 419.863 574.498 419.11 577.997C418.157 582.046 418.056 583.096 418.608 583.746C419.712 585.046 420.816 584.596 423.876 581.446C429.897 575.397 438.225 570.298 446.454 567.699C449.865 566.599 451.22 566.449 455.234 566.599C459.197 566.699 460 566.649 460 565.999C460 563.849 449.915 562.749 444.647 564.299C439.68 565.749 426.586 573.048 425.381 574.997C425.231 575.247 424.779 575.497 424.428 575.497C423.977 575.497 423.826 574.198 423.826 570.348C423.876 565.949 423.726 564.949 422.722 563.099C421.619 561 419.11 559 417.605 559C417.203 559 416.2 559.4 415.347 559.9Z" fill="white"/>
<path d="M1004.6 712.153C1003.45 714.009 1000.75 715.916 996.751 717.722C995.102 718.475 993.702 719.127 993.602 719.177C993.552 719.227 994.202 720.431 995.052 721.886C998.651 727.706 996.701 733.978 991.252 733.978C987.453 733.978 980.304 727.907 976.505 721.485L974.355 717.822L972.055 722.237C968.756 728.71 964.756 732.774 958.607 735.884C952.108 739.196 948.159 740.5 944.51 740.5C940.01 740.5 940.66 739.296 945.759 738.042C951.809 736.536 960.807 731.319 964.457 727.154C966.456 724.846 969.306 719.528 971.355 714.16C972.205 711.852 972.405 711.651 973.955 711.651C975.555 711.651 975.705 711.852 977.954 716.217C981.504 723.141 985.603 727.957 989.553 729.763C991.852 730.767 993.002 730.165 993.002 727.857C993.002 726 992.402 724.796 989.703 721.585C986.353 717.622 986.903 716.217 992.252 714.963C995.202 714.26 1000.75 711.25 1001.2 710.146C1001.7 708.791 999.151 707.688 995.152 707.487C992.602 707.336 990.002 707.637 986.503 708.39C982.454 709.343 981.404 709.444 980.754 708.892C979.454 707.788 979.904 706.684 983.054 703.624C989.103 697.603 994.202 689.275 996.801 681.046C997.901 677.635 998.051 676.28 997.901 672.266C997.801 668.303 997.851 667.5 998.501 667.5C1000.65 667.5 1001.75 677.585 1000.2 682.853C998.751 687.82 991.452 700.914 989.503 702.119C989.253 702.269 989.003 702.721 989.003 703.072C989.003 703.523 990.302 703.674 994.152 703.674C998.551 703.624 999.551 703.774 1001.4 704.778C1003.5 705.881 1005.5 708.39 1005.5 709.895C1005.5 710.297 1005.1 711.3 1004.6 712.153Z" fill="white"/>
<path d="M1272 633.5H1333C1337.97 633.5 1342 629.471 1342 624.5V460.5M1342 460.5H1323C1318.03 460.5 1314 456.471 1314 451.5V418M1342 460.5H1361C1365.97 460.5 1370 456.471 1370 451.5V418" stroke="#5D9BFF" stroke-width="51" stroke-linecap="round"/>
<path d="M168 633.5H107C102.029 633.5 98 629.471 98 624.5V460.5M98 460.5H117C121.971 460.5 126 456.471 126 451.5V418M98 460.5H79C74.0294 460.5 70 456.471 70 451.5V418" stroke="#5D9BFF" stroke-width="51" stroke-linecap="round"/>
<path d="M379 446C379 476.742 395.203 507.2 403.305 518.586H351.223C342.889 487.844 366.268 457.386 379 446Z" fill="#5D9BFF" stroke="#5D9BFF" stroke-width="6.94427"/>
<path d="M295.651 463.079C313.011 510.046 325.742 511.47 333.843 522.856L286.978 535.665C278.645 504.923 282.92 474.465 295.651 463.079Z" fill="#5D9BFF" stroke="#5D9BFF" stroke-width="6.94427"/>
<path d="M236.457 517.885C252.947 534.964 259.891 543.504 273.78 547.773L232.106 569.122C232.114 552.043 225.172 547.773 236.457 517.885Z" fill="#5D9BFF" stroke="#5D9BFF" stroke-width="6.94427"/>
<path d="M1060.31 446C1060.31 476.742 1044.1 507.2 1036 518.586H1088.08C1096.42 487.844 1073.04 457.386 1060.31 446Z" fill="#5D9BFF" stroke="#5D9BFF" stroke-width="6.94427"/>
<path d="M1143.65 463.079C1126.29 510.046 1113.56 511.47 1105.46 522.856L1152.33 535.665C1160.66 504.923 1156.38 474.465 1143.65 463.079Z" fill="#5D9BFF" stroke="#5D9BFF" stroke-width="6.94427"/>
<path d="M1202.85 517.885C1186.36 534.964 1179.41 543.504 1165.52 547.773L1207.2 569.122C1207.19 552.043 1214.13 547.773 1202.85 517.885Z" fill="#5D9BFF" stroke="#5D9BFF" stroke-width="6.94427"/>
<path d="M775 696.691C802.111 686.521 820 676.44 820 696.769C820 728.929 775.228 755.001 720 755.001C664.772 755.001 620 728.929 620 696.769C620 676.44 637.889 686.521 665 696.691V710.001C665 715.524 669.477 720.001 675 720.001C680.523 720.001 685 715.524 685 710.001V703.336C692.908 705.542 701.289 707.299 710 708.096V718.001C710 723.524 714.477 728.001 720 728.001C725.523 728.001 730 723.524 730 718.001V708.096C738.711 707.299 747.092 705.542 755 703.336V710C755 715.523 759.477 720 765 720C770.523 720 775 715.523 775 710V696.691Z" fill="#151515"/>
<mask id="mask0_59_3033" style="mask-type:alpha" maskUnits="userSpaceOnUse" x="620" y="685" width="200" height="71">
<path d="M820 696.768C820 728.929 775.228 755.001 720 755.001C664.772 755.001 620 728.929 620 696.768C620 664.607 664.772 708.562 720 708.562C775.228 708.562 820 664.607 820 696.768Z" fill="#151515"/>
</mask>
<g mask="url(#mask0_59_3033)">
<rect x="665" y="670.001" width="20" height="50" rx="10" fill="white"/>
<rect x="709" y="678.001" width="22" height="57" rx="11" fill="white"/>
<rect x="755" y="670" width="20" height="50" rx="10" fill="white"/>
</g>
</g>
<defs>
<clipPath id="clip0_59_3033">
<rect width="1440" height="755" fill="white"/>
</clipPath>
</defs>
</svg>
