<svg width="301" height="82" viewBox="0 0 301 82" fill="none" xmlns="http://www.w3.org/2000/svg">
<path d="M7.544 64.3999C6.86933 64.3999 6.28667 64.1546 5.796 63.6639C5.30533 63.1732 5.06 62.5906 5.06 61.9159V2.4839C5.06 1.80923 5.30533 1.22657 5.796 0.735899C6.28667 0.245232 6.86933 -0.000102043 7.544 -0.000102043H22.08C23.3067 -0.000102043 24.196 0.275898 24.748 0.827898C25.3 1.3799 25.668 1.80923 25.852 2.1159L41.4 27.5999V2.4839C41.4 1.80923 41.6453 1.22657 42.136 0.735899C42.6267 0.245232 43.2093 -0.000102043 43.884 -0.000102043H60.536C61.2107 -0.000102043 61.7933 0.245232 62.284 0.735899C62.7747 1.22657 63.02 1.80923 63.02 2.4839V61.9159C63.02 62.5906 62.7747 63.1732 62.284 63.6639C61.7933 64.1546 61.2107 64.3999 60.536 64.3999H46C44.7733 64.3999 43.884 64.1239 43.332 63.5719C42.78 62.9586 42.412 62.5292 42.228 62.2839L26.68 38.8239V61.9159C26.68 62.5906 26.4347 63.1732 25.944 63.6639C25.4533 64.1546 24.8707 64.3999 24.196 64.3999H7.544ZM24.472 5.1519L24.104 4.4159L23.46 4.7839L23 5.7959L24.196 6.0719L24.472 5.1519ZM15.272 4.8759C14.904 4.75323 14.628 4.7839 14.444 4.9679C14.26 5.09056 14.0453 5.3359 13.8 5.7039C13.3707 6.19457 13.3093 6.68523 13.616 7.1759C13.984 7.66657 14.4747 7.8199 15.088 7.6359C15.456 7.57457 15.732 7.48257 15.916 7.3599C16.1 7.1759 16.192 6.8999 16.192 6.5319C16.192 6.04123 16.1307 5.7039 16.008 5.5199C15.9467 5.27456 15.7013 5.0599 15.272 4.8759ZM51.888 4.9679L51.06 5.3359L51.152 6.3479L52.072 6.0719L52.532 5.5199L51.888 4.9679ZM48.76 6.9919C48.6373 6.56257 48.484 6.2559 48.3 6.0719C48.1773 5.8879 47.9013 5.7959 47.472 5.7959C46.9813 5.7959 46.6133 5.8879 46.368 6.0719C46.1227 6.19457 45.9387 6.47057 45.816 6.8999C45.632 7.39057 45.6013 7.75857 45.724 8.0039C45.8467 8.24923 46.1227 8.52523 46.552 8.8319C46.92 9.07723 47.2267 9.16923 47.472 9.1079C47.7173 9.04657 48.024 8.89323 48.392 8.6479C48.8827 8.21857 49.0053 7.66657 48.76 6.9919ZM23.828 11.7759C22.724 11.5919 21.7733 11.3772 20.976 11.1319C20.1787 10.8866 19.4733 10.8559 18.86 11.0399C18.2467 11.2239 17.6947 11.8066 17.204 12.7879C16.7133 13.7692 16.56 14.5666 16.744 15.1799C16.9893 15.7319 17.4493 16.2532 18.124 16.7439C18.7987 17.2346 19.5347 17.8786 20.332 18.6759C21.3133 19.6572 22.1107 20.3932 22.724 20.8839C23.3987 21.3746 24.38 21.3132 25.668 20.6999C27.14 19.9026 28.0907 19.1666 28.52 18.4919C29.0107 17.7559 29.1333 16.5599 28.888 14.9039C28.6427 13.4319 28.0907 12.6039 27.232 12.4199C26.4347 12.1746 25.3 11.9599 23.828 11.7759ZM11.776 12.3279C11.6533 11.8372 11.4693 11.5306 11.224 11.4079C10.9787 11.2239 10.6107 11.1012 10.12 11.0399C9.62933 10.9786 9.292 11.0706 9.108 11.3159C8.98533 11.4999 8.832 11.8066 8.648 12.2359C8.40267 12.9106 8.52533 13.4626 9.016 13.8919C9.384 14.2599 9.69067 14.5359 9.936 14.7199C10.1813 14.9039 10.5493 14.8732 11.04 14.6279C11.5307 14.3212 11.8067 14.0146 11.868 13.7079C11.9907 13.4012 11.96 12.9412 11.776 12.3279ZM51.704 11.0399H50.6L50.14 11.6839L50.692 12.4199L51.52 12.0519L51.704 11.0399ZM53.36 13.2479L52.256 13.4319L51.98 14.5359L53.084 15.0879L53.452 14.1679L53.36 13.2479ZM48.024 13.6159C47.656 13.4319 47.38 13.4319 47.196 13.6159C47.0733 13.7999 46.8893 14.0146 46.644 14.2599C46.3373 14.6279 46.0613 14.9039 45.816 15.0879C45.632 15.2106 45.632 15.4559 45.816 15.8239C46.1227 16.3146 46.368 16.6519 46.552 16.8359C46.7973 16.9586 47.196 16.9892 47.748 16.9279C48.3 16.8052 48.668 16.6212 48.852 16.3759C49.036 16.1306 49.1587 15.7319 49.22 15.1799C49.2813 14.6892 49.22 14.3519 49.036 14.1679C48.852 13.9839 48.5147 13.7999 48.024 13.6159ZM60.72 18.0319C60.5973 17.4186 60.3827 17.0506 60.076 16.9279C59.7693 16.7439 59.3093 16.6212 58.696 16.5599C58.0827 16.4986 57.6533 16.5906 57.408 16.8359C57.224 17.0199 57.0093 17.3879 56.764 17.9399C56.58 18.3692 56.5493 18.7066 56.672 18.9519C56.856 19.1972 57.132 19.4732 57.5 19.7799C57.9293 20.1479 58.2667 20.4239 58.512 20.6079C58.8187 20.7306 59.1867 20.6692 59.616 20.4239C60.168 20.0559 60.536 19.7186 60.72 19.4119C60.904 19.1052 60.904 18.6452 60.72 18.0319ZM50.416 21.9879C49.864 21.5586 49.312 21.5279 48.76 21.8959C48.1467 22.3252 47.932 22.8772 48.116 23.5519C48.1773 23.9199 48.3307 24.1346 48.576 24.1959C48.8213 24.1959 49.1587 24.1959 49.588 24.1959C50.0787 24.1959 50.416 23.9506 50.6 23.4599C50.7227 23.0919 50.784 22.8159 50.784 22.6319C50.8453 22.4479 50.7227 22.2332 50.416 21.9879ZM17.572 25.3919C17.2653 25.1466 17.02 24.9626 16.836 24.8399C16.652 24.7172 16.376 24.7786 16.008 25.0239C15.64 25.2079 15.456 25.4226 15.456 25.6679C15.456 25.9132 15.4867 26.2199 15.548 26.5879C15.6707 27.0172 15.7933 27.3239 15.916 27.5079C16.0387 27.6306 16.3147 27.7226 16.744 27.7839C17.112 27.7839 17.3573 27.7226 17.48 27.5999C17.664 27.4159 17.8173 27.1399 17.94 26.7719C18.1853 26.2199 18.0627 25.7599 17.572 25.3919ZM29.992 26.5879C29.5627 25.9746 29.164 25.6372 28.796 25.5759C28.428 25.5146 27.876 25.5759 27.14 25.7599C26.404 25.9439 25.8827 26.1892 25.576 26.4959C25.3307 26.7412 25.208 27.2319 25.208 27.9679C25.208 28.6426 25.3307 29.1026 25.576 29.3479C25.8827 29.5932 26.3733 29.8386 27.048 30.0839C27.6 30.2679 27.9987 30.2986 28.244 30.1759C28.5507 29.9919 28.888 29.6546 29.256 29.1639C29.6853 28.6732 29.992 28.2746 30.176 27.9679C30.4213 27.5999 30.36 27.1399 29.992 26.5879ZM34.408 26.7719C33.7947 26.7719 33.396 26.8946 33.212 27.1399C33.028 27.3852 32.8133 27.7839 32.568 28.3359C32.3227 29.0106 32.1387 29.5626 32.016 29.9919C31.8933 30.3599 32.108 30.7586 32.66 31.1879C33.1507 31.5559 33.5187 31.5866 33.764 31.2799C34.0707 30.9119 34.5 30.5132 35.052 30.0839C35.604 29.7772 36.0947 29.5626 36.524 29.4399C36.9533 29.2559 37.076 28.8572 36.892 28.2439C36.708 27.5692 36.432 27.1706 36.064 27.0479C35.696 26.8639 35.144 26.7719 34.408 26.7719ZM12.512 29.0719C12.3893 28.4586 12.2973 27.9679 12.236 27.5999C12.1747 27.2319 11.8067 27.0172 11.132 26.9559C10.5187 26.8946 10.0893 27.0172 9.844 27.3239C9.59867 27.6306 9.35333 28.0906 9.108 28.7039C8.924 29.1946 8.924 29.5626 9.108 29.8079C9.35333 29.9919 9.69067 30.2372 10.12 30.5439C10.488 30.8506 10.7947 31.0652 11.04 31.1879C11.2853 31.3106 11.6227 31.2492 12.052 31.0039C12.4813 30.6972 12.696 30.4212 12.696 30.1759C12.7573 29.9306 12.696 29.5626 12.512 29.0719ZM52.9 31.7399C51.06 30.9426 49.496 30.4826 48.208 30.3599C46.9813 30.2372 45.816 30.5132 44.712 31.1879C43.6693 31.8012 42.4733 32.8746 41.124 34.4079C40.02 35.6346 39.5907 36.7079 39.836 37.6279C40.0813 38.5479 40.6333 39.4986 41.492 40.4799C42.412 41.3999 43.3013 42.5652 44.16 43.9759C45.08 45.5092 45.908 46.5519 46.644 47.1039C47.4413 47.6559 48.6987 47.7172 50.416 47.2879C52.5013 46.7972 54.0653 46.3066 55.108 45.8159C56.212 45.3252 56.856 44.0066 57.04 41.8599C57.1627 40.0199 57.224 38.4866 57.224 37.2599C57.224 36.0332 56.9173 34.9906 56.304 34.1319C55.752 33.2119 54.6173 32.4146 52.9 31.7399ZM23.184 32.2919C22.6933 31.8012 22.2947 31.4639 21.988 31.2799C21.6813 31.0346 21.2213 31.0346 20.608 31.2799C19.8107 31.5866 19.2587 31.8932 18.952 32.1999C18.7067 32.5066 18.6147 33.0586 18.676 33.8559C18.7373 34.5919 18.952 35.0519 19.32 35.2359C19.7493 35.3586 20.3013 35.5119 20.976 35.6959C21.712 35.8799 22.264 36.0026 22.632 36.0639C23.0613 36.0639 23.46 35.7572 23.828 35.1439C24.2573 34.5306 24.3493 34.0399 24.104 33.6719C23.92 33.3039 23.6133 32.8439 23.184 32.2919ZM10.672 34.7759C10.672 34.4079 10.396 34.1319 9.844 33.9479C9.35333 33.8252 9.016 33.9172 8.832 34.2239C8.58667 34.5306 8.40267 34.7759 8.28 34.9599C8.21867 35.1439 8.28 35.3892 8.464 35.6959C8.89333 36.1866 9.44533 36.3092 10.12 36.0639C10.488 35.9412 10.672 35.7879 10.672 35.6039C10.672 35.3586 10.672 35.0826 10.672 34.7759ZM20.516 38.7319C20.2093 38.3026 19.9027 38.1799 19.596 38.3639C19.3507 38.4866 18.9827 38.6399 18.492 38.8239C18.124 38.9466 17.848 39.0692 17.664 39.1919C17.48 39.3146 17.388 39.5599 17.388 39.9279C17.388 40.2959 17.48 40.5412 17.664 40.6639C17.848 40.7866 18.124 40.9092 18.492 41.0319C18.9213 41.2159 19.228 41.3386 19.412 41.3999C19.6573 41.3999 19.9333 41.2466 20.24 40.9399C20.5467 40.4492 20.7307 40.0812 20.792 39.8359C20.9147 39.5292 20.8227 39.1612 20.516 38.7319ZM12.052 39.5599C11.4387 39.3759 10.9787 39.2532 10.672 39.1919C10.3653 39.0692 10.028 39.2532 9.66 39.7439C9.35333 40.2346 9.292 40.6332 9.476 40.9399C9.66 41.1852 9.936 41.5532 10.304 42.0439C10.6107 42.4732 10.8867 42.8106 11.132 43.0559C11.3773 43.2399 11.776 43.2399 12.328 43.0559C12.88 42.8106 13.2173 42.5652 13.34 42.3199C13.524 42.0132 13.616 41.5532 13.616 40.9399C13.616 40.4492 13.4627 40.1426 13.156 40.0199C12.9107 39.8359 12.5427 39.6826 12.052 39.5599ZM16.192 46.3679C16.0693 45.9999 15.8853 45.8159 15.64 45.8159C15.3947 45.7546 15.0573 45.7239 14.628 45.7239C14.1987 45.7239 13.8307 45.7239 13.524 45.7239C13.2787 45.7239 13.0947 45.9386 12.972 46.3679C12.8493 46.7972 12.9107 47.0732 13.156 47.1959C13.4013 47.3186 13.708 47.5026 14.076 47.7479C14.3213 47.9319 14.536 48.0852 14.72 48.2079C14.904 48.2692 15.1187 48.1772 15.364 47.9319C15.732 47.6866 15.9773 47.4719 16.1 47.2879C16.284 47.1039 16.3147 46.7972 16.192 46.3679ZM11.224 48.4839C11.1627 47.9932 11.0093 47.7172 10.764 47.6559C10.5187 47.5332 10.1507 47.4106 9.66 47.2879C9.23067 47.2266 8.86267 47.1959 8.556 47.1959C8.31067 47.1959 8.096 47.3799 7.912 47.7479C7.48267 48.4839 7.544 49.1892 8.096 49.8639C8.464 50.2319 8.77067 50.4772 9.016 50.5999C9.26133 50.6612 9.62933 50.5692 10.12 50.3239C10.9173 49.9559 11.2853 49.3426 11.224 48.4839ZM21.068 49.4039C20.3933 49.2812 19.9027 49.4652 19.596 49.9559C19.3507 50.3852 19.1973 50.7226 19.136 50.9679C19.0747 51.2132 19.1973 51.5199 19.504 51.8879C19.8107 52.1946 20.0867 52.3479 20.332 52.3479C20.5773 52.2866 20.9147 52.1639 21.344 51.9799C21.7733 51.7959 22.0493 51.6119 22.172 51.4279C22.356 51.2439 22.4173 50.9372 22.356 50.5079C22.2947 50.0786 22.172 49.8332 21.988 49.7719C21.804 49.6492 21.4973 49.5266 21.068 49.4039ZM42.412 51.2439L41.4 51.7959L41.492 52.8079L42.504 53.0839L43.056 52.1639L42.412 51.2439ZM10.12 54.1879L9.292 53.7279L8.74 54.4639L9.108 55.0159H9.844L10.12 54.1879ZM12.788 55.8439C12.4813 55.5372 12.144 55.4759 11.776 55.6599C11.4693 55.8439 11.224 55.9972 11.04 56.1199C10.9173 56.1812 10.8867 56.3959 10.948 56.7639C11.0093 57.0706 11.132 57.2239 11.316 57.2239C11.5613 57.2239 11.8373 57.2546 12.144 57.3159C12.4507 57.3772 12.696 57.4079 12.88 57.4079C13.064 57.4079 13.2173 57.2546 13.34 56.9479C13.4627 56.7026 13.4627 56.5186 13.34 56.3959C13.2173 56.2732 13.0333 56.0892 12.788 55.8439ZM20.7 56.5799C20.2707 55.9666 19.8413 55.6599 19.412 55.6599C19.044 55.5986 18.492 55.6906 17.756 55.9359C17.0813 56.1812 16.6213 56.4572 16.376 56.7639C16.192 57.0706 16.1 57.5612 16.1 58.2359C16.1 58.9719 16.192 59.5239 16.376 59.8919C16.56 60.1986 16.9893 60.4746 17.664 60.7199C18.5227 60.9652 19.1973 61.1492 19.688 61.2719C20.1787 61.3332 20.7 60.9959 21.252 60.2599C21.804 59.5239 21.988 58.9106 21.804 58.4199C21.62 57.9292 21.252 57.3159 20.7 56.5799ZM46.368 57.1319L45.448 56.8559L44.712 57.4999L45.356 58.3279L46.184 58.0519L46.368 57.1319ZM56.764 59.8919L56.12 59.2479L55.384 59.7999L55.568 60.6279L56.396 60.7199L56.764 59.8919ZM75.6456 64.3999C74.9709 64.3999 74.3882 64.1546 73.8976 63.6639C73.4069 63.1732 73.1616 62.5906 73.1616 61.9159V2.4839C73.1616 1.80923 73.4069 1.22657 73.8976 0.735899C74.3882 0.245232 74.9709 -0.000102043 75.6456 -0.000102043H122.842C123.516 -0.000102043 124.099 0.245232 124.59 0.735899C125.08 1.22657 125.326 1.80923 125.326 2.4839V15.4559C125.326 16.1306 125.08 16.7132 124.59 17.2039C124.099 17.6946 123.516 17.9399 122.842 17.9399H95.2416V23.7359H120.818C121.492 23.7359 122.075 23.9812 122.566 24.4719C123.056 24.9626 123.302 25.5452 123.302 26.2199V38.1799C123.302 38.8546 123.056 39.4372 122.566 39.9279C122.075 40.4186 121.492 40.6639 120.818 40.6639H95.2416V46.4599H123.578C124.252 46.4599 124.835 46.7052 125.326 47.1959C125.816 47.6866 126.062 48.2692 126.062 48.9439V61.9159C126.062 62.5906 125.816 63.1732 125.326 63.6639C124.835 64.1546 124.252 64.3999 123.578 64.3999H75.6456ZM106.558 3.9559C106.312 3.46523 106.006 3.28123 105.638 3.4039C105.331 3.52657 104.932 3.61857 104.442 3.6799C103.89 3.74123 103.43 3.74123 103.062 3.6799C102.694 3.61857 102.479 3.8639 102.418 4.4159C102.295 4.9679 102.356 5.3359 102.602 5.5199C102.847 5.7039 103.246 5.94923 103.798 6.2559C104.288 6.50123 104.656 6.7159 104.902 6.8999C105.208 7.02257 105.576 6.8999 106.006 6.5319C106.496 6.10257 106.772 5.73457 106.834 5.4279C106.895 5.0599 106.803 4.56923 106.558 3.9559ZM80.5216 4.5079C80.0922 4.07857 79.6936 3.83323 79.3256 3.7719C79.0189 3.64923 78.5896 3.71057 78.0376 3.9559C77.3016 4.3239 76.7189 4.63057 76.2896 4.8759C75.8602 5.0599 75.6762 5.55056 75.7376 6.3479C75.8602 7.14523 76.1669 7.57457 76.6576 7.6359C77.1482 7.69723 77.7922 7.8199 78.5896 8.0039C79.2642 8.12657 79.7856 8.1879 80.1536 8.1879C80.5829 8.1879 80.9509 7.88123 81.2576 7.2679C81.6256 6.65456 81.7176 6.19457 81.5336 5.8879C81.3496 5.5199 81.0122 5.0599 80.5216 4.5079ZM116.954 4.8759C116.524 4.44657 116.126 4.29323 115.758 4.4159C115.451 4.47723 115.022 4.66123 114.47 4.9679C113.856 5.27457 113.366 5.5199 112.998 5.7039C112.691 5.82657 112.568 6.22523 112.63 6.8999C112.752 7.57457 112.998 7.94257 113.366 8.0039C113.734 8.06523 114.255 8.15723 114.93 8.2799C115.543 8.40257 116.034 8.49456 116.402 8.5559C116.831 8.61723 117.199 8.34123 117.506 7.7279C117.812 7.11456 117.904 6.6239 117.782 6.2559C117.72 5.8879 117.444 5.4279 116.954 4.8759ZM100.67 5.8879C100.67 5.45857 100.608 5.1519 100.486 4.9679C100.424 4.7839 100.21 4.66123 99.8416 4.5999C99.4122 4.47723 99.0749 4.44657 98.8296 4.5079C98.6456 4.5079 98.4309 4.66123 98.1856 4.9679C97.8176 5.58123 97.8482 6.19457 98.2776 6.8079C98.5229 7.11456 98.7376 7.2679 98.9216 7.2679C99.1669 7.20657 99.4736 7.11457 99.8416 6.9919C100.394 6.8079 100.67 6.4399 100.67 5.8879ZM95.1496 5.7959L94.5976 5.3359L94.1376 5.7959V6.5319L94.9656 6.6239L95.1496 5.7959ZM120.91 6.7159L120.082 6.3479L119.346 6.6239L119.53 7.5439H120.45L120.91 6.7159ZM91.0096 7.6359C90.2736 7.39056 89.7522 7.42123 89.4456 7.7279C89.2002 8.03457 88.8629 8.49457 88.4336 9.1079C88.0042 9.72123 87.6976 10.2119 87.5136 10.5799C87.3296 10.8866 87.4522 11.3466 87.8816 11.9599C88.3722 12.5732 88.8016 12.9719 89.1696 13.1559C89.5989 13.2786 90.1816 13.2172 90.9176 12.9719C91.6536 12.7266 92.0522 12.4199 92.1136 12.0519C92.1749 11.6226 92.2056 11.0399 92.2056 10.3039C92.2056 9.5679 92.1749 8.98523 92.1136 8.5559C92.0522 8.12657 91.6842 7.8199 91.0096 7.6359ZM83.6496 8.8319L83.0976 9.2919L83.2816 9.9359L84.1096 10.2119L84.2936 9.2919L83.6496 8.8319ZM104.258 10.6719C104.012 10.4879 103.798 10.4572 103.614 10.5799C103.43 10.7026 103.215 10.8866 102.97 11.1319C102.724 11.3159 102.51 11.4692 102.326 11.5919C102.142 11.6532 102.111 11.8372 102.234 12.1439C102.356 12.5119 102.479 12.7879 102.602 12.9719C102.724 13.1559 103 13.2479 103.43 13.2479C104.043 13.2479 104.472 12.9106 104.718 12.2359C104.963 11.6226 104.81 11.1012 104.258 10.6719ZM115.298 12.7879C114.991 12.6652 114.776 12.6959 114.654 12.8799C114.592 13.0639 114.439 13.2786 114.194 13.5239C114.01 13.7692 113.856 13.9839 113.734 14.1679C113.672 14.2906 113.734 14.4746 113.918 14.7199C114.163 15.0266 114.562 15.1186 115.114 14.9959C115.42 14.8732 115.666 14.7812 115.85 14.7199C116.095 14.6586 116.218 14.4746 116.218 14.1679C116.279 13.4932 115.972 13.0332 115.298 12.7879ZM81.6256 16.0999C81.1962 15.7932 80.8589 15.5479 80.6136 15.3639C80.4296 15.1186 80.1229 15.1492 79.6936 15.4559C79.2029 15.7626 78.8962 16.0692 78.7736 16.3759C78.6509 16.6826 78.6816 17.1119 78.8656 17.6639C78.9882 18.2159 79.1722 18.5532 79.4176 18.6759C79.7242 18.7372 80.1536 18.7679 80.7056 18.7679C81.3189 18.7679 81.7789 18.7679 82.0856 18.7679C82.3922 18.7066 82.6682 18.3999 82.9136 17.8479C83.0976 17.3572 83.0362 17.0199 82.7296 16.8359C82.4229 16.6519 82.0549 16.4066 81.6256 16.0999ZM87.2376 16.8359L86.4096 17.2959L86.3176 17.8479L86.8696 18.4919L87.3296 17.7559L87.2376 16.8359ZM80.6136 22.7239C79.9389 22.5399 79.4482 22.5706 79.1416 22.8159C78.8349 22.9999 78.4669 23.3679 78.0376 23.9199C77.6696 24.4719 77.4549 24.9319 77.3936 25.2999C77.3936 25.6066 77.6082 26.0052 78.0376 26.4959C78.4056 27.0479 78.7429 27.4466 79.0496 27.6919C79.4176 27.8759 79.9389 27.8759 80.6136 27.6919C81.2269 27.4466 81.5336 27.1399 81.5336 26.7719C81.5949 26.4039 81.6256 25.8826 81.6256 25.2079C81.6256 24.5332 81.5949 24.0119 81.5336 23.6439C81.5336 23.2759 81.2269 22.9692 80.6136 22.7239ZM95.2416 28.8879C94.4442 28.4586 93.8002 28.2746 93.3096 28.3359C92.8802 28.3972 92.3282 28.7039 91.6536 29.2559C90.9789 29.9306 90.5496 30.5132 90.3656 31.0039C90.1816 31.4332 90.2736 32.0772 90.6416 32.9359C91.0709 33.9172 91.4696 34.6532 91.8376 35.1439C92.2669 35.6346 93.0336 35.8186 94.1376 35.6959C95.2416 35.5732 95.9162 35.2666 96.1616 34.7759C96.4682 34.2239 96.7442 33.3959 96.9896 32.2919C97.1736 31.3719 97.1122 30.6972 96.8056 30.2679C96.5602 29.8386 96.0389 29.3786 95.2416 28.8879ZM103.614 29.1639C103.246 28.7346 102.755 28.6426 102.142 28.8879C101.774 29.0106 101.528 29.1639 101.406 29.3479C101.283 29.4706 101.222 29.7159 101.222 30.0839C101.283 30.7586 101.651 31.1879 102.326 31.3719C102.632 31.4332 102.847 31.4026 102.97 31.2799C103.092 31.0959 103.246 30.8506 103.43 30.5439C103.614 30.2372 103.736 29.9919 103.798 29.8079C103.859 29.6239 103.798 29.4092 103.614 29.1639ZM83.4656 31.8319C83.1589 31.5866 82.8829 31.4332 82.6376 31.3719C82.4536 31.3106 82.2082 31.4026 81.9016 31.6479C81.4722 31.8932 81.1962 32.1386 81.0736 32.3839C80.9509 32.5679 80.9509 32.9052 81.0736 33.3959C81.1962 33.8252 81.3802 34.1319 81.6256 34.3159C81.8709 34.4386 82.2389 34.4999 82.7296 34.4999C83.1589 34.4999 83.4656 34.4079 83.6496 34.2239C83.8336 34.0399 83.9869 33.7332 84.1096 33.3039C84.2322 32.9359 84.2322 32.6599 84.1096 32.4759C84.0482 32.2919 83.8336 32.0772 83.4656 31.8319ZM106.742 32.1999L105.914 31.6479L105.086 32.0159L105.362 33.0279H106.282L106.742 32.1999ZM77.3936 32.1999L76.1976 32.3839L76.3816 33.6719L77.4856 33.8559L78.3136 33.0279L77.3936 32.1999ZM102.786 34.8679C102.418 34.6226 102.142 34.4079 101.958 34.2239C101.835 33.9786 101.59 33.9786 101.222 34.2239C100.486 34.7146 100.24 35.3586 100.486 36.1559C100.547 36.5852 100.7 36.7999 100.946 36.7999C101.252 36.7999 101.62 36.7999 102.05 36.7999C102.479 36.7999 102.786 36.7999 102.97 36.7999C103.215 36.7999 103.399 36.6159 103.522 36.2479C103.644 35.8799 103.614 35.6346 103.43 35.5119C103.307 35.3279 103.092 35.1132 102.786 34.8679ZM83.8336 36.4319L83.3736 36.7079L83.1896 37.4439L84.0176 37.6279L84.3856 36.9839L83.8336 36.4319ZM86.7776 39.9279C86.3482 39.5599 86.0109 39.2226 85.7656 38.9159C85.5816 38.6092 85.2442 38.6092 84.7536 38.9159C84.2629 39.1612 84.0789 39.4679 84.2016 39.8359C84.3856 40.1426 84.5389 40.5719 84.6616 41.1239C84.7842 41.5532 84.8762 41.8906 84.9376 42.1359C85.0602 42.3812 85.3362 42.5346 85.7656 42.5959C86.3176 42.6572 86.7162 42.6266 86.9616 42.5039C87.2069 42.3812 87.4216 42.0746 87.6056 41.5839C87.7896 41.1546 87.7589 40.8479 87.5136 40.6639C87.3296 40.4799 87.0842 40.2346 86.7776 39.9279ZM79.7856 39.9279C79.2949 39.8666 78.8962 39.8359 78.5896 39.8359C78.3442 39.8359 78.1296 40.0812 77.9456 40.5719C77.5776 41.3692 77.7002 42.0746 78.3136 42.6879C78.7429 43.0559 79.1109 43.3012 79.4176 43.4239C79.7242 43.4852 80.1229 43.3626 80.6136 43.0559C81.0429 42.8106 81.1962 42.5346 81.0736 42.2279C81.0122 41.9212 80.9509 41.5226 80.8896 41.0319C80.7669 40.3572 80.3989 39.9892 79.7856 39.9279ZM79.8776 46.8279C79.8776 46.4599 79.8776 46.1532 79.8776 45.9079C79.8776 45.6012 79.6629 45.4172 79.2336 45.3559C78.8656 45.2332 78.6202 45.2946 78.4976 45.5399C78.4362 45.7852 78.3136 46.0919 78.1296 46.4599C77.8842 46.8279 77.8842 47.1652 78.1296 47.4719C78.3749 47.7172 78.5589 47.9012 78.6816 48.0239C78.8042 48.1466 79.0189 48.1466 79.3256 48.0239C79.7549 47.8399 79.9389 47.4412 79.8776 46.8279ZM85.7656 50.7839C85.7656 50.1706 85.6736 49.7412 85.4896 49.4959C85.3669 49.1892 85.0296 48.9439 84.4776 48.7599C83.6802 48.5146 83.0669 48.3612 82.6376 48.2999C82.2082 48.2386 81.7789 48.5452 81.3496 49.2199C80.9202 49.8332 80.8589 50.3239 81.1656 50.6919C81.5336 50.9986 81.9322 51.4279 82.3616 51.9799C82.7909 52.4706 83.1282 52.8386 83.3736 53.0839C83.6189 53.3292 84.0482 53.3292 84.6616 53.0839C85.2749 52.8999 85.6122 52.6546 85.6736 52.3479C85.7349 51.9799 85.7656 51.4586 85.7656 50.7839ZM110.054 49.5879C109.195 49.2812 108.582 49.3119 108.214 49.6799C107.846 50.0479 107.416 50.5999 106.926 51.3359C106.435 52.0719 106.067 52.6852 105.822 53.1759C105.638 53.6052 105.791 54.1572 106.282 54.8319C106.834 55.5679 107.355 55.8746 107.846 55.7519C108.336 55.5679 108.98 55.3532 109.778 55.1079C110.452 54.8626 110.882 54.5866 111.066 54.2799C111.25 53.9732 111.342 53.4826 111.342 52.8079C111.342 51.8879 111.311 51.1826 111.25 50.6919C111.25 50.2012 110.851 49.8332 110.054 49.5879ZM91.2856 52.6239L89.9976 52.2559L89.8136 53.5439L90.5496 54.0959L91.1936 53.6359L91.2856 52.6239ZM121.83 54.9239C121.707 54.4946 121.584 54.1572 121.462 53.9119C121.339 53.6666 121.063 53.5439 120.634 53.5439C120.082 53.5439 119.652 53.6052 119.346 53.7279C119.1 53.8506 118.886 54.1572 118.702 54.6479C118.518 55.0772 118.518 55.4146 118.702 55.6599C118.947 55.8439 119.284 56.0892 119.714 56.3959C120.143 56.7639 120.48 57.1012 120.726 57.4079C121.032 57.6532 121.431 57.6226 121.922 57.3159C122.412 56.9479 122.566 56.6106 122.382 56.3039C122.198 55.9359 122.014 55.4759 121.83 54.9239ZM96.3456 54.4639L95.4256 54.3719L95.3336 55.2919L96.0696 55.7519L96.5296 55.1079L96.3456 54.4639ZM100.394 60.2599H99.6576L99.5656 60.9039L100.21 61.2719L100.67 60.8119L100.394 60.2599ZM131.489 64.3999C130.937 64.3999 130.446 64.2159 130.017 63.8479C129.649 63.4186 129.465 62.9279 129.465 62.3759C129.465 62.2532 129.465 62.1306 129.465 62.0079C129.526 61.8239 129.618 61.6092 129.741 61.3639L149.061 31.4639L131.673 3.0359C131.489 2.6679 131.397 2.33057 131.397 2.0239C131.397 1.4719 131.581 1.0119 131.949 0.643901C132.378 0.214566 132.869 -0.000102043 133.421 -0.000102043H153.385C154.612 -0.000102043 155.501 0.306564 156.053 0.919897C156.666 1.53323 157.065 1.99323 157.249 2.2999L163.689 13.5239L170.681 2.2999C170.865 1.99323 171.264 1.53323 171.877 0.919897C172.49 0.306564 173.38 -0.000102043 174.545 -0.000102043H193.589C194.141 -0.000102043 194.601 0.214566 194.969 0.643901C195.398 1.0119 195.613 1.4719 195.613 2.0239C195.613 2.3919 195.521 2.72923 195.337 3.0359L177.581 31.1879L197.177 61.3639C197.3 61.6092 197.361 61.8239 197.361 62.0079C197.422 62.1306 197.453 62.2532 197.453 62.3759C197.453 62.9279 197.238 63.4186 196.809 63.8479C196.441 64.2159 195.981 64.3999 195.429 64.3999H174.729C173.564 64.3999 172.674 64.1239 172.061 63.5719C171.448 62.9586 171.08 62.5292 170.957 62.2839L162.953 49.9559L155.317 62.2839C155.194 62.5292 154.826 62.9586 154.213 63.5719C153.661 64.1239 152.772 64.3999 151.545 64.3999H131.489ZM142.069 4.1399L141.057 3.5879L140.505 4.6919L141.333 5.6119L141.977 4.8759L142.069 4.1399ZM186.781 4.1399L185.677 3.9559L185.953 4.9679L186.689 5.7959L187.425 4.7839L186.781 4.1399ZM146.853 5.7039C146.73 5.21323 146.608 4.84523 146.485 4.5999C146.362 4.35457 146.056 4.2319 145.565 4.2319C145.074 4.2319 144.798 4.35457 144.737 4.5999C144.676 4.84523 144.553 5.18257 144.369 5.6119C144.124 6.22523 144.216 6.7159 144.645 7.0839C145.013 7.39057 145.32 7.6359 145.565 7.8199C145.81 8.0039 146.117 7.97323 146.485 7.7279C146.914 7.42123 147.129 7.14523 147.129 6.8999C147.129 6.59323 147.037 6.19457 146.853 5.7039ZM152.649 10.2119C152.22 9.72123 151.852 9.3839 151.545 9.1999C151.238 8.95457 150.778 8.95457 150.165 9.1999C149.552 9.44523 149.184 9.7519 149.061 10.1199C149 10.4879 149 11.0092 149.061 11.6839C149.122 12.4812 149.122 13.1559 149.061 13.7079C149.061 14.2599 149.46 14.6279 150.257 14.8119C151.177 15.0572 151.852 15.0572 152.281 14.8119C152.772 14.5052 153.262 13.9532 153.753 13.1559C154.182 12.4812 154.213 11.9906 153.845 11.6839C153.538 11.3159 153.14 10.8252 152.649 10.2119ZM183.561 10.4879L182.641 10.3959L182.365 11.0399L182.641 11.9599L183.653 11.4999L183.561 10.4879ZM180.433 15.4559C180.126 14.3519 179.697 13.6772 179.145 13.4319C178.593 13.1252 177.704 12.9412 176.477 12.8799C175.434 12.8186 174.729 13.0026 174.361 13.4319C173.993 13.8612 173.625 14.5666 173.257 15.5479C172.889 16.5292 172.705 17.2959 172.705 17.8479C172.766 18.3999 173.196 19.0132 173.993 19.6879C174.913 20.4239 175.68 20.8532 176.293 20.9759C176.906 21.0372 177.704 20.7306 178.685 20.0559C179.728 19.3812 180.372 18.7679 180.617 18.2159C180.862 17.6026 180.801 16.6826 180.433 15.4559ZM147.405 17.2039C147.221 16.7746 147.068 16.4372 146.945 16.1919C146.884 15.9466 146.638 15.8546 146.209 15.9159C145.35 16.0386 144.829 16.4986 144.645 17.2959C144.584 17.7866 144.645 18.1239 144.829 18.3079C145.074 18.4306 145.381 18.5839 145.749 18.7679C146.056 18.9519 146.27 19.0132 146.393 18.9519C146.577 18.8292 146.822 18.6452 147.129 18.3999C147.497 18.0319 147.589 17.6332 147.405 17.2039ZM160.377 19.0439C160.316 18.6759 160.07 18.4306 159.641 18.3079C159.273 18.2466 158.966 18.1852 158.721 18.1239C158.537 18.0012 158.353 18.0932 158.169 18.3999C157.985 18.7679 157.924 19.0439 157.985 19.2279C158.108 19.4119 158.292 19.6572 158.537 19.9639C158.966 20.3932 159.426 20.4852 159.917 20.2399C160.224 20.1172 160.377 19.9639 160.377 19.7799C160.377 19.5959 160.377 19.3506 160.377 19.0439ZM170.037 24.0119C168.81 23.9506 167.829 23.8892 167.093 23.8279C166.357 23.7052 165.774 24.1959 165.345 25.2999C164.854 26.7106 164.64 27.8146 164.701 28.6119C164.762 29.3479 165.376 30.1759 166.541 31.0959C167.522 31.9546 168.32 32.0772 168.933 31.4639C169.546 30.8506 170.374 30.2066 171.417 29.5319C172.153 29.0412 172.613 28.5812 172.797 28.1519C172.981 27.7226 172.95 27.1092 172.705 26.3119C172.46 25.4532 172.153 24.8706 171.785 24.5639C171.478 24.2572 170.896 24.0732 170.037 24.0119ZM155.777 24.8399L155.041 24.1959L154.397 24.9319L154.581 25.9439L155.777 25.8519V24.8399ZM157.249 30.0839C156.574 29.7772 156.053 29.7159 155.685 29.8999C155.378 30.0226 154.98 30.3599 154.489 30.9119C153.998 31.4026 153.753 31.8319 153.753 32.1999C153.753 32.5066 153.906 32.9666 154.213 33.5799C154.581 34.1932 154.888 34.6532 155.133 34.9599C155.44 35.2666 155.961 35.3279 156.697 35.1439C157.372 35.0212 157.709 34.7759 157.709 34.4079C157.709 33.9786 157.77 33.3959 157.893 32.6599C157.954 31.9852 158.016 31.4639 158.077 31.0959C158.138 30.6666 157.862 30.3292 157.249 30.0839ZM176.017 39.0999C174.545 37.6892 173.257 37.0759 172.153 37.2599C171.11 37.3826 169.7 37.9346 167.921 38.9159C167.001 39.4066 166.449 39.9279 166.265 40.4799C166.142 41.0319 166.204 41.7066 166.449 42.5039C166.694 43.2399 166.909 44.0986 167.093 45.0799C167.277 46.3066 167.553 47.1959 167.921 47.7479C168.289 48.2999 169.056 48.6679 170.221 48.8519C171.509 49.0359 172.46 48.9746 173.073 48.6679C173.748 48.3612 174.361 47.5946 174.913 46.3679C175.465 45.2639 175.986 44.3439 176.477 43.6079C177.029 42.8106 177.305 42.0746 177.305 41.3999C177.366 40.7252 176.937 39.9586 176.017 39.0999ZM156.421 47.1959C155.992 45.7852 155.624 44.6812 155.317 43.8839C155.072 43.0252 154.213 42.5959 152.741 42.5959C151.146 42.5959 150.073 42.9332 149.521 43.6079C149.03 44.2826 148.54 45.3559 148.049 46.8279C147.558 48.2999 147.344 49.4652 147.405 50.3239C147.528 51.1212 148.233 51.9799 149.521 52.8999C150.87 53.8812 152.005 54.4639 152.925 54.6479C153.845 54.8319 154.98 54.4026 156.329 53.3599C157.617 52.4399 158.077 51.5506 157.709 50.6919C157.341 49.8332 156.912 48.6679 156.421 47.1959ZM182.917 52.2559C182.61 52.1946 182.365 52.1332 182.181 52.0719C181.997 52.0106 181.813 52.1332 181.629 52.4399C181.261 53.0532 181.292 53.5746 181.721 54.0039C181.966 54.2492 182.181 54.3412 182.365 54.2799C182.549 54.1572 182.794 54.0346 183.101 53.9119C183.53 53.7279 183.714 53.4212 183.653 52.9919C183.592 52.6239 183.346 52.3786 182.917 52.2559ZM142.897 54.7399C142.713 53.9426 142.498 53.3292 142.253 52.8999C142.008 52.4706 141.456 52.2252 140.597 52.1639C139.677 52.1026 138.972 52.1946 138.481 52.4399C138.052 52.6852 137.684 53.2679 137.377 54.1879C137.009 54.9239 137.009 55.4759 137.377 55.8439C137.745 56.2119 138.236 56.6719 138.849 57.2239C139.401 57.6532 139.83 57.8679 140.137 57.8679C140.505 57.8066 140.996 57.5919 141.609 57.2239C142.161 56.8559 142.56 56.5186 142.805 56.2119C143.05 55.9052 143.081 55.4146 142.897 54.7399ZM172.705 56.3959C172.582 56.0279 172.49 55.7519 172.429 55.5679C172.368 55.3226 172.122 55.1999 171.693 55.1999C171.264 55.1999 170.988 55.3226 170.865 55.5679C170.742 55.7519 170.62 56.0279 170.497 56.3959C170.436 56.8252 170.405 57.1626 170.405 57.4079C170.466 57.5919 170.65 57.7759 170.957 57.9599C171.264 58.2052 171.478 58.2359 171.601 58.0519C171.785 57.8679 172.03 57.6532 172.337 57.4079C172.705 57.1012 172.828 56.7639 172.705 56.3959ZM188.437 58.7879C188.437 58.4199 188.161 58.1439 187.609 57.9599C187.18 57.8986 186.842 57.8066 186.597 57.6839C186.413 57.5612 186.229 57.6839 186.045 58.0519C185.8 58.3586 185.738 58.6039 185.861 58.7879C186.045 58.9719 186.26 59.2479 186.505 59.6159C186.689 59.8612 186.873 60.0452 187.057 60.1679C187.241 60.2906 187.486 60.2906 187.793 60.1679C188.161 60.0452 188.345 59.8919 188.345 59.7079C188.406 59.4626 188.437 59.1559 188.437 58.7879ZM178.041 58.2359C177.612 58.1132 177.305 58.2052 177.121 58.5119C176.998 58.7572 176.906 58.9719 176.845 59.1559C176.784 59.2786 176.845 59.4626 177.029 59.7079C177.213 59.9532 177.397 60.1372 177.581 60.2599C177.765 60.3826 178.01 60.3826 178.317 60.2599C178.992 60.0146 179.298 59.5546 179.237 58.8799C179.237 58.5732 179.114 58.4199 178.869 58.4199C178.624 58.4199 178.348 58.3586 178.041 58.2359ZM205.021 64.3999C204.346 64.3999 203.763 64.1546 203.273 63.6639C202.782 63.1732 202.537 62.5906 202.537 61.9159V2.4839C202.537 1.80923 202.782 1.22657 203.273 0.735899C203.763 0.245232 204.346 -0.000102043 205.021 -0.000102043H223.789C224.463 -0.000102043 225.046 0.245232 225.537 0.735899C226.027 1.22657 226.273 1.80923 226.273 2.4839V61.9159C226.273 62.5906 226.027 63.1732 225.537 63.6639C225.046 64.1546 224.463 64.3999 223.789 64.3999H205.021ZM214.497 2.4839C213.883 2.42257 213.423 2.4839 213.117 2.6679C212.871 2.8519 212.626 3.2199 212.381 3.7719C212.135 4.3239 212.074 4.72257 212.197 4.9679C212.381 5.21323 212.718 5.5199 213.209 5.8879C213.699 6.31723 214.067 6.68523 214.313 6.9919C214.619 7.23723 215.049 7.1759 215.601 6.8079C216.214 6.4399 216.49 6.0719 216.429 5.7039C216.367 5.3359 216.245 4.84523 216.061 4.2319C215.938 3.61857 215.785 3.18923 215.601 2.9439C215.417 2.69856 215.049 2.54523 214.497 2.4839ZM208.057 3.8639L207.229 3.9559L207.413 4.8759H208.241L208.057 3.8639ZM211.001 8.3719L209.989 8.0959L209.805 9.3839L210.909 10.0279L211.737 9.1079L211.001 8.3719ZM216.797 9.6599C216.674 9.41457 216.582 9.23057 216.521 9.1079C216.459 8.9239 216.275 8.8319 215.969 8.8319C215.417 8.89323 215.079 9.23056 214.957 9.8439C214.895 10.0892 214.926 10.2732 215.049 10.3959C215.233 10.4572 215.447 10.5492 215.693 10.6719C215.938 10.7946 216.122 10.9172 216.245 11.0399C216.429 11.1012 216.613 11.0399 216.797 10.8559C217.042 10.6719 217.134 10.5186 217.073 10.3959C217.011 10.2119 216.919 9.96657 216.797 9.6599ZM207.873 10.8559L207.413 10.3039L206.493 10.4879L206.953 11.2239L207.689 11.7759L207.873 10.8559ZM223.329 12.6959L222.409 12.8799L222.685 13.8919L223.697 14.1679L224.065 13.2479L223.329 12.6959ZM208.057 15.0879L207.505 14.7199L206.677 14.9959L206.953 16.0079H208.057V15.0879ZM216.061 16.7439C215.631 16.3759 215.141 16.3759 214.589 16.7439C214.282 16.9279 214.037 17.1119 213.853 17.2959C213.73 17.4799 213.699 17.7559 213.761 18.1239C214.006 18.8599 214.466 19.2586 215.141 19.3199C215.57 19.3199 215.846 19.2586 215.969 19.1359C216.091 18.9519 216.245 18.6452 216.429 18.2159C216.674 17.6639 216.551 17.1732 216.061 16.7439ZM209.897 17.3879L209.161 16.7439L208.701 17.5719V18.3079H209.621L209.897 17.3879ZM222.869 20.2399L221.765 20.6079L222.225 21.5279L222.961 21.7119L223.605 21.0679L222.869 20.2399ZM207.229 22.7239L206.125 21.9879L205.205 22.7239L205.665 23.7359L206.677 23.8279L207.229 22.7239ZM220.109 23.7359C220.047 23.1839 219.863 22.8466 219.557 22.7239C219.311 22.6012 218.913 22.4786 218.361 22.3559C217.931 22.2946 217.625 22.3559 217.441 22.5399C217.318 22.7239 217.165 22.9999 216.981 23.3679C216.797 23.7359 216.674 24.0426 216.613 24.2879C216.613 24.4719 216.735 24.7172 216.981 25.0239C217.349 25.3919 217.625 25.6372 217.809 25.7599C218.054 25.8826 218.391 25.8212 218.821 25.5759C219.311 25.3306 219.649 25.1159 219.833 24.9319C220.078 24.6866 220.17 24.2879 220.109 23.7359ZM212.749 25.3919C211.829 25.1466 211.123 25.1466 210.633 25.3919C210.203 25.6372 209.713 26.1586 209.161 26.9559C208.731 27.6919 208.609 28.2746 208.793 28.7039C209.038 29.1332 209.437 29.6546 209.989 30.2679C210.541 30.9426 211.001 31.4026 211.369 31.6479C211.737 31.8932 212.289 31.8626 213.025 31.5559C214.006 31.1266 214.742 30.7586 215.233 30.4519C215.785 30.1452 216.03 29.4706 215.969 28.4279C215.907 27.3239 215.601 26.6186 215.049 26.3119C214.558 25.9439 213.791 25.6372 212.749 25.3919ZM221.029 27.5999L220.385 27.6919L219.925 28.4279L220.845 28.7959L221.673 28.2439L221.029 27.5999ZM208.609 35.8799C208.057 35.8186 207.75 35.9719 207.689 36.3399C207.627 36.6466 207.505 37.0452 207.321 37.5359C207.137 38.0266 206.953 38.4252 206.769 38.7319C206.646 38.9772 206.769 39.2532 207.137 39.5599C207.505 39.8666 207.811 39.9279 208.057 39.7439C208.302 39.4986 208.639 39.2532 209.069 39.0079C209.498 38.7626 209.866 38.5786 210.173 38.4559C210.479 38.3332 210.571 37.9959 210.449 37.4439C210.326 36.8919 210.142 36.5239 209.897 36.3399C209.651 36.0946 209.222 35.9412 208.609 35.8799ZM214.773 36.6159L213.853 36.7999L214.313 37.7199L215.325 37.9959L215.601 36.9839L214.773 36.6159ZM223.329 41.3079L222.685 40.8479L222.409 41.5839L222.777 42.4119L223.421 41.8599L223.329 41.3079ZM215.141 42.3199C214.711 41.8906 214.19 41.8292 213.577 42.1359C212.963 42.4426 212.718 42.9332 212.841 43.6079C212.963 44.2826 213.362 44.6812 214.037 44.8039C214.527 44.8652 214.895 44.8959 215.141 44.8959C215.386 44.8346 215.631 44.5892 215.877 44.1599C216.061 43.7306 216.061 43.4239 215.877 43.2399C215.754 42.9946 215.509 42.6879 215.141 42.3199ZM221.949 45.5399C221.151 44.9879 220.385 44.9879 219.649 45.5399C219.219 45.8466 218.974 46.1532 218.913 46.4599C218.913 46.7052 219.005 47.0732 219.189 47.5639C219.373 48.1772 219.526 48.6679 219.649 49.0359C219.771 49.3426 220.139 49.4959 220.753 49.4959C221.427 49.4959 221.918 49.4039 222.225 49.2199C222.593 49.0359 222.899 48.6066 223.145 47.9319C223.329 47.3186 223.298 46.8892 223.053 46.6439C222.807 46.3372 222.439 45.9692 221.949 45.5399ZM209.253 45.7239C208.762 45.5399 208.363 45.5092 208.057 45.6319C207.811 45.6932 207.535 45.9386 207.229 46.3679C206.983 46.7972 206.922 47.1346 207.045 47.3799C207.167 47.5639 207.382 47.8399 207.689 48.2079C208.057 48.6372 208.333 49.0052 208.517 49.3119C208.701 49.5572 209.038 49.5572 209.529 49.3119C210.142 49.1279 210.51 48.9132 210.633 48.6679C210.817 48.3612 210.909 47.9012 210.909 47.2879C210.847 46.6746 210.694 46.3066 210.449 46.1839C210.203 45.9999 209.805 45.8466 209.253 45.7239ZM215.509 50.4159L214.865 50.1399L214.405 50.8759L214.957 51.6119L215.877 51.1519L215.509 50.4159ZM212.381 52.1639L211.645 51.6119L210.817 52.1639L211.093 53.2679L212.013 52.9919L212.381 52.1639ZM208.517 54.0959C208.517 53.5439 208.455 53.1452 208.333 52.8999C208.21 52.5932 207.873 52.3479 207.321 52.1639C206.891 52.0412 206.615 52.1332 206.493 52.4399C206.37 52.6852 206.155 53.0226 205.849 53.4519C205.542 53.8812 205.542 54.3106 205.849 54.7399C206.155 55.1079 206.37 55.3839 206.493 55.5679C206.615 55.7519 206.891 55.7826 207.321 55.6599C207.811 55.4759 208.118 55.2919 208.241 55.1079C208.425 54.9239 208.517 54.5866 208.517 54.0959ZM221.029 52.4399C220.661 52.3786 220.385 52.5932 220.201 53.0839C220.017 53.5132 220.047 53.8506 220.293 54.0959C220.538 54.3412 220.875 54.3412 221.305 54.0959C221.55 53.9732 221.734 53.8812 221.857 53.8199C222.041 53.6972 222.102 53.5132 222.041 53.2679C221.918 52.7772 221.581 52.5012 221.029 52.4399ZM214.865 55.4759L214.313 54.7399L213.393 55.2919L213.669 56.3039L214.589 56.2119L214.865 55.4759ZM215.601 59.8919C215.539 59.4626 215.447 59.1559 215.325 58.9719C215.263 58.7266 215.018 58.5426 214.589 58.4199C214.098 58.3586 213.73 58.3586 213.485 58.4199C213.239 58.4812 212.994 58.7266 212.749 59.1559C212.503 59.5852 212.503 59.8919 212.749 60.0759C212.994 60.1986 213.27 60.4132 213.577 60.7199C213.761 60.9652 213.914 61.1492 214.037 61.2719C214.221 61.3946 214.466 61.3946 214.773 61.2719C215.386 60.9652 215.662 60.5052 215.601 59.8919ZM223.421 59.3399C223.237 58.9106 222.991 58.7266 222.685 58.7879C222.378 58.8492 221.979 58.9106 221.489 58.9719C221.059 59.0332 220.722 59.0946 220.477 59.1559C220.293 59.2172 220.139 59.4626 220.017 59.8919C219.955 60.4439 219.925 60.8732 219.925 61.1799C219.925 61.4866 220.17 61.7626 220.661 62.0079C221.09 62.2532 221.397 62.2532 221.581 62.0079C221.765 61.7012 222.041 61.3639 222.409 60.9959C222.777 60.6279 223.083 60.3826 223.329 60.2599C223.574 60.0759 223.605 59.7692 223.421 59.3399ZM233.372 64.3999C232.82 64.3999 232.329 64.2159 231.9 63.8479C231.532 63.4186 231.348 62.9279 231.348 62.3759C231.348 62.1306 231.378 61.9159 231.44 61.7319L251.956 3.0359C252.14 2.36123 252.569 1.68657 253.244 1.0119C253.918 0.337232 254.869 -0.000102043 256.096 -0.000102043H276.06C277.286 -0.000102043 278.237 0.337232 278.912 1.0119C279.586 1.68657 280.016 2.36123 280.2 3.0359L300.716 61.7319C300.777 61.9159 300.808 62.1306 300.808 62.3759C300.808 62.9279 300.593 63.4186 300.164 63.8479C299.796 64.2159 299.336 64.3999 298.784 64.3999H281.764C280.598 64.3999 279.74 64.1546 279.188 63.6639C278.697 63.1119 278.36 62.5906 278.176 62.0999L275.968 56.0279H256.188L253.98 62.0999C253.796 62.5906 253.458 63.1119 252.968 63.6639C252.477 64.1546 251.618 64.3999 250.392 64.3999H233.372ZM261.248 5.8879C260.88 5.82657 260.573 5.82657 260.328 5.8879C260.144 5.8879 259.96 6.04123 259.776 6.3479C259.53 7.02257 259.653 7.60523 260.144 8.0959C260.512 8.40256 260.818 8.61723 261.064 8.7399C261.309 8.86257 261.646 8.80123 262.076 8.5559C262.505 8.3719 262.72 8.15723 262.72 7.9119C262.72 7.60523 262.689 7.20657 262.628 6.7159C262.566 6.3479 262.413 6.13323 262.168 6.0719C261.984 6.01057 261.677 5.94923 261.248 5.8879ZM271 8.3719C270.693 7.69723 270.356 7.29857 269.988 7.1759C269.62 7.05323 269.098 7.02257 268.424 7.0839C267.626 7.14523 266.982 7.23723 266.492 7.3599C266.062 7.42123 265.756 7.85057 265.572 8.6479C265.326 9.5679 265.296 10.2732 265.48 10.7639C265.664 11.1932 266.154 11.6532 266.952 12.1439C267.749 12.6346 268.393 12.8799 268.884 12.8799C269.436 12.8186 270.08 12.4812 270.816 11.8679C271.429 11.3159 271.674 10.7946 271.552 10.3039C271.49 9.81323 271.306 9.16923 271 8.3719ZM254.716 9.0159C254.348 8.70923 254.01 8.61723 253.704 8.7399C253.458 8.80123 253.152 8.98523 252.784 9.2919C252.232 9.6599 252.078 10.1812 252.324 10.8559C252.446 11.3466 252.569 11.7146 252.692 11.9599C252.814 12.2052 253.121 12.3279 253.612 12.3279C254.164 12.3279 254.562 12.2666 254.808 12.1439C255.053 11.9599 255.268 11.6226 255.452 11.1319C255.636 10.5799 255.666 10.1812 255.544 9.9359C255.421 9.62924 255.145 9.32257 254.716 9.0159ZM263.824 13.5239C263.517 13.5239 263.333 13.6159 263.272 13.7999C263.272 13.9839 263.21 14.2292 263.088 14.5359C262.965 14.7812 262.873 14.9959 262.812 15.1799C262.75 15.3026 262.812 15.4559 262.996 15.6399C263.364 16.0079 263.793 16.0386 264.284 15.7319C264.774 15.4866 264.958 15.1186 264.836 14.6279C264.652 13.9532 264.314 13.5852 263.824 13.5239ZM278.544 17.2959C278.36 16.8666 278.145 16.6212 277.9 16.5599C277.716 16.4372 277.378 16.4066 276.888 16.4679C276.397 16.5292 275.998 16.5906 275.692 16.6519C275.385 16.7132 275.17 16.9892 275.048 17.4799C274.986 18.0319 275.078 18.3999 275.324 18.5839C275.569 18.7679 275.906 18.9826 276.336 19.2279C276.765 19.4732 277.102 19.6572 277.348 19.7799C277.654 19.8412 277.992 19.7186 278.36 19.4119C278.728 19.0439 278.912 18.7372 278.912 18.4919C278.912 18.1852 278.789 17.7866 278.544 17.2959ZM252.416 18.3079C251.986 17.9399 251.618 17.7559 251.312 17.7559C251.005 17.7559 250.606 17.9092 250.116 18.2159C249.564 18.5226 249.165 18.8292 248.92 19.1359C248.674 19.3812 248.644 19.8106 248.828 20.4239C248.95 21.0986 249.134 21.5586 249.38 21.8039C249.686 22.0492 250.208 22.2026 250.944 22.2639C251.557 22.3252 251.986 22.2332 252.232 21.9879C252.477 21.6812 252.722 21.2519 252.968 20.6999C253.213 20.1479 253.305 19.7186 253.244 19.4119C253.182 19.1052 252.906 18.7372 252.416 18.3079ZM260.88 38.0879H271.276L266.032 20.9759L260.88 38.0879ZM279.556 24.5639C279.065 24.3799 278.666 24.2879 278.36 24.2879C278.053 24.2879 277.746 24.5026 277.44 24.9319C277.133 25.3612 277.01 25.7292 277.072 26.0359C277.133 26.2812 277.317 26.6186 277.624 27.0479C277.992 27.5999 278.268 28.0292 278.452 28.3359C278.697 28.5812 279.126 28.6119 279.74 28.4279C280.353 28.2439 280.69 27.9986 280.752 27.6919C280.874 27.3239 280.936 26.8026 280.936 26.1279C280.936 25.6372 280.813 25.2999 280.568 25.1159C280.384 24.9319 280.046 24.7479 279.556 24.5639ZM256.004 28.8879C255.636 28.2746 255.268 27.9066 254.9 27.7839C254.532 27.6612 254.01 27.6919 253.336 27.8759C252.661 27.9986 252.232 28.2132 252.048 28.5199C251.925 28.8266 251.833 29.3172 251.772 29.9919C251.71 30.5439 251.802 30.9119 252.048 31.0959C252.293 31.2799 252.661 31.4639 253.152 31.6479C253.826 31.9546 254.348 32.2612 254.716 32.5679C255.084 32.8746 255.544 32.7519 256.096 32.1999C256.648 31.5866 256.862 31.0652 256.74 30.6359C256.678 30.2066 256.433 29.6239 256.004 28.8879ZM277.9 31.2799C277.47 31.0959 277.164 31.1266 276.98 31.3719C276.796 31.6172 276.55 31.8932 276.244 32.1999C275.937 32.5066 275.722 32.7519 275.6 32.9359C275.538 33.0586 275.6 33.3039 275.784 33.6719C276.09 34.2852 276.55 34.5612 277.164 34.4999C277.593 34.4386 277.838 34.3159 277.9 34.1319C278.022 33.9479 278.114 33.6412 278.176 33.2119C278.237 32.7212 278.298 32.3532 278.36 32.1079C278.482 31.8012 278.329 31.5252 277.9 31.2799ZM284.248 33.0279L283.328 33.3959L282.868 34.1319L283.696 34.6839L284.34 34.0399L284.248 33.0279ZM283.604 38.2719C283.42 37.7812 283.266 37.3826 283.144 37.0759C283.082 36.7692 282.806 36.5852 282.316 36.5239C281.764 36.4626 281.426 36.5852 281.304 36.8919C281.181 37.1986 281.028 37.5972 280.844 38.0879C280.598 38.7012 280.721 39.2226 281.212 39.6519C281.702 40.0812 282.07 40.4799 282.316 40.8479C282.561 41.1546 282.96 41.1546 283.512 40.8479C284.064 40.4799 284.248 40.1119 284.064 39.7439C283.88 39.3759 283.726 38.8852 283.604 38.2719ZM277.716 36.6159L276.888 37.2599L276.98 38.0879L277.9 38.3639L278.176 37.5359L277.716 36.6159ZM287.836 39.2839C287.345 38.9159 286.946 38.8852 286.64 39.1919C286.333 39.3759 286.088 39.5599 285.904 39.7439C285.781 39.9279 285.781 40.1732 285.904 40.4799C286.026 40.8479 286.18 41.0319 286.364 41.0319C286.609 41.0319 286.916 41.0319 287.284 41.0319C287.713 41.0319 288.05 41.0319 288.296 41.0319C288.541 41.0319 288.694 40.8479 288.756 40.4799C288.878 40.1119 288.817 39.8666 288.572 39.7439C288.388 39.6212 288.142 39.4679 287.836 39.2839ZM257.476 42.5959C257.292 42.0439 257.108 41.6759 256.924 41.4919C256.74 41.3079 256.372 41.2159 255.82 41.2159C255.084 41.2772 254.501 41.3386 254.072 41.3999C253.704 41.3999 253.428 41.7372 253.244 42.4119C252.998 43.2092 252.937 43.8226 253.06 44.2519C253.182 44.6812 253.612 45.1412 254.348 45.6319C254.961 45.9999 255.421 46.0306 255.728 45.7239C256.034 45.3559 256.464 44.9572 257.016 44.5279C257.384 44.2212 257.598 43.9452 257.66 43.6999C257.721 43.3932 257.66 43.0252 257.476 42.5959ZM271.092 42.4119C270.54 42.1052 270.049 42.1359 269.62 42.5039C269.252 42.8719 269.19 43.3319 269.436 43.8839C269.558 44.1292 269.681 44.2519 269.804 44.2519C269.988 44.2519 270.233 44.2519 270.54 44.2519C271.092 44.1906 271.398 43.9759 271.46 43.6079C271.582 42.9946 271.46 42.5959 271.092 42.4119ZM277.44 43.2399C277.133 43.0559 276.888 42.9026 276.704 42.7799C276.581 42.5959 276.397 42.5959 276.152 42.7799C275.845 43.0252 275.722 43.2399 275.784 43.4239C275.845 43.6079 275.937 43.8839 276.06 44.2519C276.244 44.8039 276.55 45.0799 276.98 45.0799C277.286 45.0799 277.47 45.0186 277.532 44.8959C277.654 44.7119 277.777 44.4666 277.9 44.1599C277.961 43.8532 277.808 43.5466 277.44 43.2399ZM263.824 44.6199L263.364 43.7919L262.26 44.1599L262.444 45.4479L263.64 45.8159L263.824 44.6199ZM249.472 45.7239C249.042 45.2946 248.705 44.9572 248.46 44.7119C248.276 44.4052 247.908 44.3746 247.356 44.6199C246.804 44.9266 246.466 45.2332 246.344 45.5399C246.221 45.8466 246.19 46.3372 246.252 47.0119C246.374 47.6866 246.497 48.1772 246.62 48.4839C246.804 48.7906 247.233 49.0359 247.908 49.2199C248.644 49.3426 249.226 49.3732 249.656 49.3119C250.085 49.1892 250.484 48.7906 250.852 48.1159C251.22 47.5026 251.189 47.0732 250.76 46.8279C250.33 46.5826 249.901 46.2146 249.472 45.7239ZM283.604 47.0119C283.42 46.5826 283.266 46.2759 283.144 46.0919C283.021 45.8466 282.745 45.7239 282.316 45.7239C281.825 45.7852 281.518 45.9386 281.396 46.1839C281.273 46.3679 281.15 46.6746 281.028 47.1039C280.966 47.4719 280.997 47.7479 281.12 47.9319C281.242 48.1159 281.457 48.2999 281.764 48.4839C282.132 48.7292 282.408 48.9132 282.592 49.0359C282.837 49.0972 283.144 49.0052 283.512 48.7599C283.818 48.4532 283.941 48.1772 283.88 47.9319C283.88 47.6866 283.788 47.3799 283.604 47.0119ZM269.988 47.3799L269.528 46.5519L268.884 47.1959V47.8399L269.712 48.2079L269.988 47.3799ZM254.808 49.0359C254.378 48.6679 254.01 48.5452 253.704 48.6679C253.458 48.7292 253.09 48.9132 252.6 49.2199C252.232 49.4652 252.017 49.7106 251.956 49.9559C251.956 50.2012 252.017 50.5386 252.14 50.9679C252.262 51.5812 252.692 51.9186 253.428 51.9799C253.918 51.9799 254.286 51.9799 254.532 51.9799C254.777 51.9186 254.992 51.6732 255.176 51.2439C255.36 50.6919 255.452 50.2932 255.452 50.0479C255.452 49.7412 255.237 49.4039 254.808 49.0359ZM288.94 52.2559C288.326 52.0719 287.836 52.0106 287.468 52.0719C287.161 52.1332 286.854 52.4399 286.548 52.9919C286.118 53.6666 285.781 54.2186 285.536 54.6479C285.29 55.0159 285.444 55.5066 285.996 56.1199C286.486 56.7946 286.946 57.0706 287.376 56.9479C287.866 56.8252 288.48 56.6106 289.216 56.3039C290.013 55.9972 290.626 55.7519 291.056 55.5679C291.485 55.3839 291.669 54.8626 291.608 54.0039C291.546 53.2066 291.27 52.7772 290.78 52.7159C290.289 52.5932 289.676 52.4399 288.94 52.2559ZM248.368 55.7519C248 54.8932 247.54 54.4946 246.988 54.5559C246.497 54.5559 245.792 54.5866 244.872 54.6479C243.89 54.7092 243.093 54.7706 242.48 54.8319C241.928 54.8319 241.529 55.3226 241.284 56.3039C241.038 57.2852 241.1 58.0212 241.468 58.5119C241.836 58.9412 242.449 59.4319 243.308 59.9839C244.35 60.5972 245.148 61.0266 245.7 61.2719C246.313 61.5172 247.049 61.2412 247.908 60.4439C248.828 59.7079 249.226 59.0332 249.104 58.4199C249.042 57.7452 248.797 56.8559 248.368 55.7519Z" fill="white"/>
<path d="M0 79.8866C-1.10089 79.8866 -1.99333 80.779 -1.99333 81.8799C-1.99333 82.9808 -1.10089 83.8732 0 83.8732V81.8799V79.8866ZM0 81.8799V83.8732C3.60112 83.8732 5.44555 81.6735 6.73263 80.2025C8.06179 78.6835 8.83362 77.8932 10.465 77.8932V75.8999V73.9066C6.86387 73.9066 5.01945 76.1063 3.73236 77.5773C2.4032 79.0963 1.63137 79.8866 0 79.8866V81.8799Z" fill="white"/>
<path d="M10.465 75.8999V77.8932C12.0964 77.8932 12.8682 78.6835 14.1974 80.2025C15.4844 81.6735 17.3289 83.8732 20.93 83.8732V81.8799V79.8866C19.2986 79.8866 18.5268 79.0963 17.1976 77.5773C15.9105 76.1063 14.0661 73.9066 10.465 73.9066V75.8999Z" fill="white"/>
<path d="M20.93 81.8799V83.8732C24.5311 83.8732 26.3755 81.6735 27.6626 80.2025C28.9918 78.6835 29.7636 77.8932 31.395 77.8932V75.8999V73.9066C27.7939 73.9066 25.9494 76.1063 24.6623 77.5773C23.3332 79.0963 22.5614 79.8866 20.93 79.8866V81.8799Z" fill="white"/>
<path d="M31.395 75.8999V77.8932C33.0263 77.8932 33.7982 78.6835 35.1273 80.2025C36.4144 81.6735 38.2588 83.8732 41.86 83.8732V81.8799V79.8866C40.2286 79.8866 39.4568 79.0963 38.1276 77.5773C36.8405 76.1063 34.9961 73.9066 31.395 73.9066V75.8999Z" fill="white"/>
<path d="M41.86 81.8799V83.8732C45.4611 83.8732 47.3055 81.6735 48.5926 80.2025C49.9218 78.6835 50.6936 77.8932 52.325 77.8932V75.8999V73.9066C48.7238 73.9066 46.8794 76.1063 45.5923 77.5773C44.2632 79.0963 43.4913 79.8866 41.86 79.8866V81.8799Z" fill="white"/>
<path d="M52.325 75.8999V77.8932C53.9563 77.8932 54.7282 78.6835 56.0573 80.2025C57.3444 81.6735 59.1888 83.8732 62.79 83.8732V81.8799V79.8866C61.1586 79.8866 60.3868 79.0963 59.0576 77.5773C57.7705 76.1063 55.9261 73.9066 52.325 73.9066V75.8999Z" fill="white"/>
<path d="M62.79 81.8799V83.8732C66.3911 83.8732 68.2355 81.6735 69.5226 80.2025C70.8518 78.6835 71.6236 77.8932 73.2549 77.8932V75.8999V73.9066C69.6538 73.9066 67.8094 76.1063 66.5223 77.5773C65.1932 79.0963 64.4213 79.8866 62.79 79.8866V81.8799Z" fill="white"/>
<path d="M73.2549 75.8999V77.8932C74.8863 77.8932 75.6581 78.6835 76.9873 80.2025C78.2744 81.6735 80.1188 83.8732 83.7199 83.8732V81.8799V79.8866C82.0886 79.8866 81.3167 79.0963 79.9876 77.5773C78.7005 76.1063 76.8561 73.9066 73.2549 73.9066V75.8999Z" fill="white"/>
<path d="M83.7199 81.8799V83.8732C87.3211 83.8732 89.1655 81.6735 90.4526 80.2025C91.7817 78.6835 92.5536 77.8932 94.1849 77.8932V75.8999V73.9066C90.5838 73.9066 88.7394 76.1063 87.4523 77.5773C86.1231 79.0963 85.3513 79.8866 83.7199 79.8866V81.8799Z" fill="white"/>
<path d="M94.1849 75.8999V77.8932C95.8163 77.8932 96.5881 78.6835 97.9173 80.2025C99.2044 81.6735 101.049 83.8732 104.65 83.8732V81.8799V79.8866C103.019 79.8866 102.247 79.0963 100.918 77.5773C99.6305 76.1063 97.7861 73.9066 94.1849 73.9066V75.8999Z" fill="white"/>
<path d="M104.65 81.8799V83.8732C108.251 83.8732 110.095 81.6735 111.383 80.2025C112.712 78.6835 113.484 77.8932 115.115 77.8932V75.8999V73.9066C111.514 73.9066 109.669 76.1063 108.382 77.5773C107.053 79.0963 106.281 79.8866 104.65 79.8866V81.8799Z" fill="white"/>
<path d="M115.115 75.8999V77.8932C116.746 77.8932 117.518 78.6835 118.847 80.2025C120.134 81.6735 121.979 83.8732 125.58 83.8732V81.8799V79.8866C123.949 79.8866 123.177 79.0963 121.848 77.5773C120.56 76.1063 118.716 73.9066 115.115 73.9066V75.8999Z" fill="white"/>
<path d="M125.58 81.8799V83.8732C129.181 83.8732 131.025 81.6735 132.313 80.2025C133.642 78.6835 134.414 77.8932 136.045 77.8932V75.8999V73.9066C132.444 73.9066 130.599 76.1063 129.312 77.5773C127.983 79.0963 127.211 79.8866 125.58 79.8866V81.8799Z" fill="white"/>
<path d="M136.045 75.8999V77.8932C137.676 77.8932 138.448 78.6835 139.777 80.2025C141.064 81.6735 142.909 83.8732 146.51 83.8732V81.8799V79.8866C144.879 79.8866 144.107 79.0963 142.778 77.5773C141.49 76.1063 139.646 73.9066 136.045 73.9066V75.8999Z" fill="white"/>
<path d="M146.51 81.8799V83.8732C150.111 83.8732 151.955 81.6735 153.243 80.2025C154.572 78.6835 155.344 77.8932 156.975 77.8932V75.8999V73.9066C153.374 73.9066 151.529 76.1063 150.242 77.5773C148.913 79.0963 148.141 79.8866 146.51 79.8866V81.8799Z" fill="white"/>
<path d="M156.975 75.8999V77.8932C158.606 77.8932 159.378 78.6835 160.707 80.2025C161.994 81.6735 163.839 83.8732 167.44 83.8732V81.8799V79.8866C165.809 79.8866 165.037 79.0963 163.708 77.5773C162.42 76.1063 160.576 73.9066 156.975 73.9066V75.8999Z" fill="white"/>
<path d="M167.44 81.8799V83.8732C171.041 83.8732 172.885 81.6735 174.173 80.2025C175.502 78.6835 176.274 77.8932 177.905 77.8932V75.8999V73.9066C174.304 73.9066 172.459 76.1063 171.172 77.5773C169.843 79.0963 169.071 79.8866 167.44 79.8866V81.8799Z" fill="white"/>
<path d="M177.905 75.8999V77.8932C179.536 77.8932 180.308 78.6835 181.637 80.2025C182.924 81.6735 184.769 83.8732 188.37 83.8732V81.8799V79.8866C186.739 79.8866 185.967 79.0963 184.638 77.5773C183.35 76.1063 181.506 73.9066 177.905 73.9066V75.8999Z" fill="white"/>
<path d="M188.37 81.8799V83.8732C191.971 83.8732 193.815 81.6735 195.103 80.2025C196.432 78.6835 197.204 77.8932 198.835 77.8932V75.8999V73.9066C195.234 73.9066 193.389 76.1063 192.102 77.5773C190.773 79.0963 190.001 79.8866 188.37 79.8866V81.8799Z" fill="white"/>
<path d="M198.835 75.8999V77.8932C200.466 77.8932 201.238 78.6835 202.567 80.2025C203.854 81.6735 205.699 83.8732 209.3 83.8732V81.8799V79.8866C207.669 79.8866 206.897 79.0963 205.568 77.5773C204.28 76.1063 202.436 73.9066 198.835 73.9066V75.8999Z" fill="white"/>
<path d="M209.3 81.8799V83.8732C212.901 83.8732 214.745 81.6735 216.033 80.2025C217.362 78.6835 218.134 77.8932 219.765 77.8932V75.8999V73.9066C216.164 73.9066 214.319 76.1063 213.032 77.5773C211.703 79.0963 210.931 79.8866 209.3 79.8866V81.8799Z" fill="white"/>
<path d="M219.765 75.8999V77.8932C221.396 77.8932 222.168 78.6835 223.497 80.2025C224.784 81.6735 226.629 83.8732 230.23 83.8732V81.8799V79.8866C228.599 79.8866 227.827 79.0963 226.498 77.5773C225.21 76.1063 223.366 73.9066 219.765 73.9066V75.8999Z" fill="white"/>
<path d="M230.23 81.8799V83.8732C233.831 83.8732 235.675 81.6735 236.963 80.2025C238.292 78.6835 239.064 77.8932 240.695 77.8932V75.8999V73.9066C237.094 73.9066 235.249 76.1063 233.962 77.5773C232.633 79.0963 231.861 79.8866 230.23 79.8866V81.8799Z" fill="white"/>
<path d="M240.695 75.8999V77.8932C242.326 77.8932 243.098 78.6835 244.427 80.2025C245.714 81.6735 247.559 83.8732 251.16 83.8732V81.8799V79.8866C249.529 79.8866 248.757 79.0963 247.428 77.5773C246.14 76.1063 244.296 73.9066 240.695 73.9066V75.8999Z" fill="white"/>
<path d="M251.16 81.8799V83.8732C254.761 83.8732 256.605 81.6735 257.893 80.2025C259.222 78.6835 259.993 77.8932 261.625 77.8932V75.8999V73.9066C258.024 73.9066 256.179 76.1063 254.892 77.5773C253.563 79.0963 252.791 79.8866 251.16 79.8866V81.8799Z" fill="white"/>
<path d="M261.625 75.8999V77.8932C263.256 77.8932 264.028 78.6835 265.357 80.2025C266.644 81.6735 268.489 83.8732 272.09 83.8732V81.8799V79.8866C270.458 79.8866 269.687 79.0963 268.357 77.5773C267.07 76.1063 265.226 73.9066 261.625 73.9066V75.8999Z" fill="white"/>
<path d="M272.09 81.8799V83.8732C275.691 83.8732 277.535 81.6735 278.822 80.2025C280.152 78.6835 280.923 77.8932 282.555 77.8932V75.8999V73.9066C278.954 73.9066 277.109 76.1063 275.822 77.5773C274.493 79.0963 273.721 79.8866 272.09 79.8866V81.8799Z" fill="white"/>
<path d="M282.555 75.8999V77.8932C284.186 77.8932 284.958 78.6835 286.287 80.2025C287.574 81.6735 289.419 83.8732 293.02 83.8732V81.8799V79.8866C291.388 79.8866 290.617 79.0963 289.287 77.5773C288 76.1063 286.156 73.9066 282.555 73.9066V75.8999ZM293.02 83.8732C294.121 83.8732 295.013 82.9808 295.013 81.8799C295.013 80.779 294.121 79.8866 293.02 79.8866V81.8799V83.8732Z" fill="white"/>
</svg>
