<svg width="712" height="365" viewBox="0 0 712 365" fill="none" xmlns="http://www.w3.org/2000/svg">
<path d="M356.275 365C271.437 365 222.407 296.528 222.407 182.776C222.407 63.5023 273.09 0 356.275 0C441.114 0 489.593 67.3676 489.593 182.224C489.593 301.498 439.461 365 356.275 365ZM356.275 347.33C428.994 347.33 468.659 288.245 468.659 182.224C468.659 78.4115 427.342 17.6702 356.275 17.6702C283.557 17.6702 243.892 76.2027 243.892 182.776C243.892 286.036 284.658 347.33 356.275 347.33Z" fill="#151515"/>
<path d="M175.401 357.147H154.791V264.798H0V246.329L156.418 7.85348H175.401V248.502H214.943V264.798H175.401V357.147ZM20.0681 248.502H154.791V36.1011L20.0681 248.502Z" fill="#151515"/>
<path d="M672.458 357.147H651.847V264.798H497.057V246.329L653.474 7.85348H672.458V248.502H712V264.798H672.458V357.147ZM517.125 248.502H651.847V36.1011L517.125 248.502Z" fill="#151515"/>
<ellipse cx="313.15" cy="108.738" rx="34.3194" ry="47.7375" fill="#F25144"/>
<ellipse cx="399.851" cy="108.738" rx="34.3194" ry="47.7375" fill="#F25144"/>
<circle cx="392.626" cy="124.22" r="11.6118" fill="#151515"/>
<circle cx="320.374" cy="124.22" r="11.6118" fill="#151515"/>
</svg>
